<svg xmlns="http://www.w3.org/2000/svg" width="46.715" height="45.652" viewBox="0 0 46.715 45.652">
  <g id="Grupo_202" data-name="Grupo 202" transform="translate(0)" opacity="0.3">
    <path id="Trazado_884" data-name="Trazado 884" d="M805.142,205.777a10.142,10.142,0,0,1-.8,1.031q-4.207,4.243-8.437,8.464a1.5,1.5,0,0,1-2.5,0q-1.37-1.372-2.74-2.743a1.532,1.532,0,0,1-.248-2.33,3.048,3.048,0,0,0-2.25-1.219,3.573,3.573,0,0,1-2.246-1c-.78-.745-1.543-1.51-2.3-2.275a.678.678,0,0,1-.062-1.043.711.711,0,0,1,1.048.1q1.043,1.021,2.071,2.058a2.591,2.591,0,0,0,1.685.808,4.3,4.3,0,0,1,3,1.553l7.015-6.988a4.036,4.036,0,0,1-1.324-2.53,16.414,16.414,0,0,1-.034-2.142,3,3,0,0,0-.985-2.4c-.98-.933-1.91-1.917-2.878-2.863a2.19,2.19,0,0,0-2.794-.327c.6.569,1.188,1.115,1.761,1.678a.674.674,0,0,1-.725,1.108,1.22,1.22,0,0,1-.391-.3c-.615-.609-1.224-1.224-1.935-1.936v.523c0,1.307-.044,2.617.01,3.922a2.393,2.393,0,0,1-3.163,2.544.7.7,0,0,0-.15,0c0,.421,0,.842,0,1.263a2.367,2.367,0,0,1-3.324,2.43,2.51,2.51,0,0,1-1.678,1.762c-.118.04-.207.173-.3.27-.849.849-1.7,1.7-2.544,2.552a3.983,3.983,0,0,1-2.607,1.252,2.954,2.954,0,0,0-2.155,1.213,1.5,1.5,0,0,1-.187,2.266q-1.447,1.456-2.9,2.905a1.445,1.445,0,0,1-2.275.018q-2.872-2.869-5.736-5.746a1.521,1.521,0,0,1-.241-.272.638.638,0,0,1,.082-.835.622.622,0,0,1,.829-.108,2.137,2.137,0,0,1,.374.331c1.927,1.92,3.853,3.842,5.754,5.739l3.222-3.267-9.033-8.994-3.208,3.231c.154.16.346.366.545.565.779.782.907,1.131.548,1.5-.378.39-.714.27-1.53-.548-.182-.183-.37-.361-.546-.551a1.412,1.412,0,0,1-.007-2.014q1.607-1.65,3.256-3.259c.582-.567,1.291-.534,2.1.065a2.614,2.614,0,0,0,.991-1.945c.027-.683.008-1.368.013-2.052a3.951,3.951,0,0,1,1.179-2.872q1.514-1.517,3.029-3.035a3.839,3.839,0,0,1,2.359-1.13c-.56-2.173-.252-4.36-.261-6.529a3.34,3.34,0,0,1,1.122-2.329c.46-.464.932-.918,1.381-1.392a2.624,2.624,0,0,0,.747-2.156c-1.254-.319-1.532-.686-1.533-1.991s0-2.585,0-3.877a1.481,1.481,0,0,1,1.647-1.628q6.2,0,12.407,0a1.461,1.461,0,0,1,1.624,1.6q.005,2.121,0,4.242a1.467,1.467,0,0,1-1.208,1.588.453.453,0,0,0-.265.316,2.729,2.729,0,0,0,.65,2.073,4.134,4.134,0,0,1,.99,2.815q-.01,3.6.007,7.207a3.158,3.158,0,0,0,.214.763,3.934,3.934,0,0,1,2.806-.649,3.71,3.71,0,0,1,2.032,1.046c1.025,1.018,2.04,2.045,3.063,3.065a4.028,4.028,0,0,1,1.177,2.539c.688.017,1.01.245,1,.689s-.359.7-.965.661a3.094,3.094,0,0,0,.958,2.974,5.119,5.119,0,0,1,.534-.329,1.4,1.4,0,0,1,1.632.327q1.589,1.571,3.155,3.166a4.422,4.422,0,0,1,.453.665Zm-19.121-28.037h-.528c-1.475,0-2.949,0-4.424,0a1.9,1.9,0,0,1-.54-.054.56.56,0,0,1-.447-.689,1.34,1.34,0,0,1,.531-.589c.113-.081.324-.032.491-.033q2.941,0,5.883,0c.175,0,.35-.02.519-.03v-4.653H774.619v4.657c.178.01.34.025.5.026.745,0,1.49,0,2.235,0,.537,0,.852.259.855.672s-.32.682-.845.692c-.391.008-.782,0-1.188,0a2.543,2.543,0,0,0-.033.272,4.2,4.2,0,0,1-1.407,3.151c-.4.378-.776.772-1.16,1.162a2.229,2.229,0,0,0-.724,1.53c-.024,1.641-.034,3.284,0,4.924a2.077,2.077,0,0,0,1.618,1.9c.01-.165.026-.322.027-.48,0-.639-.013-1.278.011-1.915a.677.677,0,1,1,1.355.011c.009.136,0,.274,0,.41q0,5.974,0,11.948a2.517,2.517,0,0,0,.048.587.949.949,0,0,0,1.867-.14c.018-.181.013-.364.014-.547q0-5.336,0-10.671c0-.613.238-.943.676-.953s.686.317.692.926c0,.122,0,.243,0,.365q0,6.02,0,12.04a2.848,2.848,0,0,0,.053.633.947.947,0,0,0,1.842-.039,3.049,3.049,0,0,0,.041-.589q-.008-4.583-.022-9.166c0-1.11-.007-2.219,0-3.329,0-.521.289-.832.712-.827.405,0,.655.3.675.809,0,.122,0,.243,0,.365q0,5.268,0,10.535c0,.152-.007.3.006.456a.946.946,0,0,0,1.863.126,3.137,3.137,0,0,0,.045-.634q0-5.268,0-10.535a3.779,3.779,0,0,1,.021-.546.6.6,0,0,1,.618-.558.615.615,0,0,1,.692.525,2.677,2.677,0,0,1,.034.544q0,3.42,0,6.841a3.842,3.842,0,0,0,.024.546.948.948,0,0,0,1.839.142,2.124,2.124,0,0,0,.068-.584q0-7.046,0-14.092a2.773,2.773,0,0,0-.664-1.89,3.98,3.98,0,0,1-.933-2C786.043,178.611,786.05,178.214,786.021,177.741ZM772.209,209.2a4.556,4.556,0,0,1,3.319-1.635,1.737,1.737,0,0,0,.98-.436c.828-.8,1.6-1.649,2.34-2.424l-1.117-1.53c-1.828.561-3.227-.482-3.227-2.487q0-3.807,0-7.615V192.6l-.112-.052q-.8.826-1.608,1.653c-.117.12-.231.242-.357.352a.693.693,0,0,1-.982.01.664.664,0,0,1,.03-.978c.56-.571,1.139-1.124,1.723-1.7a2.218,2.218,0,0,0-2.776.367c-1.041,1.023-2.065,2.063-3.1,3.095a2.55,2.55,0,0,0-.755,1.848c-.007.669,0,1.338-.008,2.006a3.981,3.981,0,0,1-1.082,2.684c-.1.11-.2.223-.286.327Zm22.429,5.253,9.066-9.025-3.189-3.17-9.07,9.02Z" transform="translate(-758.428 -170.29)" fill="#1b1c3b"/>
    <path id="Trazado_885" data-name="Trazado 885" d="M786.894,280.721a.726.726,0,0,1-1.451.038.726.726,0,1,1,1.451-.038Z" transform="translate(-775.489 -239.579)" fill="#1b1c3b"/>
    <path id="Trazado_886" data-name="Trazado 886" d="M859.579,206.1a.682.682,0,1,1-1.364-.021.671.671,0,0,1,.711-.666A.689.689,0,0,1,859.579,206.1Z" transform="translate(-821.445 -192.473)" fill="#1b1c3b"/>
    <path id="Trazado_887" data-name="Trazado 887" d="M774.791,212.062a.681.681,0,0,1-.689-.647.718.718,0,0,1,.682-.716.682.682,0,0,1,.677.66A.663.663,0,0,1,774.791,212.062Z" transform="translate(-768.326 -195.809)" fill="#1b1c3b"/>
    <path id="Trazado_888" data-name="Trazado 888" d="M816.343,282a.685.685,0,0,1,.681.7.664.664,0,0,1-.674.654.687.687,0,0,1-.689-.694A.7.7,0,0,1,816.343,282Z" transform="translate(-794.571 -240.833)" fill="#1b1c3b"/>
    <path id="Trazado_889" data-name="Trazado 889" d="M789.1,195.158a.7.7,0,0,1-.678-.7.689.689,0,0,1,.715-.661.671.671,0,0,1,.65.672A.7.7,0,0,1,789.1,195.158Z" transform="translate(-777.369 -185.132)" fill="#1b1c3b"/>
    <path id="Trazado_890" data-name="Trazado 890" d="M771.887,218.947a.684.684,0,0,1,.091-1.365.684.684,0,0,1-.091,1.365Z" transform="translate(-766.532 -200.154)" fill="#1b1c3b"/>
    <path id="Trazado_891" data-name="Trazado 891" d="M862.786,212.133a.7.7,0,0,1,.666.723.678.678,0,1,1-1.355-.078A.671.671,0,0,1,862.786,212.133Z" transform="translate(-823.896 -196.714)" fill="#1b1c3b"/>
    <path id="Trazado_892" data-name="Trazado 892" d="M778.682,205.751a.7.7,0,0,1-.672-.67.684.684,0,0,1,.691-.692.675.675,0,0,1,.674.66A.707.707,0,0,1,778.682,205.751Z" transform="translate(-770.794 -191.824)" fill="#1b1c3b"/>
    <path id="Trazado_893" data-name="Trazado 893" d="M824.431,282.44a.683.683,0,0,1-1.365,0,.683.683,0,1,1,1.365,0Z" transform="translate(-799.248 -240.68)" fill="#1b1c3b"/>
    <path id="Trazado_894" data-name="Trazado 894" d="M848.256,195.506a.675.675,0,0,1-.692-.688.682.682,0,0,1,.667-.672.708.708,0,0,1,.7.7A.679.679,0,0,1,848.256,195.506Z" transform="translate(-814.719 -185.355)" fill="#1b1c3b"/>
    <path id="Trazado_895" data-name="Trazado 895" d="M867.053,228.364a.684.684,0,0,1,.006-1.367.694.694,0,0,1,.691.689A.686.686,0,0,1,867.053,228.364Z" transform="translate(-826.607 -206.101)" fill="#1b1c3b"/>
    <path id="Trazado_896" data-name="Trazado 896" d="M770.536,240.361a.653.653,0,0,1-.667.657.677.677,0,0,1-.687-.694.708.708,0,0,1,.678-.67A.683.683,0,0,1,770.536,240.361Z" transform="translate(-765.219 -214.095)" fill="#1b1c3b"/>
    <path id="Trazado_897" data-name="Trazado 897" d="M772.129,247.657a.709.709,0,0,1-.66.688.685.685,0,0,1-.694-.69.651.651,0,0,1,.695-.674A.677.677,0,0,1,772.129,247.657Z" transform="translate(-766.225 -218.721)" fill="#1b1c3b"/>
    <path id="Trazado_898" data-name="Trazado 898" d="M866.2,220.093a.68.68,0,0,1-.729.652.656.656,0,0,1-.627-.7.678.678,0,0,1,.671-.664A.705.705,0,0,1,866.2,220.093Z" transform="translate(-825.635 -201.293)" fill="#1b1c3b"/>
    <path id="Trazado_899" data-name="Trazado 899" d="M838.056,277.984a.694.694,0,0,1,.663.68.7.7,0,0,1-.71.682.681.681,0,0,1,.047-1.362Z" transform="translate(-808.273 -238.3)" fill="#1b1c3b"/>
    <path id="Trazado_900" data-name="Trazado 900" d="M854.673,200.039a.652.652,0,0,1-.659.665.694.694,0,0,1-.7-.683.709.709,0,0,1,.672-.677A.686.686,0,0,1,854.673,200.039Z" transform="translate(-818.347 -188.638)" fill="#1b1c3b"/>
    <path id="Trazado_901" data-name="Trazado 901" d="M831.691,281.1a.683.683,0,0,1-.688.695.706.706,0,0,1-.672-.675.679.679,0,0,1,.7-.684A.656.656,0,0,1,831.691,281.1Z" transform="translate(-803.836 -239.85)" fill="#1b1c3b"/>
    <path id="Trazado_902" data-name="Trazado 902" d="M770.783,225.475a.659.659,0,0,1-.683.689.674.674,0,0,1-.672-.664.705.705,0,0,1,.693-.7A.683.683,0,0,1,770.783,225.475Z" transform="translate(-765.375 -204.713)" fill="#1b1c3b"/>
    <path id="Trazado_903" data-name="Trazado 903" d="M769.437,232.219a.7.7,0,0,1,.695.648.669.669,0,0,1-.66.717.652.652,0,0,1-.687-.637A.681.681,0,0,1,769.437,232.219Z" transform="translate(-764.968 -209.398)" fill="#1b1c3b"/>
    <path id="Trazado_904" data-name="Trazado 904" d="M801.875,280.559a.69.69,0,0,1-.664-.717.654.654,0,0,1,.68-.643.675.675,0,0,1,.672.706A.7.7,0,0,1,801.875,280.559Z" transform="translate(-785.446 -239.067)" fill="#1b1c3b"/>
    <path id="Trazado_905" data-name="Trazado 905" d="M809.665,281.859a.684.684,0,0,1-.669.668.7.7,0,0,1-.692-.7.671.671,0,0,1,.678-.656A.657.657,0,0,1,809.665,281.859Z" transform="translate(-789.925 -240.312)" fill="#1b1c3b"/>
    <path id="Trazado_906" data-name="Trazado 906" d="M841.72,189.916a.707.707,0,0,1,.7.7.669.669,0,0,1-.669.661.66.66,0,0,1-.688-.684A.684.684,0,0,1,841.72,189.916Z" transform="translate(-810.611 -182.684)" fill="#1b1c3b"/>
    <path id="Trazado_907" data-name="Trazado 907" d="M783.517,200.059a.694.694,0,0,1-.7-.643.677.677,0,0,1,.664-.715.651.651,0,0,1,.691.632A.687.687,0,0,1,783.517,200.059Z" transform="translate(-773.83 -188.232)" fill="#1b1c3b"/>
    <path id="Trazado_908" data-name="Trazado 908" d="M868.068,235.431a.658.658,0,0,1-.677.695.684.684,0,0,1-.677-.66.7.7,0,0,1,.689-.7A.666.666,0,0,1,868.068,235.431Z" transform="translate(-826.812 -211.007)" fill="#1b1c3b"/>
    <path id="Trazado_909" data-name="Trazado 909" d="M796.091,190.475a.676.676,0,1,1-1.352.011.66.66,0,0,1,.694-.676A.653.653,0,0,1,796.091,190.475Z" transform="translate(-781.359 -182.617)" fill="#1b1c3b"/>
    <path id="Trazado_910" data-name="Trazado 910" d="M872.645,263.805a.721.721,0,0,1-.716.728.741.741,0,0,1-.722-.73.714.714,0,0,1,.724-.716A.7.7,0,0,1,872.645,263.805Z" transform="translate(-829.649 -228.892)" fill="#1b1c3b"/>
  </g>
</svg>
