<svg xmlns="http://www.w3.org/2000/svg" width="39.253" height="47.548" viewBox="0 0 39.253 47.548">
  <g id="icon3" transform="translate(-0.3 -0.8)">
    <path id="Trazado_192" data-name="Trazado 192" d="M19.926,2.419c1.214,1.416,5.463,5.261,18.412,5.463V30.948c0,7.082-11.938,13.556-18.412,16.187-1.821-.809-18.412-7.689-18.412-16.187V7.679c12.949,0,17.2-3.642,18.412-5.261m0-1.619a1.051,1.051,0,0,0-.809.4S16.487,6.465,1.109,6.465A.87.87,0,0,0,.3,7.275V30.948c0,9.712,18.412,17,19.222,17.4h.809c.809-.4,19.222-7.689,19.222-17.4V7.275c0-.4-.4-.607-.809-.607-15.377,0-18.008-5.261-18.008-5.261-.2-.4-.4-.607-.809-.607Z" transform="translate(0 0)" fill="#f4971b"/>
    <path id="Trazado_193" data-name="Trazado 193" d="M26.452,21.459a3.751,3.751,0,0,1-.4,1.416l-6.879-7.689,6.879-6.07a3.751,3.751,0,0,1,.4,1.416V21.459ZM15.526,16.4l9.51-8.3a2.876,2.876,0,0,0-1.214-.4H7.23a2.169,2.169,0,0,0-1.214.4Zm2.63-.607-2.226,2.023c-.2.2-.2.2-.4.2s-.4,0-.4-.2L12.9,15.793,5.814,23.684a3.751,3.751,0,0,0,1.416.4H23.619a2.924,2.924,0,0,0,1.416-.4l-6.879-7.891ZM5,8.914a3.751,3.751,0,0,0-.4,1.416V21.256A3.751,3.751,0,0,0,5,22.673l6.879-7.689L5,8.914Z" transform="translate(4.4 7.061)" fill="#1b1c3b"/>
  </g>
</svg>
