<svg xmlns="http://www.w3.org/2000/svg" width="20.119" height="20.102" viewBox="0 0 20.119 20.102">
  <g id="Icon_ionic-ios-rocket" data-name="Icon ionic-ios-rocket" transform="translate(-3.366 -3.372)">
    <path id="Trazado_20" data-name="Trazado 20" d="M23.378,3.645a.213.213,0,0,0-.16-.164c-2.63-.643-8.707,1.649-12,4.941a14.232,14.232,0,0,0-1.6,1.89,5.955,5.955,0,0,0-2.9.363c-2.442,1.073-3.152,3.877-3.351,5.081a.433.433,0,0,0,.474.5l3.921-.43a8.717,8.717,0,0,0,.053.885.878.878,0,0,0,.256.537l1.518,1.518a.878.878,0,0,0,.537.256,8.7,8.7,0,0,0,.88.053l-.43,3.916a.433.433,0,0,0,.5.474c1.2-.193,4.013-.9,5.081-3.346a5.982,5.982,0,0,0,.367-2.886,14.255,14.255,0,0,0,1.9-1.6C21.735,12.347,24.012,6.405,23.378,3.645Zm-7.89,7.731a2.065,2.065,0,1,1,2.92,0A2.063,2.063,0,0,1,15.488,11.376Z" transform="translate(0 0)" fill="#ffc42e"/>
    <path id="Trazado_21" data-name="Trazado 21" d="M10.244,25.688h0a1.834,1.834,0,0,1-.957.387,1.3,1.3,0,0,1-1.5-1.5,1.8,1.8,0,0,1,.382-.952l0,0a.162.162,0,0,0-.135-.276,2.223,2.223,0,0,0-1.3.633c-.87.87-.952,4.1-.952,4.1s3.234-.082,4.1-.952a2.208,2.208,0,0,0,.633-1.3A.165.165,0,0,0,10.244,25.688Z" transform="translate(-0.756 -6.238)" fill="#ffc42e"/>
  </g>
</svg>
