<svg xmlns="http://www.w3.org/2000/svg" width="22.669" height="23.356" viewBox="0 0 22.669 23.356">
  <g id="Grupo_139" data-name="Grupo 139" transform="translate(-2.533 -2.25)">
    <path id="Trazado_2378" data-name="Trazado 2378" d="M15.571,22.285V16.214A1.214,1.214,0,0,0,14.357,15H10.714A1.214,1.214,0,0,0,9.5,16.214v6.071" transform="translate(1.332 2.571)" fill="none" stroke="#00795b" stroke-linecap="round" stroke-linejoin="round" stroke-width="1.5"/>
    <path id="Trazado_2379" data-name="Trazado 2379" d="M5,11v7.285c0,2.29,0,3.434.711,4.146s1.856.711,4.146.711h7.285c2.29,0,3.434,0,4.146-.711S22,20.575,22,18.285V11" transform="translate(0.368 1.714)" fill="none" stroke="#00795b" stroke-width="1.5"/>
    <path id="Trazado_2380" data-name="Trazado 2380" d="M4.908,4.839c.221-.883.331-1.325.661-1.582S6.354,3,7.264,3H20.471c.911,0,1.366,0,1.7.257s.44.7.661,1.582l1.461,5.846a3.333,3.333,0,0,1,.163.9,1.214,1.214,0,0,1-.838,1.073,3.437,3.437,0,0,1-.926.059h0a5.966,5.966,0,0,1-1.243-.063,2.429,2.429,0,0,1-1.691-1.433,5.806,5.806,0,0,1-.263-1.194h0a1.267,1.267,0,0,0-.06-.285.121.121,0,0,0-.2,0,1.267,1.267,0,0,0-.06.285l-.1.594c-.01.063-.016.094-.021.122a2.429,2.429,0,0,1-2.329,1.973h-.248a2.429,2.429,0,0,1-2.329-1.973c-.005-.028-.011-.059-.021-.122l-.1-.594a1.267,1.267,0,0,0-.06-.285.121.121,0,0,0-.2,0,1.267,1.267,0,0,0-.06.285l-.1.594c-.01.063-.016.094-.021.122a2.429,2.429,0,0,1-2.329,1.973h-.248A2.429,2.429,0,0,1,8.683,10.74c-.005-.028-.011-.059-.021-.122l-.1-.594a1.268,1.268,0,0,0-.06-.285.121.121,0,0,0-.2,0,1.268,1.268,0,0,0-.06.285h0a5.806,5.806,0,0,1-.263,1.194A2.428,2.428,0,0,1,6.29,12.651a5.966,5.966,0,0,1-1.243.063h0a3.438,3.438,0,0,1-.926-.059,1.214,1.214,0,0,1-.838-1.073,3.337,3.337,0,0,1,.163-.9Z" transform="translate(0)" fill="none" stroke="#00795b" stroke-width="1.5"/>
  </g>
</svg>
