<svg xmlns="http://www.w3.org/2000/svg" width="15.85" height="15.85" viewBox="0 0 15.85 15.85">
  <path id="Icon_awesome-linkedin-in" data-name="Icon awesome-linkedin-in" d="M3.548,15.85H.262V5.268H3.548ZM1.9,3.825A1.912,1.912,0,1,1,3.806,1.9,1.919,1.919,0,0,1,1.9,3.825ZM15.846,15.85H12.567V10.7c0-1.228-.025-2.8-1.708-2.8-1.708,0-1.97,1.334-1.97,2.714v5.24H5.606V5.268H8.758V6.712H8.8A3.453,3.453,0,0,1,11.913,5c3.326,0,3.937,2.19,3.937,5.034V15.85Z" transform="translate(0 -0.001)" fill="#0068b8"/>
</svg>
