<svg xmlns="http://www.w3.org/2000/svg" width="46.715" height="48.445" viewBox="0 0 46.715 48.445">
  <g id="icon_mision" transform="translate(-1148.06 -846.5)">
    <path id="Trazado_930" data-name="Trazado 930" d="M1173.591,177.506c-.01.214-.024.366-.024.517,0,3.205,0,6.41-.008,9.616,0,.368.086.522.473.623.777.2,1.529.5,2.356.786.492-.866,1.008-1.755,1.494-2.659a.615.615,0,0,0-.035-.49,3.614,3.614,0,0,1,.463-4.108c.394-.536.637-1.181.99-1.751.11-.179.377-.405.53-.378a.835.835,0,0,1,.5.483,16.772,16.772,0,0,1,.5,1.627.543.543,0,0,0,.777.429c.545-.16,1.086-.337,1.641-.453.206-.043.552-.009.638.121a.812.812,0,0,1,0,.7c-.6,1.161-1.234,2.307-1.884,3.442a1.052,1.052,0,0,1-.543.421c-.619.208-1.26.35-1.881.551a.9.9,0,0,0-.461.355c-.486.811-.942,1.641-1.4,2.454.651.559,1.341,1.056,1.917,1.661a12.09,12.09,0,0,1-16.991,17.2,1.138,1.138,0,0,0-.858-.354q-9.616.015-19.232.006a4.952,4.952,0,0,1-5-3.339,5.818,5.818,0,0,1-.287-1.822q-.024-17.37-.009-34.741a4.515,4.515,0,0,1,4.72-4.715q17.216-.007,34.431,0a4.52,4.52,0,0,1,4.757,4.731q.026,2.895,0,5.79a3.123,3.123,0,0,1-3.271,3.3C1176.476,177.525,1175.064,177.506,1173.591,177.506Zm-14.65,21.695h-.58q-3.205,0-6.41,0c-.634,0-.976-.261-.986-.732-.011-.491.341-.761,1.006-.761q2.533,0,5.067,0h2.055l1.172-3.355h-.534q-3.774,0-7.548,0a3.45,3.45,0,0,1-.618-.034.679.679,0,0,1-.593-.733.688.688,0,0,1,.612-.72,2.9,2.9,0,0,1,.516-.017c2.929,0,5.859,0,8.788.006a.845.845,0,0,0,.693-.325c.655-.705,1.349-1.373,2.037-2.047a1.345,1.345,0,0,1,.331-.179l-.115-.131h-.567q-5.687,0-11.374,0c-.58,0-.92-.281-.929-.742s.336-.753.906-.772c.138,0,.276,0,.414,0,4.515,0,9.03.01,13.545-.012a10.789,10.789,0,0,0,1.821-.252c.659-.118,1.307-.318,1.969-.4.795-.1,1.6-.1,2.489-.149,0-.857.006-1.7,0-2.544-.041-4.962-.1-9.925-.119-14.887-.008-1.8-.1-3.631,1.212-5.236h-30.548c-.258,0-.517-.006-.775,0a3.058,3.058,0,0,0-3.128,3.209q-.011,17.37,0,34.741a3.5,3.5,0,0,0,3.684,3.668q9.047.008,18.094,0c.143,0,.286-.022.392-.031l-1.56-3.353a.137.137,0,0,0-.058-.012q-3.619,0-7.237-.009c-.2,0-.468.029-.6-.081a1.192,1.192,0,0,1-.466-.706c-.008-.218.253-.492.462-.655a1.077,1.077,0,0,1,.6-.083q3.231-.007,6.462,0h.544Zm15.75-4.1c.164.147.307.269.443.4a5.929,5.929,0,0,1,1.969,5.151,6.058,6.058,0,1,1-4.176-6.433c.2.061.393.247.567-.071.435-.8.893-1.579,1.341-2.369a8.979,8.979,0,0,0-11.545,3.536,9.089,9.089,0,1,0,12.875-2.808Zm-1.528,2.723c-.116.19-.208.333-.292.48-.358.628-.706,1.26-1.071,1.884a.772.772,0,0,1-1.075.4c-.409-.22-.5-.662-.23-1.165.089-.167.187-.329.28-.494l1.034-1.829a2.952,2.952,0,0,0-3.506,1.653,3.039,3.039,0,0,0,5.184,3.092A2.988,2.988,0,0,0,1173.164,197.826Z" transform="translate(10.813 682.821)" fill="#ffc42e"/>
    <path id="Trazado_931" data-name="Trazado 931" d="M1196.451,184.909c-2.772,0-5.545.006-8.317-.009a1.314,1.314,0,0,1-.76-.222.715.715,0,0,1,.283-1.23,2.116,2.116,0,0,1,.612-.058q8.188,0,16.376,0c.086,0,.172,0,.258,0,.532.024.874.318.88.752.006.455-.349.765-.911.766Q1200.661,184.913,1196.451,184.909Z" transform="translate(-25.353 668.531)" fill="#ffc42e"/>
    <path id="Trazado_932" data-name="Trazado 932" d="M1196.486,219c2.806,0,5.612,0,8.418,0a.793.793,0,0,1,.9.6.718.718,0,0,1-.541.865,2.575,2.575,0,0,1-.565.039q-8.186,0-16.372,0a3.784,3.784,0,0,1-.464-.015.694.694,0,0,1-.675-.765.687.687,0,0,1,.728-.714c.585-.016,1.171-.006,1.756-.006Z" transform="translate(-25.397 642.712)" fill="#ffc42e"/>
    <path id="Trazado_933" data-name="Trazado 933" d="M1193.221,235.679c-1.706,0-3.412.017-5.117-.016a1.286,1.286,0,0,1-.847-.35.7.7,0,0,1,.442-1.122,2.359,2.359,0,0,1,.564-.039q4.962,0,9.924,0c.086,0,.172,0,.258,0,.558.023.91.336.89.792s-.352.73-.893.733C1196.7,235.684,1194.961,235.679,1193.221,235.679Z" transform="translate(-25.334 631.722)" fill="#ffc42e"/>
    <path id="Trazado_934" data-name="Trazado 934" d="M1193.281,200.111q-2.48,0-4.96,0a2.709,2.709,0,0,1-.566-.033.626.626,0,0,1-.554-.744,1.53,1.53,0,0,1,.573-.691c.107-.087.333-.032.5-.032H1198.3a3.97,3.97,0,0,1,.413.01.739.739,0,0,1,.042,1.468,3.426,3.426,0,0,1-.516.022Q1195.761,200.112,1193.281,200.111Z" transform="translate(-25.397 657.504)" fill="#ffc42e"/>
    <path id="Trazado_935" data-name="Trazado 935" d="M1156.28,222.48c.83-.635,1.614-1.249,2.417-1.838a.974.974,0,0,1,.641-.251c.248.057.6.27.641.474a1.043,1.043,0,0,1-.253.851c-.567.522-1.211.962-1.825,1.432-.423.324-.84.658-1.274.968a.756.756,0,0,1-1.133-.157q-.619-.793-1.2-1.614a.76.76,0,0,1,.115-1.1.75.75,0,0,1,1.087.193C1155.752,221.756,1155.99,222.093,1156.28,222.48Z" transform="translate(-1.414 641.704)" fill="#ffc42e"/>
    <path id="Trazado_936" data-name="Trazado 936" d="M1156.25,257.981l2.473-1.891a.751.751,0,0,1,1.072,0,.726.726,0,0,1-.072,1.13c-1.041.819-2.1,1.622-3.156,2.417a.7.7,0,0,1-1.055-.121c-.451-.564-.883-1.145-1.294-1.739a.707.707,0,0,1,.138-1.016.728.728,0,0,1,1.055.123c.149.166.272.355.408.532S1156.089,257.771,1156.25,257.981Z" transform="translate(-1.38 615.975)" fill="#ffc42e"/>
    <path id="Trazado_937" data-name="Trazado 937" d="M1156.292,186.89c.828-.632,1.6-1.228,2.385-1.82.5-.378.93-.379,1.227-.008s.189.823-.326,1.219q-1.392,1.07-2.788,2.134c-.6.455-.942.409-1.389-.18-.364-.48-.724-.963-1.074-1.453a.77.77,0,0,1,.1-1.14.761.761,0,0,1,1.084.22C1155.773,186.182,1156.012,186.518,1156.292,186.89Z" transform="translate(-1.427 667.517)" fill="#ffc42e"/>
    <path id="Trazado_938" data-name="Trazado 938" d="M1156.279,290.864c.763-.583,1.5-1.147,2.235-1.709a3.078,3.078,0,0,1,.418-.3.7.7,0,0,1,.964.2.664.664,0,0,1-.082.976c-1.089.868-2.194,1.718-3.318,2.539a.677.677,0,0,1-.969-.179q-.654-.831-1.262-1.7a.752.752,0,1,1,1.216-.884c.143.172.268.358.4.536C1156.006,290.511,1156.131,290.672,1156.279,290.864Z" transform="translate(-1.408 592.133)" fill="#ffc42e"/>
  </g>
</svg>
