<svg xmlns="http://www.w3.org/2000/svg" width="39.253" height="47.548" viewBox="0 0 39.253 47.548">
  <g id="icon2" transform="translate(-0.3 -0.8)">
    <path id="Trazado_189" data-name="Trazado 189" d="M12.791,10.63c-.809,0-1.619.2-2.226.2a3.294,3.294,0,0,0-1.214.607v1.214H4.9A7.6,7.6,0,0,1,5.912,9.821,3.441,3.441,0,0,1,7.935,8.607c.809-.2,1.416-.4,1.619-.4A9.074,9.074,0,0,1,11.779,8h3.44a23.506,23.506,0,0,1,4.451.2,6.23,6.23,0,0,1,2.63.607,3.1,3.1,0,0,1,2.023,1.416,7.6,7.6,0,0,1,1.012,2.833H21.087V11.844a2.313,2.313,0,0,0-1.416-.607,6.883,6.883,0,0,0-2.023-.2H15.219a2.584,2.584,0,0,0-2.428-.4Zm-3.44,2.428v.809a.537.537,0,0,1-.607.607H5.507a.2.2,0,0,1-.2-.2c-.2-.2-.4-.2-.4-.4v-.809Zm-2.63,9.914v-3.44a1.824,1.824,0,0,1,.2-1.012c0-.4.2-.607.4-1.012l3.844-5.058V11.237h1.619v1.012h4.654V11.237h1.821v1.214L23.11,17.51a2.793,2.793,0,0,0,.607.809,8.763,8.763,0,0,1,.2,1.012v3.44c0,.809-.2,1.012-.809,1.012H7.53c-.607.2-.809-.2-.809-.809ZM18.254,17.1c.809-.4,1.214-.809,1.214-1.416s-.4-1.012-1.214-1.416a6.757,6.757,0,0,0-3.035-.607,6.757,6.757,0,0,0-3.035.607c-.809.4-1.214.809-1.214,1.416s.4,1.012,1.214,1.416a6.757,6.757,0,0,0,3.035.607A6.757,6.757,0,0,0,18.254,17.1Zm7.284-3.237c0,.2,0,.2-.2.4l-.2.2h-3.44c-.2,0-.2,0-.4-.2a.706.706,0,0,1-.2-.4v-.809h4.249Z" transform="translate(4.707 7.368)" fill="#1b1c3b"/>
    <path id="Trazado_190" data-name="Trazado 190" d="M19.926,2.419c1.214,1.416,5.463,5.261,18.412,5.463V30.948c0,7.082-11.938,13.556-18.412,16.187-1.821-.809-18.412-7.689-18.412-16.187V7.679c12.949,0,17.2-3.642,18.412-5.261m0-1.619a1.051,1.051,0,0,0-.809.4S16.487,6.465,1.109,6.465A.87.87,0,0,0,.3,7.275V30.948c0,9.712,18.412,17,19.222,17.4h.809c.809-.4,19.222-7.689,19.222-17.4V7.275c0-.4-.4-.607-.809-.607-15.377,0-18.008-5.261-18.008-5.261-.2-.4-.4-.607-.809-.607Z" transform="translate(0 0)" fill="#f4971b"/>
  </g>
</svg>
