<svg xmlns="http://www.w3.org/2000/svg" width="45.673" height="45.652" viewBox="0 0 45.673 45.652">
  <g id="Grupo_201" data-name="Grupo 201" transform="translate(0)">
    <path id="Trazado_919" data-name="Trazado 919" d="M947.566,252.118v4.565h-1.475v-.739c0-1.642,0-3.284,0-4.926,0-.85.548-1.164,1.277-.732,1,.593,1.993,1.208,3,1.79a1.552,1.552,0,0,0,.725.206c1.5.019,3,.009,4.537.009v-2.21a27.182,27.182,0,0,0-2.841.019,3.456,3.456,0,0,1-3.163-1.218c-.873-.963-1.9-1.786-2.847-2.681a1.84,1.84,0,0,0-1.326-.527c-2.67,0-5.34-.01-8.009-.012a2.217,2.217,0,0,0-2.4,2.411c0,2.854,0,5.708,0,8.6H933.57V256.2q0-4.028,0-8.056a3.659,3.659,0,0,1,3.165-3.9.872.872,0,0,0,.147-.067.972.972,0,0,0-.1-.147,5.808,5.808,0,0,1-1.744-4.4,10.117,10.117,0,0,1,.366-3.5,5.91,5.91,0,0,1,6.738-3.632,5.756,5.756,0,0,1,4.679,5.6,24.362,24.362,0,0,1-.048,2.483,5.583,5.583,0,0,1-1.771,3.53c.047.041.068.076.088.075a3.948,3.948,0,0,1,3.21,1.4c.947.961,1.962,1.855,2.967,2.757a1.055,1.055,0,0,0,.641.251q4.488.024,8.976,0a1.119,1.119,0,0,0,.677-.275c1.105-1,2.2-2,3.273-3.037a3.405,3.405,0,0,1,2.639-1.078,3.4,3.4,0,0,0,.358-.025c-.232-.267-.429-.476-.606-.7a5.558,5.558,0,0,1-1.247-3.53,19.162,19.162,0,0,1,.081-2.663,5.889,5.889,0,0,1,11.693.814,25.251,25.251,0,0,1-.08,2.664,5.283,5.283,0,0,1-1.459,3.061c-.1.108-.2.218-.327.361.271.066.493.111.71.175a3.532,3.532,0,0,1,2.608,3.22c.059,2.884.023,5.769.026,8.654,0,.136,0,.273,0,.44h-1.473v-.5q0-4.051,0-8.1a2.221,2.221,0,0,0-2.4-2.417c-2.7,0-5.4.018-8.1.018a1.689,1.689,0,0,0-1.2.486c-1.257,1.172-2.523,2.334-3.772,3.514a1.367,1.367,0,0,1-1.027.407c-1.35-.019-2.7-.007-4.086-.007v2.18c.1.009.221.029.338.029,1.642,0,3.283.009,4.925-.008a1.157,1.157,0,0,0,.622-.208c.786-.562,1.555-1.148,2.324-1.733a.8.8,0,0,1,.929-.17.813.813,0,0,1,.4.814c0,1.886,0,3.772,0,5.692h-1.471V252.3c-.59.439-1.088.842-1.621,1.191a1.559,1.559,0,0,1-.8.264q-6.053.024-12.106,0a1.669,1.669,0,0,1-.774-.222C949.171,253.1,948.418,252.629,947.566,252.118Zm-2.222-14.528h-8.827c0,.807-.01,1.585,0,2.363a4.275,4.275,0,0,0,3.754,4.206,4.374,4.374,0,0,0,4.863-2.9A12.82,12.82,0,0,0,945.344,237.59Zm31.014.649a3.358,3.358,0,0,0-.358-.107,7.956,7.956,0,0,1-2.75-.991.967.967,0,0,0-.634-.043c-1.044.239-2.077.527-3.123.757-.667.147-1.35.223-2.042.333,0,.613-.008,1.2,0,1.777a4.418,4.418,0,0,0,8.649,1.082A18.592,18.592,0,0,0,976.358,238.24Zm-.4-1.618a4.416,4.416,0,0,0-8.174-.005,1.214,1.214,0,0,0,.269,0c1.5-.353,3.007-.688,4.5-1.082a1.27,1.27,0,0,1,1.275.184A4.362,4.362,0,0,0,975.955,236.622Zm-31.121-.535a4.377,4.377,0,0,0-4.38-2.194,4.264,4.264,0,0,0-3.416,2.194h7.8Z" transform="translate(-933.57 -211.031)" fill="#828e9c"/>
    <path id="Trazado_920" data-name="Trazado 920" d="M976.821,190.622l.858,1.2a16.406,16.406,0,0,1-1.518,1.015.932.932,0,0,1-.8-.017c-3.922-2.656-7.561-5.622-10.169-9.659a10.951,10.951,0,0,1-1.939-6.086,6.141,6.141,0,0,1,5.4-6.111,7.435,7.435,0,0,1,6.924,2.689c.057.067.121.128.174.184a18.646,18.646,0,0,1,1.414-1.332,7.3,7.3,0,0,1,6.813-1.3,6.17,6.17,0,0,1,4.283,6.878c-.079.6-.207,1.2-.321,1.851l-1.407-.419c.088-.508.186-1,.255-1.491a4.734,4.734,0,0,0-3.243-5.413,5.834,5.834,0,0,0-4.826.595,5.686,5.686,0,0,0-2.121,2.186c-.183.332-.37.643-.812.646s-.632-.307-.818-.637a5.959,5.959,0,0,0-7.247-2.692A4.666,4.666,0,0,0,964.72,177a10.123,10.123,0,0,0,2.155,6.042,31.524,31.524,0,0,0,6.533,6.565c.663.521,1.362,1,2.028,1.512a.454.454,0,0,0,.677,0A7.9,7.9,0,0,1,976.821,190.622Z" transform="translate(-952.944 -170.865)" fill="#828e9c"/>
    <path id="Trazado_921" data-name="Trazado 921" d="M1010.167,196.347c.445,0,.89-.007,1.335,0a.742.742,0,0,1,.828.823,6.991,6.991,0,0,1,0,.782.546.546,0,0,0,.311.543.693.693,0,0,0,.894-.011c1.146-.727,1.262-.685,1.939.489.352.611.71,1.218,1.056,1.833a.774.774,0,0,1-.339,1.225c-.158.094-.319.182-.479.274-.647.377-.651.959-.012,1.333,1.239.724,1.253.779.54,2.013-.345.6-.684,1.2-1.037,1.79a.756.756,0,0,1-1.191.325,2.494,2.494,0,0,1-.514-.3c-.43-.4-.755-.057-1.088.144-.072.044-.092.214-.094.326-.008.306.02.614.009.92a.693.693,0,0,1-.714.741c-.981.017-1.963.016-2.945,0a.71.71,0,0,1-.739-.724,6.5,6.5,0,0,1-.007-.874.554.554,0,0,0-.3-.547.7.7,0,0,0-.895.014c-1.158.722-1.261.684-1.94-.492q-.494-.856-.986-1.714c-.4-.706-.324-.992.392-1.409.119-.069.24-.136.357-.209.211-.13.463-.185.446-.552a.783.783,0,0,0-.434-.8c-1.237-.667-1.248-.771-.538-2,.345-.6.684-1.2,1.036-1.791a.758.758,0,0,1,1.193-.319c.175.1.346.2.518.3a.794.794,0,0,0,1.082-.139.534.534,0,0,0,.092-.332c0-.276-.025-.552-.021-.828a.745.745,0,0,1,.82-.835C1009.216,196.339,1009.692,196.347,1010.167,196.347Zm-4.121,9.866a1.8,1.8,0,0,1,2.244-.084,1.844,1.844,0,0,1,1.1,1.971h1.443c.188-1.985,1.538-2.756,3.415-1.946l.715-1.239c-.246-.142-.451-.275-.668-.382a.889.889,0,0,1-.533-1.009,5.342,5.342,0,0,0,0-1.147.852.852,0,0,1,.5-.939c.238-.123.462-.275.7-.421l-.743-1.279a1.822,1.822,0,0,1-2.261.07,1.9,1.9,0,0,1-1.1-1.969h-1.484a1.793,1.793,0,0,1-1.077,1.981,1.862,1.862,0,0,1-2.256-.062l-.732,1.27c.226.134.428.273.645.376a.908.908,0,0,1,.555,1.043,4.334,4.334,0,0,0,0,1.052.909.909,0,0,1-.556,1.042c-.218.1-.419.243-.645.376Z" transform="translate(-979.247 -187.497)" fill="#828e9c"/>
    <path id="Trazado_922" data-name="Trazado 922" d="M997.271,264.291h1.419v2.163h-1.419Z" transform="translate(-975.152 -231.85)" fill="#828e9c"/>
    <path id="Trazado_923" data-name="Trazado 923" d="M987.533,267.876l.889-.949,1.529,1.55-.9.89Z" transform="translate(-968.796 -233.571)" fill="#828e9c"/>
    <path id="Trazado_924" data-name="Trazado 924" d="M1005.209,269.479l-.86-.941,1.479-1.464.826.939Z" transform="translate(-979.773 -233.667)" fill="#828e9c"/>
    <path id="Trazado_925" data-name="Trazado 925" d="M947.056,252.983a.733.733,0,1,1,.717-.749A.74.74,0,0,1,947.056,252.983Z" transform="translate(-941.885 -223.512)" fill="#828e9c"/>
    <path id="Trazado_926" data-name="Trazado 926" d="M959.785,251.517a.733.733,0,1,1-.751.715A.74.74,0,0,1,959.785,251.517Z" transform="translate(-950.193 -223.511)" fill="#828e9c"/>
    <path id="Trazado_927" data-name="Trazado 927" d="M1036.861,252.252a.732.732,0,1,1-.731-.735A.741.741,0,0,1,1036.861,252.252Z" transform="translate(-1000.039 -223.512)" fill="#828e9c"/>
    <path id="Trazado_928" data-name="Trazado 928" d="M1048.867,252.983a.733.733,0,1,1,.72-.746A.74.74,0,0,1,1048.867,252.983Z" transform="translate(-1008.346 -223.512)" fill="#828e9c"/>
    <path id="Trazado_929" data-name="Trazado 929" d="M1014.136,209.809a2.918,2.918,0,0,1,2.914-2.933,2.948,2.948,0,1,1-2.914,2.933Zm1.476.018a1.473,1.473,0,0,0,1.5,1.471,1.5,1.5,0,0,0,1.445-1.491,1.476,1.476,0,0,0-1.512-1.457A1.447,1.447,0,0,0,1015.612,209.827Z" transform="translate(-986.161 -194.372)" fill="#828e9c"/>
  </g>
</svg>
