<svg id="shrare" xmlns="http://www.w3.org/2000/svg" width="34" height="34" viewBox="0 0 34 34">
  <circle id="Elipse_334" data-name="Elipse 334" cx="17" cy="17" r="17" fill="#d6dbdf"/>
  <path id="Icon_awesome-share-square" data-name="Icon awesome-share-square" d="M12.753,3.981,9.522,7.031a.539.539,0,0,1-.908-.391V5.025c-3.243.022-4.611.788-3.7,3.844a.359.359,0,0,1-.561.389A4.318,4.318,0,0,1,2.692,6.042c0-3.229,2.638-3.87,5.922-3.888V.539A.539.539,0,0,1,9.522.147L12.753,3.2A.539.539,0,0,1,12.753,3.981ZM8.614,8.5V10.05H1.436V2.871H2.578a.269.269,0,0,0,.194-.083,4.373,4.373,0,0,1,1.144-.845.269.269,0,0,0-.124-.508H1.077A1.077,1.077,0,0,0,0,2.512v7.9a1.077,1.077,0,0,0,1.077,1.077h7.9a1.077,1.077,0,0,0,1.077-1.077V8.417a.269.269,0,0,0-.359-.254,1.611,1.611,0,0,1-.767.076A.27.27,0,0,0,8.614,8.5Z" transform="translate(11 11)" fill="#1b1c3b" opacity="0.3"/>
</svg>
