<svg xmlns="http://www.w3.org/2000/svg" width="28.835" height="25" viewBox="0 0 28.835 25">
  <g id="carrito_icon" transform="translate(-281.052 -329.083)">
    <path id="Trazado_37" data-name="Trazado 37" d="M281.778,329.083h4.175a.671.671,0,0,1,.652.513l1.48,6.11h21.131a.672.672,0,0,1,.671.673.66.66,0,0,1-.032.2l-3.579,11.354a.67.67,0,0,1-.64.469H291.165l.134.551h12.718a2.565,2.565,0,1,1-2.254,1.338h-8.27a2.563,2.563,0,1,1-3.5-1.015l-.306-1.267a.673.673,0,0,1-.06-.243l-4.2-17.341h-3.648a.671.671,0,0,1-.113-1.338.6.6,0,0,1,.113,0Zm23.368,17.977,3.162-10.012H288.417l2.425,10.012Zm-2.354,4.456a1.216,1.216,0,1,0,1.216-1.216,1.217,1.217,0,0,0-1.216,1.216Zm-11.553,1.216a1.533,1.533,0,1,0,0,.006Z" fill="#fff"/>
  </g>
</svg>
