<svg xmlns="http://www.w3.org/2000/svg" width="20.12" height="20.14" viewBox="0 0 20.12 20.14">
  <path id="settings-solid" d="M22.841,11.539l-2.249-.671A7.821,7.821,0,0,0,19.954,9.3l1.1-2.061a.41.41,0,0,0-.074-.483l-1.6-1.611a.41.41,0,0,0-.483-.074L16.846,6.169A7.8,7.8,0,0,0,15.262,5.5L14.59,3.275a.41.41,0,0,0-.4-.275H11.925a.41.41,0,0,0-.389.289L10.865,5.5a7.807,7.807,0,0,0-1.6.671L7.253,5.088a.41.41,0,0,0-.483.074L5.138,6.753a.41.41,0,0,0-.074.483L6.152,9.25a7.807,7.807,0,0,0-.671,1.591l-2.222.671a.41.41,0,0,0-.289.389v2.269a.41.41,0,0,0,.289.389l2.235.671A7.8,7.8,0,0,0,6.165,16.8L5.064,18.9a.41.41,0,0,0,.074.483l1.6,1.6a.41.41,0,0,0,.483.074L9.3,19.957a7.821,7.821,0,0,0,1.544.631l.671,2.262a.409.409,0,0,0,.389.289h2.269a.41.41,0,0,0,.389-.289l.671-2.269a7.807,7.807,0,0,0,1.531-.631l2.088,1.114a.409.409,0,0,0,.483-.074l1.6-1.6a.41.41,0,0,0,.074-.483L19.9,16.822a7.807,7.807,0,0,0,.638-1.537l2.262-.671a.409.409,0,0,0,.289-.389V11.935a.409.409,0,0,0-.248-.4ZM13.06,16.762a3.692,3.692,0,1,1,3.692-3.692,3.692,3.692,0,0,1-3.692,3.692Z" transform="translate(-2.97 -3)" fill="#ffc42e"/>
</svg>
