<svg xmlns="http://www.w3.org/2000/svg" width="39.761" height="47.548" viewBox="0 0 39.761 47.548">
  <g id="icon4" transform="translate(-4365 -6692)">
    <path id="Trazado_177" data-name="Trazado 177" d="M20.18,2.419c1.23,1.416,5.534,5.261,18.651,5.463V30.948c0,7.082-12.092,13.556-18.651,16.187C18.336,46.325,1.53,39.446,1.53,30.948V7.679c13.117,0,17.421-3.642,18.651-5.261M20.18.8a1.069,1.069,0,0,0-.82.4S16.7,6.465,1.12,6.465a.876.876,0,0,0-.82.809V30.948c0,9.712,18.651,17,19.47,17.4h.82c.82-.4,19.47-7.689,19.47-17.4V7.275c0-.4-.41-.607-.82-.607C23.665,6.668,21,1.407,21,1.407,20.8,1,20.59.8,20.18.8Z" transform="translate(4364.7 6691.2)" fill="#f4971b"/>
    <g id="time" transform="translate(4371.789 6702.789)">
      <path id="Trazado_186" data-name="Trazado 186" d="M12.961,23.672A10.711,10.711,0,1,1,23.672,12.961,10.711,10.711,0,0,1,12.961,23.672Zm0-19.892a9.181,9.181,0,1,0,9.181,9.181A9.181,9.181,0,0,0,12.961,3.78Z" fill="#1b1c3b"/>
      <path id="Trazado_187" data-name="Trazado 187" d="M21.152,19.351l-4.277-4.277v-7.2h1.53v6.564l3.825,3.833Z" transform="translate(-4.679 -1.8)" fill="#1b1c3b"/>
    </g>
  </g>
</svg>
