<svg xmlns="http://www.w3.org/2000/svg" width="46.715" height="34.312" viewBox="0 0 46.715 34.312">
  <g id="Grupo_178" data-name="Grupo 178" transform="translate(-174.144 -170.764)">
    <path id="Trazado_911" data-name="Trazado 911" d="M220.859,204.629c-.238.287-.484.561-.916.393s-.456-.519-.455-.9q.006-2.554,0-5.109a1.6,1.6,0,0,0-1.336-1.793c-.874-.256-1.746-.517-2.627-.749a.58.58,0,0,0-.462.121c-.458.421-.9.86-1.32,1.323a.917.917,0,0,0-.188.565c-.014,1.824-.008,3.649-.008,5.473,0,.107,0,.213,0,.319-.025.5-.291.805-.693.8s-.671-.31-.672-.811c-.005-1.916-.008-3.831,0-5.747a.863.863,0,0,0-.3-.716c-.328-.294-.628-.619-.94-.93-.542-.542-.542-.542-1.318-.216,1.063,1.078,1.025,2.435,1.007,3.8-.016,1.186,0,2.372,0,3.558,0,.122.006.244,0,.365a.7.7,0,0,1-.7.7.687.687,0,0,1-.663-.729c-.014-.714-.005-1.429-.005-2.144,0-.988.005-1.976,0-2.965a2.222,2.222,0,0,0-1.507-2.219c-1.447-.547-2.905-1.064-4.406-1.611l-1.384,2.075c-.16.24-.311.487-.485.717a1.4,1.4,0,0,1-2.152.193c-.352-.328-.672-.69-1.1-1.132-.014.3-.028.454-.028.612q0,3.079,0,6.158c0,.7-.224,1.038-.68,1.045s-.687-.332-.688-1.027q0-3.079,0-6.158v-.484l-.171-.12c-.28.329-.541.679-.845.984a1.423,1.423,0,0,1-2.386-.225c-.588-.866-1.163-1.741-1.766-2.646-1.564.581-3.129,1.114-4.653,1.746a2.124,2.124,0,0,0-1.259,2.148c0,1.581,0,3.163,0,4.744a3.254,3.254,0,0,1-.017.455.627.627,0,0,1-.612.574.613.613,0,0,1-.682-.482,1.9,1.9,0,0,1-.055-.495c0-1.581-.041-3.164.015-4.743a15.631,15.631,0,0,1,.383-2.174c-.533-.382-.533-.382-1.08.141a2.912,2.912,0,0,1-3.752.657,6.565,6.565,0,0,1-1.044-.876.425.425,0,0,0-.587-.1c-.6.327-1.216.622-1.829.923a1.636,1.636,0,0,0-.978,1.608c.011,1.505,0,3.01,0,4.516a3.43,3.43,0,0,1-.007.365.7.7,0,0,1-.681.669.685.685,0,0,1-.671-.676c-.024-.424-.009-.851-.009-1.277q0-1.824,0-3.649a2.892,2.892,0,0,1,1.68-2.755c.551-.284,1.108-.557,1.681-.844-.51-.327-1-.619-1.458-.943a5.74,5.74,0,0,1-.634-.586,1.423,1.423,0,0,1-.342-1.635,16.671,16.671,0,0,0,.437-2.961c.117-1.1.082-2.227.295-3.307a5.788,5.788,0,0,1,4.862-4.622,5.685,5.685,0,0,1,6.227,4.143,17.8,17.8,0,0,1,.386,2.969c.107,1.026.17,2.057.281,3.083a3.351,3.351,0,0,0,.256.915,1.058,1.058,0,0,1-.192,1.179,6.355,6.355,0,0,1-2.3,1.715.822.822,0,0,0,1.018.133c1.34-.567,2.718-1.044,4.085-1.547a1.148,1.148,0,0,0,.68-.567,10.475,10.475,0,0,1,1.065-1.237,2.3,2.3,0,0,0,.262-.636c.015-.04,0-.091,0-.136a3.3,3.3,0,0,0-1.013-2.907,7.369,7.369,0,0,1-1.9-5.277,12.44,12.44,0,0,0-.445-2.848,9.282,9.282,0,0,1,.385-6.333A6.1,6.1,0,0,1,195,170.823c3.479-.106,6.963-.036,10.444-.034a.705.705,0,0,1,.8.784c-.007,2.66-.008,5.321-.066,7.98a5.682,5.682,0,0,1-.393,1.815,4.326,4.326,0,0,0-.269,1.687,8.066,8.066,0,0,1-.918,4.494,28.5,28.5,0,0,1-1.743,2.315,2.61,2.61,0,0,0-.259.581c-.016.039,0,.091,0,.136a2.848,2.848,0,0,0,1.144,2.977.219.219,0,0,1,.091.1c.17.685.788.747,1.309.941.8.3,1.6.573,2.392.882a1.288,1.288,0,0,0,1.009.034,5.939,5.939,0,0,1,.611-.18c.9-.258.972-.36.829-1.278a.6.6,0,0,0-.206-.323,5.254,5.254,0,0,1-1.973-4.317,3.7,3.7,0,0,0-.369-1.7,4.217,4.217,0,0,1,3.472-5.878c2.32-.115,4.649-.066,6.974-.074.475,0,.774.244.774.665,0,1.427-.021,2.855-.075,4.281a2.3,2.3,0,0,1-.293,1,3.266,3.266,0,0,0-.351,1.752,5.009,5.009,0,0,1-1.968,4.3c-.413.323-.192.762-.183,1.142,0,.122.311.284.505.345.752.237,1.514.444,2.274.658a2.917,2.917,0,0,1,2.225,2.233c.01.04.049.073.074.109Zm-16.03-32.438a.448.448,0,0,0-.12-.033c-3.238,0-6.477-.049-9.714.026a4.971,4.971,0,0,0-4.681,3.927,8.62,8.62,0,0,0,.2,4.726,7.16,7.16,0,0,1,.365,2.539,7.587,7.587,0,0,0,.685,3.318,6.583,6.583,0,0,0,6.72,3.8,6.485,6.485,0,0,0,5.606-4.894,23.114,23.114,0,0,0,.268-3.256,6.582,6.582,0,0,1,.167-.929,11.807,11.807,0,0,0,.508-2.2c.072-2.308.036-4.62.04-6.93C204.871,172.254,204.847,172.227,204.83,172.191Zm12.46,10.96c-.114-.012-.187-.027-.26-.027-1.839,0-3.678-.005-5.516,0a3.524,3.524,0,0,0-.812.1,2.886,2.886,0,0,0-1.923,4.147,3.3,3.3,0,0,1,.4,1.7,6.95,6.95,0,0,0,.206,1.752,3.645,3.645,0,0,0,6.708.731,4.109,4.109,0,0,0,.477-2.2,3.758,3.758,0,0,1,.4-2.066,2.818,2.818,0,0,0,.314-1.22C217.32,185.118,217.289,184.16,217.289,183.151Zm-31.412,5.785a5.824,5.824,0,0,0-1.28-4.355,4.272,4.272,0,0,0-5.829-.506c-1.577,1.31-1.869,3.064-1.826,4.952.656.221.706.284.785.966.009.076.022.15.032.226a3.693,3.693,0,0,0,7.109.879,1.3,1.3,0,0,0-.143-1.394,5.547,5.547,0,0,0-3.524-2.066,1.315,1.315,0,0,0-1.577.518,2.174,2.174,0,0,1-.346.361.687.687,0,1,1-.968-.956c.33-.357.682-.694,1.008-1.054a1.026,1.026,0,0,1,.894-.339A7.2,7.2,0,0,1,185.878,188.936Zm7.927,2.051c0,.407-.015.724.008,1.038a.5.5,0,0,0,.169.338c1.17.814,2.349,1.614,3.532,2.421,1.189-.812,2.356-1.6,3.515-2.409a.5.5,0,0,0,.189-.327c.025-.324.009-.652.009-1.039A8.1,8.1,0,0,1,193.8,190.988Zm4.859,4.669,1.716,1.733,1.643-2.456c.508-.761.508-.761-.178-1.364-.01-.008-.028-.008-.091-.024Zm-4.016,1.739,1.726-1.729-3.164-2.161a6.272,6.272,0,0,0-.509.559.38.38,0,0,0-.041.339C193.319,195.415,193.994,196.417,194.648,197.4Zm-14.726-2.654c-.027.705-.328,1.555.675,2.046a1.712,1.712,0,0,0,1.646,0c.993-.5.734-1.324.643-2.041Zm32.937,2.153c.443-.462.8-.882,1.2-1.239a.812.812,0,0,0,.294-.922h-3.031c.033.189-.006.508.135.682C211.866,195.919,212.344,196.362,212.859,196.9Zm-36.1-5.126c-.131.514-.254.95-.346,1.392a.447.447,0,0,0,.094.349,4.853,4.853,0,0,0,2.1,1.236c-.078-.361-.043-.749-.215-.9A6.267,6.267,0,0,1,176.756,191.769Zm7.578,2.956a5.017,5.017,0,0,0,1.955-1.174.477.477,0,0,0,.153-.341c-.095-.454-.228-.9-.328-1.273a15.315,15.315,0,0,1-1.4,1.64A1.036,1.036,0,0,0,184.334,194.725Z" transform="translate(0 0)" fill="#ffc42e"/>
    <path id="Trazado_912" data-name="Trazado 912" d="M395.775,321.98c0,.667,0,1.334,0,2,0,.533-.262.854-.673.864-.427.01-.691-.32-.693-.883q0-2,0-4c0-.542.246-.847.666-.855.437-.008.7.309.7.873C395.779,320.646,395.775,321.313,395.775,321.98Z" transform="translate(-177.838 -119.77)" fill="#ffc42e"/>
    <path id="Trazado_913" data-name="Trazado 913" d="M190.688,326.236c0,.546.008,1.093,0,1.639a.684.684,0,1,1-1.36.012q-.02-1.661,0-3.323a.685.685,0,0,1,.677-.757c.413,0,.677.293.685.79C190.694,325.143,190.688,325.69,190.688,326.236Z" transform="translate(-12.249 -123.567)" fill="#ffc42e"/>
    <path id="Trazado_914" data-name="Trazado 914" d="M335.1,328.835c0,.426.006.852,0,1.277-.01.534-.27.856-.682.862s-.68-.315-.683-.847q-.008-1.3,0-2.6c0-.518.24-.813.645-.83.427-.018.7.288.721.815,0,.015,0,.03,0,.046Z" transform="translate(-128.848 -125.899)" fill="#ffc42e"/>
    <path id="Trazado_915" data-name="Trazado 915" d="M251.451,328.844c0,.471.006.943,0,1.414a.672.672,0,1,1-1.343.039q-.041-1.458,0-2.917a.661.661,0,0,1,.7-.685.673.673,0,0,1,.646.736c.015.471,0,.942,0,1.414Z" transform="translate(-61.314 -125.898)" fill="#ffc42e"/>
    <path id="Trazado_917" data-name="Trazado 917" d="M266.67,204.8c0,.5.007.969,0,1.437-.011.555-.249.842-.679.843s-.674-.285-.684-.84c-.009-.5-.017-1,.019-1.5a1.379,1.379,0,0,1,1.2-1.3,19.023,19.023,0,0,1,6.882.085,6.613,6.613,0,0,1,3.221,1.6.685.685,0,0,1,.11,1.009.643.643,0,0,1-.939.053,7.3,7.3,0,0,0-4.549-1.591A20.419,20.419,0,0,0,266.67,204.8Z" transform="translate(-73.597 -26.163)" fill="#ffc42e"/>
    <path id="Trazado_918" data-name="Trazado 918" d="M366.032,248.179c.009.6-.4.969-.829.807a14.832,14.832,0,0,0-4.285-.7.664.664,0,0,1,.034-1.327,11.458,11.458,0,0,1,4.583.752C365.766,247.809,365.924,248.073,366.032,248.179Z" transform="translate(-150.303 -61.518)" fill="#ffc42e"/>
  </g>
</svg>
