<svg xmlns="http://www.w3.org/2000/svg" width="48.458" height="48.445" viewBox="0 0 48.458 48.445">
  <g id="icon_vision" transform="translate(-489.76 -154.234)">
    <path id="Trazado_880" data-name="Trazado 880" d="M534.312,179.493l1.151,1.162-.994,1.039h.642c4.912,0,9.824-.01,14.735,0a6.05,6.05,0,0,1,.177,12.1c-2.355.031-4.71,0-7.065.022a1.2,1.2,0,0,0-.733.3c-.638.593-1.234,1.23-1.865,1.869l-1.109-1.178.936-.988h-12.5v-1.631H540.1l.068-.126-1.029-.834,1.268-1.156c.59.59,1.22,1.24,1.877,1.863a.908.908,0,0,0,.561.239c2.372.015,4.744.031,7.115,0a4.43,4.43,0,0,0,1.01-8.719,4.515,4.515,0,0,0-1.1-.145q-7.545-.014-15.089-.006c-.065,0-.131.009-.293.02l.961,1.011-1.148,1.148c-.625-.635-1.221-1.273-1.859-1.867a1.193,1.193,0,0,0-.734-.3c-2.809-.021-5.618-.006-8.427-.015a8.463,8.463,0,0,1-1.224-16.849c1.246-.147,2.518-.076,3.778-.1.178,0,.355,0,.693,0l-1.113-.959,1.278-1.146c.442.445.985.926,1.446,1.476a1.633,1.633,0,0,0,1.576.637,9.874,9.874,0,0,1,1.177-.008,12.861,12.861,0,0,1,5.914-10.037,12.4,12.4,0,0,1,8.813-1.943,12.917,12.917,0,0,1-.088,25.588,12.607,12.607,0,0,1-9.895-2.815,12.8,12.8,0,0,1-4.736-9.179c-.663,0-1.3-.017-1.932.012a.813.813,0,0,0-.45.266c-.63.626-1.247,1.266-1.887,1.92l-1.121-1.184.974-1.028c-1.943.107-3.792-.232-5.588.412a6.859,6.859,0,0,0,2.2,13.321c2.893.022,5.786.012,8.68-.006a1.038,1.038,0,0,0,.643-.279C533.07,180.789,533.679,180.142,534.312,179.493Zm.632-13.159a8.835,8.835,0,0,1,3.415-6.178,8.673,8.673,0,0,1,6.881-1.76,8.882,8.882,0,0,1,.047,17.521,8.57,8.57,0,0,1-6.015-1.128,8.874,8.874,0,0,1-4.334-6.8H532.6a11.135,11.135,0,0,0,10.786,10.454,11.292,11.292,0,1,0-.106-22.564A11.119,11.119,0,0,0,532.6,166.334ZM540.838,169l.978-1.034h-5.19a7.211,7.211,0,0,0,7.276,6.458,7.264,7.264,0,0,0-.166-14.527,7.167,7.167,0,0,0-7.1,6.415h5.1l.091-.13-.978-.762,1.116-1.225c.818.813,1.625,1.6,2.409,2.4a.731.731,0,0,1,.023,1.091c-.793.82-1.618,1.609-2.442,2.422Z" transform="translate(-18.5)" fill="#ffc42e"/>
    <path id="Trazado_881" data-name="Trazado 881" d="M490.677,266.593a4.113,4.113,0,0,1,.463.2q7.909,4.34,15.814,8.689a.834.834,0,0,1,.01,1.589q-7.925,4.364-15.856,8.718a.832.832,0,0,1-1.215-1.1c.655-1.509,1.289-3.028,1.96-4.53a.818.818,0,0,0-.1-.99c-.6-.728-1.14-1.5-1.7-2.253a.848.848,0,0,1-.006-1.267c.592-.8,1.18-1.595,1.79-2.377a.612.612,0,0,0,.08-.723c-.691-1.566-1.363-3.142-2.029-4.72A.827.827,0,0,1,490.677,266.593Zm12.261,9.745,0-.123q-4.677-1.1-9.357-2.194a.446.446,0,0,0-.375.117c-.547.7-1.072,1.415-1.615,2.141.511.681,1.021,1.327,1.489,2a.528.528,0,0,0,.669.228c1.811-.44,3.626-.861,5.44-1.287Zm-10.559-7.03-.069.083c.382.892.751,1.791,1.158,2.671a.784.784,0,0,0,.47.365c1.267.32,2.541.612,3.813.91q1.541.361,3.084.714l.026-.08Zm8.448,9.293-.026-.094q-3.5.819-7,1.643a.432.432,0,0,0-.271.194c-.417.943-.818,1.893-1.281,2.977Z" transform="translate(0 -83.28)" fill="#ffc42e"/>
    <path id="Trazado_882" data-name="Trazado 882" d="M627.167,195.2v-1.532c2.06-.367,3.206-1.544,3.207-3.273s-1.157-2.922-3.2-3.272v-1.534a4.806,4.806,0,1,1-.006,9.611Z" transform="translate(-101.846 -23.236)" fill="#ffc42e"/>
  </g>
</svg>
