<svg xmlns="http://www.w3.org/2000/svg" width="59.856" height="59.855" viewBox="0 0 59.856 59.855"><defs><style>.brands-a{fill:none;}.brands-b{fill:#dedede;}</style></defs><g transform="translate(-5232 -190)"><rect class="brands-a" width="59.854" height="59.855" transform="translate(5232 190)"/><path class="brands-b" d="M1242,1201.859a25.68,25.68,0,0,0,14.469,23.107l-12.247-33.555a25.574,25.574,0,0,0-2.223,10.448Zm43.005-1.3a13.515,13.515,0,0,0-2.118-7.081c-1.3-2.115-2.521-3.905-2.521-6.02a4.445,4.445,0,0,1,4.311-4.557c.114,0,.222.014.333.021a25.669,25.669,0,0,0-38.789,4.832c.6.018,1.171.031,1.652.031,2.686,0,6.842-.326,6.842-.326a1.061,1.061,0,0,1,.165,2.115s-1.391.164-2.939.245l9.349,27.809,5.619-16.851-4-10.959c-1.383-.081-2.692-.245-2.692-.245a1.061,1.061,0,0,1,.162-2.115s4.24.326,6.763.326c2.685,0,6.842-.326,6.842-.326a1.061,1.061,0,0,1,.165,2.115s-1.394.163-2.938.245l9.278,27.6,2.56-8.557c1.111-3.551,1.955-6.1,1.955-8.3Z" transform="translate(3994.257 -981.933)"/><path class="brands-b" d="M1296.48,1224.665l-7.7,22.383a25.678,25.678,0,0,0,15.778-.409,2.172,2.172,0,0,1-.183-.354Zm22.077-14.563a19.757,19.757,0,0,1,.173,2.64,24.211,24.211,0,0,1-1.952,9.2l-7.842,22.674a25.678,25.678,0,0,0,9.621-34.51Z" transform="translate(3965.898 -1002.493)"/><path class="brands-b" d="M1261.122,1165.384a29.928,29.928,0,1,0,29.929,29.926A29.961,29.961,0,0,0,1261.122,1165.384Zm0,58.483a28.555,28.555,0,1,1,28.554-28.557,28.589,28.589,0,0,1-28.554,28.557Z" transform="translate(4000.806 -975.384)"/></g></svg>