<svg xmlns="http://www.w3.org/2000/svg" xmlns:xlink="http://www.w3.org/1999/xlink" width="28.385" height="28.385" viewBox="0 0 28.385 28.385"><defs><style>.a{fill:url(#a);}.b{fill:#fff;}</style><linearGradient id="a" x1="0.105" y1="0.698" x2="1" y2="0.226" gradientUnits="objectBoundingBox"><stop offset="0" stop-color="#00cacc"/><stop offset="1" stop-color="#00f6a0"/></linearGradient></defs><rect class="a" width="28.385" height="28.385" rx="5"/><g transform="translate(7.311 8.072)"><path class="b" d="M322.6,265.369l.449-.711a8.316,8.316,0,0,1-2.42-1.878,3.162,3.162,0,0,1-.9-1.989q0-.667,1.112-1.289a4.357,4.357,0,0,0,1.561-1.356,3.324,3.324,0,0,0,.468-1.823,3.648,3.648,0,0,0-.83-2.445,2.613,2.613,0,0,0-2.078-.978,2.646,2.646,0,0,0-2.254,1.234,5.419,5.419,0,0,0-.868,3.19,8.483,8.483,0,0,0,.683,3.389,8.085,8.085,0,0,0,2.01,2.8A9.292,9.292,0,0,0,322.6,265.369Zm7.475,0,.449-.711a8.323,8.323,0,0,1-2.42-1.878,3.162,3.162,0,0,1-.9-1.989q0-.667,1.112-1.289a4.357,4.357,0,0,0,1.561-1.356,3.323,3.323,0,0,0,.468-1.823,3.65,3.65,0,0,0-.829-2.445,2.613,2.613,0,0,0-2.079-.978,2.646,2.646,0,0,0-2.254,1.234,5.418,5.418,0,0,0-.868,3.19,8.491,8.491,0,0,0,.683,3.389,8.085,8.085,0,0,0,2.01,2.8A9.29,9.29,0,0,0,330.074,265.369Z" transform="translate(-316.842 -252.9)"/></g></svg>