<svg xmlns="http://www.w3.org/2000/svg" width="20.051" height="16.983" viewBox="0 0 20.051 16.983"><defs><style>.a{fill:rgba(21,24,38,0.8);}</style></defs><path class="a" d="M7.774,16.207c0,.924-.455,2.437-1.533,2.437s-1.533-1.513-1.533-2.437.455-2.437,1.533-2.437,1.533,1.513,1.533,2.437Zm12.277-2.233a10.082,10.082,0,0,1-.731,4.2c-1.583,3.388-5.936,3.308-9.052,3.308-3.166,0-7.778.119-9.424-3.308A9.94,9.94,0,0,1,0,13.973,7.878,7.878,0,0,1,1.734,8.949a7.3,7.3,0,0,1-.322-2.158A4.6,4.6,0,0,1,2.022,4.5,6.3,6.3,0,0,1,6.567,6.092a15.153,15.153,0,0,1,3.705-.442,13.648,13.648,0,0,1,3.359.407,6.226,6.226,0,0,1,4.5-1.557,4.557,4.557,0,0,1,.61,2.291,7.193,7.193,0,0,1-.322,2.132,7.91,7.91,0,0,1,1.629,5.051Zm-2.686,2.233c0-1.942-1.115-3.653-3.07-3.653a16.258,16.258,0,0,0-2.339.265,11.605,11.605,0,0,1-1.884.142,11.677,11.677,0,0,1-1.884-.142,15.994,15.994,0,0,0-2.339-.265c-1.955,0-3.07,1.712-3.07,3.653,0,3.883,3.359,4.48,6.283,4.48h2.013c2.937,0,6.291-.593,6.291-4.48Zm-3.45-2.437c-1.078,0-1.533,1.513-1.533,2.437s.455,2.437,1.533,2.437,1.533-1.513,1.533-2.437S14.992,13.77,13.915,13.77Z" transform="translate(0 -4.5)"/></svg>