<svg xmlns="http://www.w3.org/2000/svg" xmlns:xlink="http://www.w3.org/1999/xlink" width="77.108" height="77.116" viewBox="0 0 77.108 77.116"><defs><style>.a{fill:url(#a);}</style><linearGradient id="a" x1="0.5" x2="0.5" y2="1" gradientUnits="objectBoundingBox"><stop offset="0" stop-color="#00cacc"/><stop offset="1" stop-color="#00f6a0"/></linearGradient></defs><g transform="translate(-116.768 -275.659)"><path class="a" d="M143.274,347.956c-9.759,0-21.687-30.656-21.687-45.791a21.687,21.687,0,1,1,43.374,0l2.41.007,2.41-.007a26.506,26.506,0,0,0-53.013,0c0,14.641,11.868,50.61,26.506,50.61,3.848,0,7.5-2.5,10.8-6.429a24.226,24.226,0,0,1-3.663-2.981C148.036,346.211,145.595,347.956,143.274,347.956Z" transform="translate(0 0)"/><path class="a" d="M132.015,316.868a2.409,2.409,0,1,0,3.6-3.2c-2.993-3.376-6.706-11.74-9.181-18.439a2.411,2.411,0,0,0-4.523,1.67C123.552,301.326,127.808,312.124,132.015,316.868Z" transform="translate(7.047 25.374)"/><path class="a" d="M137.636,313.394A16.868,16.868,0,1,1,154.5,296.527h-4.819a12.048,12.048,0,1,0-12.048,12.048Z" transform="translate(5.639 5.639)"/><path class="a" d="M164.253,319.742a19.34,19.34,0,1,0-3.407,3.407l10.593,10.59a2.409,2.409,0,0,0,3.407-3.407ZM149.045,322.4A14.458,14.458,0,1,1,163.5,307.939,14.472,14.472,0,0,1,149.045,322.4Z" transform="translate(18.326 18.33)"/><path class="a" d="M144.816,291.662a12.064,12.064,0,0,0-12.048,12.048,2.41,2.41,0,1,0,4.819,0,7.236,7.236,0,0,1,7.229-7.229,2.41,2.41,0,1,0,0-4.819Z" transform="translate(22.555 22.559)"/></g></svg>