<svg width="413" height="502" viewBox="0 0 413 502" fill="none" xmlns="http://www.w3.org/2000/svg">
<g clip-path="url(#clip0)">
<path opacity="0.15" d="M18.8766 458.025C2.6453 467.41 2.6453 482.632 18.8766 492.016C35.1079 501.401 61.4298 501.401 77.6611 492.016C93.8924 482.632 93.8924 467.41 77.6611 458.025C61.4298 448.641 35.1079 448.641 18.8766 458.025Z" fill="#6B99D1"/>
<path d="M82.126 456.851L81.5515 455.784H80.7495C79.7201 455.005 78.6069 454.262 77.3859 453.567C61.2983 444.278 35.2397 444.278 19.152 453.567C17.9311 454.274 16.8059 455.017 15.7765 455.784H14.9984L14.4239 456.875C11.6827 461.921 7.11021 468.752 7.11021 470.358C7.08627 476.459 11.1082 482.584 19.152 487.234C35.2397 496.523 61.2983 496.523 77.3859 487.234C85.4178 482.595 89.4517 476.495 89.4517 470.406C89.4517 468.429 85.5973 461.489 82.126 456.851Z" fill="url(#paint0_linear)"/>
<path d="M77.2781 446.399C75.8177 444.889 74.0103 443.463 71.7958 442.192C58.8084 434.677 37.7412 434.677 24.7418 442.192C22.5274 443.475 20.7199 444.901 19.2596 446.399H14.9983V455.784C14.9983 460.71 18.2422 465.624 24.7418 469.387C37.7293 476.902 58.7964 476.902 71.7958 469.387C78.2955 465.636 81.5394 460.71 81.5394 455.784V446.399H77.2781Z" fill="url(#paint1_linear)"/>
<path d="M24.7537 433.97C11.7663 441.485 11.7663 453.662 24.7537 461.165C37.7412 468.668 58.8083 468.68 71.8077 461.165C84.8071 453.65 84.7951 441.473 71.8077 433.97C58.8083 426.455 37.7412 426.455 24.7537 433.97Z" fill="#DCEEFF"/>
<path d="M48.2748 429.536C56.953 429.536 65.0926 431.477 71.1973 435.013C77.0984 438.429 80.3423 442.888 80.3423 447.574C80.3423 452.26 77.0984 456.731 71.1973 460.135C65.0926 463.658 56.953 465.612 48.2748 465.612C39.5965 465.612 31.4569 463.67 25.3522 460.135C19.4511 456.731 16.2072 452.26 16.2072 447.574C16.2072 442.888 19.4511 438.417 25.3522 435.013C31.4569 431.477 39.5965 429.536 48.2748 429.536ZM48.2748 428.337C39.7641 428.337 31.2415 430.219 24.7538 433.97C11.7663 441.485 11.7663 453.662 24.7538 461.165C31.2534 464.917 39.7641 466.799 48.2748 466.799C56.7854 466.799 65.308 464.917 71.7957 461.165C84.7832 453.65 84.7832 441.473 71.7957 433.97C65.308 430.207 56.7854 428.337 48.2748 428.337Z" fill="white"/>
<path opacity="0.4" d="M14.9983 447.562C14.9983 452.476 18.2541 457.402 24.7418 461.165C37.7412 468.68 58.8084 468.68 71.7958 461.165C78.2835 457.414 81.5394 452.476 81.5394 447.562V276.925H15.0103L14.9983 447.562Z" fill="url(#paint2_linear)"/>
<path opacity="0.5" d="M14.1365 409.508C10.9046 407.638 8.22336 405.577 6.11665 403.371C2.13065 399.248 0.0957527 394.67 0.0119629 390.092V416.627V417.299C0.143633 424.334 4.8598 431.346 14.1485 436.715C19.8701 440.023 26.6691 442.324 33.899 443.619V416.424C26.6571 415.117 19.8462 412.816 14.1365 409.508Z" fill="#57F7E0"/>
<path opacity="0.5" d="M75.5066 422.165C78.7385 420.295 81.4197 418.233 83.5264 416.028C87.5125 411.905 89.5473 407.327 89.6311 402.748V429.284V429.955C89.4995 436.991 84.7833 444.002 75.4946 449.372C69.773 452.68 62.974 454.981 55.7441 456.275V429.08C62.986 427.774 69.7849 425.473 75.5066 422.165Z" fill="#57F7E0"/>
<path opacity="0.5" d="M63.1177 401.358V434.498C53.7692 436.284 43.6426 436.344 34.2461 434.642C27.2078 433.383 20.5764 431.13 14.9984 427.918C13.562 427.091 12.2453 426.216 11.0483 425.305V392.177C12.2453 393.076 13.562 393.951 14.9984 394.778C20.5764 398.014 27.2078 400.243 34.2461 401.502C43.6426 403.204 53.7572 403.144 63.1177 401.358Z" fill="#57F7E0"/>
<path opacity="0.7" d="M38.0405 408.31V417.179V421.338C43.6784 422.069 49.4958 422.177 55.1935 421.685V419.528V408.657C49.4838 409.149 43.6664 409.029 38.0405 408.31Z" fill="#6CFFE6"/>
<path opacity="0.5" d="M82.6288 370.268C81.7071 371.226 80.6537 372.137 79.4926 373.024C78.8223 373.528 78.1161 374.007 77.374 374.474C76.955 374.75 76.5361 375.014 76.0812 375.254C71.6044 377.854 66.3137 379.676 60.6758 380.767C57.9587 381.294 55.1457 381.642 52.3208 381.798V412.385C55.1457 412.229 57.9587 411.881 60.6758 411.354C66.3137 410.287 71.6044 408.453 76.0812 405.864C77.3141 405.157 78.4393 404.402 79.4807 403.635C80.6537 402.748 81.6951 401.825 82.6168 400.866C85.322 398.074 86.914 395.018 87.4287 391.925V387.611V361.338C86.926 364.419 85.334 367.463 82.6288 370.268Z" fill="#57F7E0"/>
<g opacity="0.7">
<g opacity="0.7">
<path opacity="0.5" d="M68.935 385.393V402.892C67.6064 403.371 66.2418 403.791 64.8413 404.162V386.664C66.2418 386.292 67.6064 385.872 68.935 385.393Z" fill="#6CFFE6"/>
<path opacity="0.5" d="M76.7993 381.702V399.2C76.5719 399.344 76.3325 399.488 76.0931 399.62C75.0038 400.243 73.8786 400.842 72.7056 401.358V383.859C73.8786 383.332 75.0038 382.744 76.0931 382.121C76.3325 381.989 76.5599 381.845 76.7993 381.702Z" fill="#6CFFE6"/>
<path opacity="0.5" d="M84.6396 374.714V392.213C84.0651 393.04 83.3947 393.855 82.6287 394.634C81.9943 395.293 81.3 395.928 80.5459 396.552V379.053C81.3 378.43 81.9943 377.794 82.6287 377.135C83.3947 376.356 84.0651 375.541 84.6396 374.714Z" fill="#6CFFE6"/>
</g>
</g>
<path opacity="0.5" d="M59 354.914V390.187C56.8095 390.547 54.5711 390.799 52.3207 390.93C47.03 391.254 41.6675 390.942 36.5443 390.019C35.6466 389.864 34.7608 389.672 33.875 389.468V354.195C34.7608 354.399 35.6466 354.59 36.5443 354.746C41.6675 355.669 47.042 355.981 52.3207 355.657C54.5711 355.513 56.8095 355.274 59 354.914Z" fill="#57F7E0"/>
<path opacity="0.5" d="M82.0901 333.951V362.645C80.51 361.254 78.6786 359.948 76.5719 358.725C68.7196 354.207 58.5691 351.798 48.2749 351.546V324.327C59.1915 324.327 70.0842 326.736 78.4033 331.53C79.744 332.297 80.9769 333.113 82.0901 333.951Z" fill="#57F7E0"/>
<path opacity="0.5" d="M35.5509 338.458C34.5814 338.302 33.6238 338.086 32.6662 337.871C28.6443 336.996 24.8258 335.737 21.3306 334.071C21.3306 334.083 21.3306 334.083 21.3186 334.071C20.2054 333.568 19.1401 333.005 18.0987 332.417C17.6199 332.13 17.1411 331.854 16.7102 331.566C16.2553 331.291 15.8364 331.015 15.4174 330.727C15.1182 330.512 14.807 330.296 14.5077 330.068C14.4838 330.068 14.4479 330.044 14.4359 330.008C13.1431 329.049 12.018 328.066 11.0005 327.036C7.48134 323.404 5.68584 319.365 5.60205 315.326L5.68584 346.177V346.776C5.76963 350.827 7.5771 354.866 11.0843 358.486C12.1017 359.528 13.2269 360.511 14.5197 361.458C14.5317 361.482 14.5676 361.53 14.5915 361.53C15.2858 362.033 16.004 362.537 16.794 363.028C17.2249 363.304 17.7037 363.591 18.1825 363.867C19.2239 364.454 20.2892 365.018 21.4024 365.521C21.4144 365.533 21.4144 365.533 21.4144 365.521C24.9096 367.175 28.7161 368.446 32.75 369.321C33.7076 369.548 34.6651 369.752 35.6347 369.92C37.8851 370.315 40.1713 370.603 42.4696 370.783L42.3858 339.333C40.0756 339.153 37.7893 338.853 35.5509 338.458Z" fill="#57F7E0"/>
<path opacity="0.7" d="M18.8527 337.667C15.6926 336.42 11.9819 339.417 12.1375 343.072C12.2932 346.704 12.9276 351.27 18.5654 354.506C24.7898 358.09 27.6746 353.224 27.4352 348.945C27.1838 344.283 24.4068 339.86 18.8527 337.667Z" fill="#6CFFE6"/>
<path opacity="0.15" d="M335.446 457.162C317.707 467.422 317.707 484.046 335.446 494.305C353.186 504.565 381.95 504.565 399.689 494.305C417.429 484.046 417.429 467.422 399.689 457.162C381.95 446.915 353.186 446.915 335.446 457.162Z" fill="#6B99D1"/>
<path d="M407.183 455.113C405.184 453.051 402.718 451.11 399.689 449.36C381.95 439.1 353.186 439.1 335.447 449.36C332.418 451.11 329.952 453.051 327.965 455.113H322.148V467.937C322.148 474.661 326.589 481.373 335.459 486.503C353.198 496.762 381.962 496.762 399.701 486.503C408.571 481.373 413.012 474.649 413.012 467.937V455.113H407.183Z" fill="url(#paint3_linear)"/>
<path d="M335.446 438.141C317.707 448.401 317.707 465.025 335.446 475.284C353.186 485.544 381.95 485.544 399.689 475.284C417.429 465.025 417.429 448.401 399.689 438.141C381.95 427.882 353.186 427.882 335.446 438.141Z" fill="#DCEEFF"/>
<path d="M367.574 431.645C379.496 431.645 390.7 434.318 399.103 439.172C407.302 443.906 411.815 450.139 411.815 456.707C411.815 463.275 407.302 469.495 399.103 474.242C390.7 479.096 379.508 481.769 367.574 481.769C355.652 481.769 344.448 479.096 336.045 474.242C327.846 469.507 323.333 463.275 323.333 456.707C323.333 450.139 327.846 443.906 336.045 439.172C344.448 434.318 355.64 431.645 367.574 431.645ZM367.574 430.447C355.951 430.447 344.316 433.012 335.446 438.141C317.707 448.401 317.707 465.025 335.446 475.284C344.316 480.414 355.939 482.979 367.574 482.979C379.209 482.979 390.832 480.414 399.701 475.284C417.441 465.025 417.441 448.401 399.701 438.141C390.82 433.012 379.197 430.447 367.574 430.447Z" fill="white"/>
<path d="M400.372 443.367C398.72 441.665 396.673 440.059 394.171 438.609C379.484 430.111 355.664 430.111 340.965 438.609C338.463 440.059 336.416 441.665 334.764 443.367H329.94V453.986C329.94 459.548 333.615 465.121 340.953 469.364C355.64 477.861 379.46 477.861 394.159 469.364C401.509 465.121 405.184 459.548 405.184 453.986V443.367H400.372Z" fill="url(#paint4_linear)"/>
<path d="M340.965 429.32C326.277 437.818 326.277 451.577 340.965 460.075C355.652 468.573 379.472 468.573 394.171 460.075C408.858 451.577 408.858 437.818 394.171 429.32C379.484 420.822 355.664 420.822 340.965 429.32Z" fill="#DCEEFF"/>
<path d="M367.574 424.142C377.413 424.142 386.654 426.348 393.573 430.351C400.288 434.234 403.999 439.328 403.999 444.685C403.999 450.043 400.3 455.137 393.573 459.02C386.642 463.023 377.413 465.229 367.574 465.229C357.735 465.229 348.494 463.023 341.575 459.02C334.86 455.137 331.161 450.043 331.161 444.685C331.161 439.328 334.86 434.234 341.575 430.351C348.494 426.348 357.723 424.142 367.574 424.142ZM367.574 422.944C357.95 422.944 348.314 425.065 340.977 429.308C326.29 437.806 326.29 451.565 340.977 460.063C348.326 464.306 357.95 466.427 367.574 466.427C377.198 466.427 386.834 464.306 394.171 460.063C408.859 451.565 408.859 437.806 394.171 429.308C386.822 425.065 377.198 422.944 367.574 422.944Z" fill="white"/>
<path d="M383.302 375.553L387.456 352.038L369.968 348.862" stroke="#344593" stroke-miterlimit="10"/>
<path d="M350.864 379.353L369.968 348.862L383.302 375.553" stroke="#344593" stroke-miterlimit="10"/>
<path d="M344.22 381.21C343.203 377.543 345.346 373.732 349.02 372.713C352.683 371.694 356.49 373.839 357.507 377.519C358.525 381.186 356.382 384.998 352.707 386.017C349.032 387.023 345.238 384.878 344.22 381.21Z" fill="url(#paint5_linear)"/>
<path d="M366.389 349.856C365.838 347.879 366.999 345.829 368.974 345.278C370.949 344.727 372.996 345.889 373.547 347.867C374.097 349.844 372.936 351.894 370.961 352.445C368.986 352.997 366.939 351.834 366.389 349.856Z" fill="url(#paint6_linear)"/>
<path d="M383.865 353.032C383.314 351.055 384.476 349.005 386.451 348.454C388.426 347.903 390.485 349.065 391.023 351.043C391.574 353.02 390.413 355.07 388.438 355.621C386.475 356.173 384.416 355.01 383.865 353.032Z" fill="url(#paint7_linear)"/>
<path d="M378.814 376.8C378.119 374.319 379.58 371.742 382.058 371.059C384.535 370.363 387.109 371.826 387.791 374.307C388.485 376.788 387.025 379.365 384.547 380.048C382.082 380.743 379.508 379.281 378.814 376.8Z" fill="url(#paint8_linear)"/>
<path opacity="0.5" d="M329.94 444.685C329.94 450.247 333.627 455.82 340.965 460.063C355.664 468.549 379.484 468.549 394.171 460.063C401.509 455.82 405.196 450.247 405.196 444.685V251.743H329.964L329.94 444.685Z" fill="url(#paint9_linear)"/>
<path opacity="0.15" d="M318.641 322.349L214.909 382.265C213.568 383.044 211.821 383.415 210.073 383.415C208.325 383.415 206.578 383.044 205.237 382.265L101.529 322.361C100.189 321.594 99.5183 320.588 99.5183 319.569C99.5183 318.838 99.8654 318.095 100.584 317.471C100.847 317.232 101.158 316.992 101.529 316.776L205.261 256.873C207.918 255.327 212.252 255.327 214.933 256.873L318.641 316.764C321.298 318.31 321.298 320.827 318.641 322.349Z" fill="#6B99D1"/>
<path opacity="0.15" d="M150.941 401.034L142.503 396.156C136.781 392.848 128.869 392.057 124.847 394.382C120.825 396.707 122.189 401.286 127.923 404.594L136.362 409.472C142.084 412.78 149.996 413.583 154.018 411.246C158.04 408.909 156.663 404.342 150.941 401.034Z" fill="#6B99D1"/>
<path d="M318.641 313.804L214.909 373.707C213.568 374.486 211.821 374.858 210.073 374.858C208.325 374.858 206.59 374.486 205.261 373.719L101.541 313.816C100.201 313.037 99.5303 312.03 99.5303 311.023C99.5303 310.004 100.201 308.998 101.541 308.231L115.606 300.116L205.273 248.315C207.93 246.769 212.263 246.769 214.945 248.315L318.653 308.219C321.298 309.753 321.298 312.27 318.641 313.804Z" fill="#DCEEFF"/>
<path d="M210.073 354.674V374.858C208.325 374.858 206.59 374.486 205.261 373.719L101.541 313.816C100.201 313.037 99.5303 312.03 99.5303 311.023V293.536C99.5303 292.805 99.8774 292.062 100.596 291.439L115.606 300.116L210.073 354.674Z" fill="#A5CBFA"/>
<path d="M210.073 354.674V374.858C211.821 374.858 213.556 374.486 214.885 373.719L318.629 313.804C319.969 313.025 320.64 312.018 320.64 311.011V293.524C320.64 292.793 320.292 292.05 319.586 291.427L304.576 300.105L210.073 354.674Z" fill="#C8E2FF"/>
<path d="M318.641 296.33L214.909 356.245C213.568 357.024 211.821 357.396 210.073 357.396C208.325 357.396 206.578 357.024 205.237 356.245L101.529 296.342C100.189 295.575 99.5183 294.568 99.5183 293.549C99.5183 292.818 99.8654 292.075 100.584 291.452C100.847 291.212 101.158 290.972 101.529 290.756L205.261 230.853C207.918 229.307 212.252 229.307 214.933 230.853L318.641 290.744C321.298 292.279 321.298 294.796 318.641 296.33Z" fill="#DCEEFF"/>
<path opacity="0.15" d="M150.941 401.034L142.503 396.156C136.781 392.848 128.869 392.057 124.847 394.382C120.825 396.707 122.189 401.286 127.923 404.594L136.362 409.472C142.084 412.78 149.996 413.583 154.018 411.246C158.04 408.909 156.663 404.342 150.941 401.034Z" fill="#6B99D1"/>
<path opacity="0.15" d="M269.743 393.303L278.182 388.425C283.904 385.117 291.816 384.326 295.838 386.652C299.872 388.977 298.495 393.555 292.762 396.863L284.323 401.741C278.601 405.049 270.689 405.84 266.667 403.515C262.645 401.178 264.022 396.611 269.743 393.303Z" fill="#6B99D1"/>
<path d="M210.097 230.888C211.689 230.888 213.245 231.248 214.346 231.883L318.042 291.775C318.928 292.29 319.443 292.937 319.443 293.536C319.443 294.136 318.928 294.771 318.042 295.286L214.31 355.202C213.221 355.837 211.713 356.197 210.073 356.197C208.433 356.197 206.937 355.849 205.836 355.202L102.128 295.286C101.218 294.771 100.727 294.148 100.727 293.536C100.727 293.141 100.967 292.709 101.41 292.314C101.625 292.11 101.864 291.93 102.14 291.786L205.872 231.883C206.961 231.248 208.493 230.888 210.097 230.888ZM210.097 229.69C208.349 229.69 206.602 230.073 205.273 230.852L101.541 290.756C101.17 290.959 100.859 291.199 100.596 291.451C99.8894 292.086 99.5303 292.829 99.5303 293.548C99.5303 294.579 100.201 295.574 101.541 296.341L205.249 356.244C206.59 357.024 208.337 357.395 210.085 357.395C211.833 357.395 213.58 357.024 214.921 356.244L318.653 296.329C321.31 294.807 321.31 292.29 318.653 290.744L214.945 230.852C213.592 230.073 211.845 229.69 210.097 229.69Z" fill="white"/>
<path d="M206.877 243.006L122.596 291.679C120.813 292.709 120.813 294.375 122.596 295.406L206.865 344.067C208.649 345.098 211.533 345.098 213.305 344.067L297.585 295.394C299.369 294.363 299.369 292.697 297.585 291.667L213.329 243.006C211.533 241.987 208.649 241.987 206.877 243.006Z" fill="#344593"/>
<path d="M297.574 291.679L213.317 243.018C212.431 242.502 211.258 242.25 210.097 242.25V245.523L297.023 295.73L297.574 295.406C299.357 294.375 299.357 292.709 297.574 291.679Z" fill="#1E3779"/>
<path d="M210.097 242.239C208.936 242.239 207.763 242.49 206.877 243.006L122.596 291.679C120.813 292.709 120.813 294.375 122.596 295.406L123.159 295.73L210.109 245.511L210.097 242.239Z" fill="#031F60"/>
<path d="M210.779 271.208L235.725 256.825C236.108 256.597 236.108 256.238 235.725 256.01L210.767 241.579C210.384 241.352 209.75 241.352 209.367 241.579L184.457 255.998C184.074 256.226 184.074 256.585 184.457 256.813L209.367 271.196C209.762 271.435 210.396 271.435 210.779 271.208Z" stroke="white" stroke-miterlimit="10" stroke-linecap="round"/>
<path d="M210.097 261.787V319.569C211.581 319.569 213.054 319.246 214.191 318.586L267.577 287.724C269.839 286.417 271.67 283.241 271.67 280.628V261.787H210.097Z" fill="#6CFFE6"/>
<path d="M148.523 261.787V280.628C148.523 283.241 150.355 286.417 152.617 287.724L206.003 318.586C207.128 319.234 208.613 319.569 210.097 319.569V261.787H148.523Z" fill="#41E5C9"/>
<path d="M205.992 296.413L150.224 264.16C147.961 262.854 147.961 260.732 150.224 259.426L206.004 227.173C208.266 225.867 211.929 225.867 214.191 227.173L269.971 259.426C272.234 260.732 272.234 262.854 269.971 264.16L214.167 296.425C211.917 297.72 208.254 297.72 205.992 296.413Z" fill="#ABFFEF"/>
<path d="M161.667 260.217L207.38 233.777C208.888 232.902 211.33 232.902 212.838 233.777L258.563 260.217C260.072 261.092 260.072 262.494 258.563 263.369L212.814 289.809C211.306 290.684 208.864 290.684 207.356 289.809L161.667 263.381C160.158 262.506 160.158 261.092 161.667 260.217Z" stroke="white" stroke-miterlimit="10" stroke-linecap="round"/>
<path d="M211.438 240.393L247.407 260.996C248.162 261.428 248.162 262.135 247.407 262.578L211.438 283.205C210.684 283.637 209.463 283.637 208.709 283.205L173.038 262.578C172.284 262.147 172.284 261.44 173.038 260.996L208.709 240.381C209.475 239.962 210.696 239.962 211.438 240.393Z" stroke="white" stroke-miterlimit="10" stroke-linecap="round"/>
<path d="M162.684 282.114C162.684 280.88 161.822 279.37 160.745 278.758C160.206 278.447 159.715 278.423 159.356 278.639L151.456 283.205C149.852 284.128 148.535 286.405 148.535 288.263V299.134C148.535 299.541 148.799 299.949 149.337 300.248C150.403 300.86 152.138 300.872 153.204 300.248C153.742 299.937 154.006 299.529 154.006 299.134V288.455C154.006 288.215 154.137 287.987 154.341 287.867L162.097 283.385C162.097 283.385 162.109 283.385 162.109 283.373L162.133 283.361C162.468 283.145 162.684 282.714 162.684 282.114Z" fill="url(#paint10_linear)"/>
<path d="M174.522 288.994C174.522 287.76 173.66 286.249 172.583 285.638C172.045 285.326 171.554 285.302 171.195 285.518L163.294 290.085C161.69 291.008 160.374 293.285 160.374 295.143V306.013C160.374 306.421 160.637 306.816 161.176 307.128C162.241 307.751 163.977 307.751 165.042 307.128C165.581 306.816 165.844 306.409 165.844 306.013V295.334C165.844 295.095 165.976 294.867 166.179 294.747L173.936 290.264C173.936 290.264 173.948 290.264 173.948 290.252L173.972 290.241C174.319 290.025 174.522 289.593 174.522 288.994Z" fill="url(#paint11_linear)"/>
<path d="M186.372 295.874C186.372 294.639 185.511 293.129 184.433 292.518C183.895 292.206 183.404 292.182 183.045 292.398L175.145 296.964C173.541 297.887 172.224 300.164 172.224 302.022V312.881C172.224 313.289 172.487 313.696 173.026 313.996C174.091 314.619 175.827 314.619 176.892 313.996C177.431 313.684 177.694 313.277 177.694 312.881V302.202C177.694 301.962 177.826 301.735 178.029 301.615L185.786 297.132C185.786 297.132 185.798 297.132 185.798 297.12L185.822 297.108C186.157 296.892 186.372 296.473 186.372 295.874Z" fill="url(#paint12_linear)"/>
<path d="M198.211 302.754C198.211 301.519 197.349 300.009 196.272 299.398C195.733 299.086 195.242 299.062 194.883 299.278L186.983 303.844C185.379 304.767 184.062 307.044 184.062 308.902V319.773C184.062 320.18 184.326 320.588 184.864 320.888C185.93 321.511 187.665 321.511 188.731 320.888C189.269 320.576 189.533 320.168 189.533 319.773V309.094C189.533 308.854 189.664 308.626 189.868 308.507L197.624 304.024C197.624 304.024 197.636 304.024 197.636 304.012L197.66 304C198.007 303.772 198.211 303.353 198.211 302.754Z" fill="url(#paint13_linear)"/>
<path d="M257.522 282.114C257.522 280.88 258.384 279.37 259.461 278.758C260 278.447 260.491 278.423 260.85 278.639L268.75 283.205C270.354 284.128 271.67 286.405 271.67 288.263V299.134C271.67 299.541 271.407 299.949 270.868 300.248C269.803 300.86 268.068 300.872 267.002 300.248C266.464 299.937 266.2 299.529 266.2 299.134V288.455C266.2 288.215 266.069 287.987 265.865 287.867L258.109 283.385C258.109 283.385 258.097 283.385 258.097 283.373L258.073 283.361C257.725 283.145 257.522 282.714 257.522 282.114Z" fill="url(#paint14_linear)"/>
<path d="M245.672 288.994C245.672 287.76 246.534 286.249 247.611 285.638C248.15 285.326 248.64 285.302 248.999 285.518L256.9 290.085C258.504 291.008 259.82 293.285 259.82 295.143V306.013C259.82 306.421 259.557 306.816 259.018 307.128C257.953 307.751 256.217 307.751 255.152 307.128C254.613 306.816 254.35 306.409 254.35 306.013V295.334C254.35 295.095 254.218 294.867 254.015 294.747L246.258 290.264C246.258 290.264 246.246 290.264 246.246 290.252L246.222 290.241C245.887 290.025 245.672 289.593 245.672 288.994Z" fill="url(#paint15_linear)"/>
<path d="M233.833 295.874C233.833 294.639 234.695 293.129 235.773 292.518C236.311 292.206 236.802 292.182 237.161 292.398L245.061 296.964C246.665 297.887 247.982 300.164 247.982 302.022V312.881C247.982 313.289 247.719 313.696 247.18 313.996C246.115 314.619 244.379 314.619 243.314 313.996C242.775 313.684 242.512 313.277 242.512 312.881V302.202C242.512 301.962 242.38 301.735 242.177 301.615L234.42 297.132C234.42 297.132 234.408 297.132 234.408 297.12L234.384 297.108C234.037 296.892 233.833 296.473 233.833 295.874Z" fill="url(#paint16_linear)"/>
<path d="M221.983 302.754C221.983 301.519 222.845 300.009 223.922 299.398C224.461 299.086 224.952 299.062 225.311 299.278L233.211 303.844C234.815 304.767 236.132 307.044 236.132 308.902V319.773C236.132 320.18 235.868 320.588 235.33 320.888C234.264 321.511 232.529 321.511 231.463 320.888C230.925 320.576 230.661 320.168 230.661 319.773V309.094C230.661 308.854 230.53 308.626 230.326 308.507L222.57 304.024C222.57 304.024 222.558 304.024 222.558 304.012L222.534 304C222.199 303.772 221.983 303.353 221.983 302.754Z" fill="url(#paint17_linear)"/>
<path d="M259.222 116.091C270.055 143.179 256.888 173.921 229.847 184.756C213.173 191.432 195.111 188.999 181.189 179.806C172.499 174.089 165.425 165.747 161.259 155.356C150.427 128.269 163.582 97.514 190.634 86.6791C201.024 82.5081 211.964 81.8969 222.103 84.246C238.346 88.0215 252.554 99.4077 259.222 116.091Z" fill="#B5DEFF"/>
<path d="M203.92 90.6463C201.503 90.6823 198.414 91.5452 200.653 92.9116C202.891 94.2899 204.327 94.4097 204.339 96.1956C204.351 97.9814 203.19 99.8512 203.765 101.11C204.339 102.368 205.285 103.842 206.195 103.423C207.116 102.991 209.63 100.187 211.055 100.319C212.491 100.45 217.375 100.666 218.081 99.0721C218.787 97.478 219.505 97.5859 220.678 95.8121C221.851 94.0382 221.78 91.6651 220.355 91.6531C218.931 91.6411 218.739 92.2524 216.357 92.0726C213.975 91.9048 212.862 90.3227 210.54 90.7302C208.23 91.1377 205.692 90.6103 203.92 90.6463Z" fill="#3A52AA"/>
<path d="M194.943 91.2695C192.202 92.7318 186.444 94.9491 183.775 94.194C182.446 93.8224 180.866 93.2951 179.191 92.9715C169.016 100.379 161.667 111.321 158.782 123.834C159.452 125.212 160.266 126.483 161.164 127.526C163.259 129.983 165.413 130.294 168.058 130.81C170.716 131.325 169.878 132.811 171.183 134.369C172.487 135.927 173.038 136.838 174.522 137.677C176.007 138.516 173.996 140.086 173.409 141.8C172.823 143.502 172.655 144.473 173.876 147.937C175.085 151.413 178.628 154.229 179.681 155.572C180.735 156.914 178.951 158.484 179.406 161.301C179.861 164.117 179.717 171.596 182.41 175.803C185.104 180.01 186.72 179.519 186.504 176.678C186.289 173.838 185.367 171.165 187.007 169.031C188.647 166.898 191.974 167.473 193.1 163.578C194.225 159.695 194.955 159.874 196.75 158.544C198.546 157.214 197.744 156.087 199.42 153.079C201.096 150.07 201.586 147.242 199.109 145.995C196.643 144.761 194.991 144.881 192.872 141.956C190.754 139.032 187.45 136.191 184.374 134.525C181.309 132.859 176.437 134.897 174.486 134.321C172.547 133.758 171.314 130.055 171.434 128.616C171.566 127.178 170.117 126.818 168.717 127.166C167.316 127.514 166.538 126.615 166.155 124.745C165.772 122.875 168.681 120.514 171.039 120.322C173.397 120.143 174.666 121.233 175.133 124.29C175.6 127.346 177.622 128.856 179.801 129.395C181.98 129.947 180.615 127.669 179.071 126.123C177.527 124.577 177.419 123.163 178.58 119.747C179.741 116.331 182.614 116.583 184.745 113.443C186.875 110.29 187.294 112.664 189.449 112.975C191.603 113.287 191.28 112.124 192.082 110.159C192.884 108.205 195.625 109.883 197.876 108.289C200.126 106.695 195.422 104.202 195.733 102.032C196.044 99.8751 198.187 99.947 196.99 96.7109C195.793 93.4749 197.445 93.343 198.295 92.1445C199.192 90.9819 197.684 89.8073 194.943 91.2695ZM191.759 99.18C191.053 100.786 190.43 100.474 189.269 102.224C188.096 103.986 186.277 104.945 185.092 105.101C183.919 105.245 181.98 103.147 181.872 101.853C181.776 100.558 183.643 100.175 185.762 99.8991C187.881 99.6114 189.688 98.7005 191.603 97.1904C193.124 95.9798 192.465 97.5859 191.759 99.18Z" fill="#3A52AA"/>
<path d="M262.837 131.709L262.849 131.852C262.011 132.212 261.197 132.835 260.754 133.926C259.557 136.874 259.33 135.58 256.517 137.582C253.704 139.583 254.769 141.153 254.925 143.167C255.08 145.18 251.812 147.446 250.196 148.165C248.592 148.884 247.874 153.45 248.401 155.68C248.928 157.897 246.27 158.808 244.642 160.833C243.014 162.859 242.093 166.251 241.027 167.881C239.974 169.511 238.023 170.482 236.108 170.158C234.181 169.822 232.397 166.634 231.356 163.866C230.314 161.097 229.955 158.029 230.554 155.008C231.152 152 230.949 152.372 230.231 147.673C229.512 142.975 226.209 141.561 224.389 141.117C222.57 140.662 219.577 141.717 217.949 140.782C216.345 139.835 215.639 138.468 214.586 134.034C213.532 129.599 215.711 128.604 217.435 126.207C219.146 123.81 222.51 121.305 225.538 120.478C228.555 119.651 230.638 120.442 232.481 121.377C234.336 122.3 235.198 124.374 236.527 124.517C237.843 124.649 238.981 123.978 240.297 124.23C241.614 124.481 242.5 125.129 243.793 124.913C245.085 124.697 244.259 123.211 244.08 122.396C243.9 121.581 242.727 121.785 241.183 121.773C239.639 121.773 239.244 121.341 238.705 120.31C238.155 119.28 237.269 120.179 236.527 119.759C235.785 119.34 235.928 121.233 235.868 121.964C235.809 122.696 235.234 121.401 235.234 121.401C235.234 121.401 234.6 122.396 234.324 121.94C234.061 121.485 234.683 120.37 234.6 119.244C234.516 118.117 232.876 118.381 231.858 117.506C230.841 116.631 229.417 116.511 228.016 116.978C226.628 117.446 226.364 117.11 225.754 118.333C225.131 119.567 222.115 120.394 221.145 120.239C220.188 120.071 220.858 118.117 221.684 116.391C222.498 114.665 224.198 115.241 225.263 113.503C226.316 111.765 224.88 111.513 223.898 111.237C222.929 110.95 222.618 110.027 223.635 107.81C224.653 105.592 226.005 106.204 226.556 107.234C227.106 108.265 228.327 108.768 229.644 108.78C230.949 108.804 230.638 107.881 230.614 105.976C230.59 104.07 231.463 103.063 233.187 102.332C234.911 101.601 237.796 100.439 238.897 99.3958C239.998 98.353 241.949 99.0362 242.991 100.151C244.032 101.254 246.306 101.673 248.724 102.081C249.406 102.2 249.957 101.925 250.424 101.517C257.402 109.703 261.951 120.131 262.837 131.709Z" fill="#3A52AA"/>
<path d="M252.961 157.705C251.681 157.489 251.788 157.909 251.034 158.928C250.28 159.934 249.179 161.085 249.382 162.14C249.586 163.194 249.682 164.489 250.567 163.71C251.453 162.931 251.154 161.996 252.411 161.433C253.668 160.857 254.877 158.029 252.961 157.705Z" fill="#3A52AA"/>
<path opacity="0.4" d="M223.97 88.9085C190.37 79.2003 184.098 102.128 201.897 116.583C219.709 131.037 250.232 135.796 254.338 126.267C258.456 116.739 248.951 96.1238 223.97 88.9085Z" fill="white"/>
<path opacity="0.15" d="M195.925 162.188C169.818 140.734 170.62 99.084 193.519 85.6243C192.549 85.9479 191.591 86.2955 190.622 86.679C163.57 97.5259 150.415 128.281 161.248 155.356C165.401 165.747 172.475 174.089 181.178 179.806C195.099 188.999 213.173 191.432 229.835 184.756C243.505 179.279 253.62 168.72 258.887 156.111C251.513 166.37 222.019 183.63 195.925 162.188Z" fill="#344593"/>
<path opacity="0.3" d="M215.902 47.93C214.215 49.0086 212.252 49.3922 210.073 49.3203C210.037 49.3203 210.013 49.3203 209.977 49.3203C210.001 49.3203 210.037 49.3203 210.061 49.3203V344.846C211.354 344.846 212.671 344.487 213.951 343.672L296.556 295.922C298.088 295.071 298.83 294.328 298.83 293.285V0L215.902 47.93Z" fill="url(#paint18_linear)"/>
<path opacity="0.5" d="M209.989 49.3203C209.486 49.3323 208.996 49.3083 208.517 49.2603C208.481 49.2603 208.457 49.2484 208.421 49.2484C207.942 49.2004 207.476 49.1285 207.033 49.0206C206.733 48.9487 206.446 48.8409 206.159 48.757C205.979 48.697 205.788 48.6611 205.62 48.5892C205.165 48.4094 204.71 48.2056 204.28 47.9659L121.304 0V293.285C121.34 294.232 121.938 294.963 122.908 295.526L206.195 343.672C207.547 344.571 208.708 344.81 209.965 344.834C210.001 344.834 210.037 344.846 210.073 344.846V49.3203C210.037 49.3203 210.013 49.3203 209.989 49.3203Z" fill="url(#paint19_linear)"/>
<path d="M299.13 307.428C299.357 309.441 301.763 318.119 301.248 321.103C300.734 324.076 292.546 329.05 292.546 329.05L291.409 323.956L295.946 319.509L294.725 311.071L299.13 307.428Z" fill="#FFA8A7"/>
<path d="M292.798 297.671C293.971 297.168 296.149 297.048 297.358 299.05C298.567 301.051 299.812 307.907 299.932 309.082C299.932 309.082 298.244 311.419 295.706 311.035L292.798 297.671Z" fill="#E4F2F2"/>
<path d="M293.935 389.936C293.935 389.936 294.03 390.823 294.294 391.949C294.509 392.824 294.545 393.951 293.576 394.274C292.594 394.586 291.481 394.49 290.846 393.639C290.068 392.585 289.649 391.266 288.524 390.235C287.435 389.253 286.082 388.138 285.699 386.568C285.34 385.154 285.568 384.267 286.537 384.123C287.758 383.943 289.697 384.974 290.691 385.705C291.409 386.208 293.935 389.936 293.935 389.936Z" fill="#2D2979"/>
<path d="M282.731 394.047C282.731 394.047 282.803 395.173 282.874 396.072C282.946 396.971 283.257 398.397 282.97 399.069C282.683 399.728 281.211 400.219 279.475 400.207C278.35 400.195 276.171 401.07 275.393 401.741C274.292 402.7 271.754 403.084 270.27 402.616C268.774 402.149 267.122 401.454 266.871 400.771C266.619 400.087 267.397 399.74 271.036 398.074C274.675 396.408 277.356 395.257 278.769 393.328L282.731 394.047Z" fill="#2D2979"/>
<path d="M294.821 370.567C294.198 365.797 293.217 362.968 293.217 362.968C293.217 362.968 293.695 356.412 293.935 350.192C294.21 343.132 296.652 336.924 294.725 331.291L272.975 336.133C272.975 336.133 274.292 364.275 274.579 367.679C274.735 369.524 274.795 371.37 275.561 375.577C276.554 381.042 278.17 394.035 278.17 394.035C280.469 395.377 282.743 394.047 282.743 394.047C282.743 394.047 283.329 378.202 283.174 374.259C282.994 369.453 282.851 369.824 282.851 369.824L283.569 357.851L284.036 351.894C284.036 351.894 284.634 356.269 285.029 360.176C285.376 363.58 286.19 366.66 287.112 373C287.902 378.502 289.985 389.828 289.985 389.828C292.283 391.17 293.947 389.96 293.947 389.96C293.947 389.96 295.443 375.337 294.821 370.567Z" fill="#C4D9FF"/>
<path d="M284.024 351.894C284.024 351.894 284.622 356.269 285.017 360.176C285.185 361.818 285.46 363.388 285.807 365.27C285.807 365.27 285.496 357.994 285.616 354.555C285.735 351.115 286.082 347.399 286.082 347.399C290.655 345.458 291.601 342.665 291.601 342.665C288.213 345.566 284.634 346.452 284.634 346.452L284.024 351.894Z" fill="#9EBCE8"/>
<path d="M291.636 297.791C289.985 297.875 288.752 298.295 288.536 297.815C288.369 297.432 288.165 295.227 288.153 295.227C288.345 294.747 288.512 294.232 288.512 294.232C290.595 292.949 292.079 290.78 292.355 288.167C292.821 283.684 289.566 279.681 285.101 279.214C280.899 278.77 277.799 281.731 276.973 285.806C276.53 287.807 275.932 292.074 277.129 295.37C277.799 297.216 278.374 298.031 279.236 298.319C279.535 298.379 281.139 298.343 281.725 298.283C281.725 298.283 281.953 299.529 282.096 300.32C282.252 301.123 282.192 301.543 280.6 302.526C279.008 303.508 283.006 305.522 285.604 305.318C288.213 305.115 291.146 303.544 291.948 301.854C292.857 299.961 292.774 297.731 291.636 297.791Z" fill="#FFA8A7"/>
<path d="M280.6 302.502C280.54 302.537 280.516 302.573 280.468 302.609L282.743 303.388L289.47 302.346L291.038 298.331C291.038 298.331 290.978 298.139 290.882 297.851C289.614 297.983 288.716 298.223 288.536 297.803C288.417 297.516 288.261 296.185 288.189 295.55C286.98 295.766 285.556 296.017 285.209 296.029C284.586 296.053 282.444 292.889 282.444 292.889C282.444 292.889 282.144 295.538 281.857 296.269C281.57 297 279.607 298.139 278.888 298.127C278.996 298.187 279.104 298.235 279.224 298.283C279.523 298.343 281.127 298.307 281.713 298.247C281.713 298.247 281.941 299.493 282.084 300.284C282.252 301.099 282.192 301.519 280.6 302.502Z" fill="#F28F8F"/>
<path d="M292.403 283.061C292.199 282.09 291.517 280.832 286.286 279.358C281.282 277.955 277.368 277.356 276.399 278.003C275.441 278.651 275.202 283.601 279.93 285.962C280.121 286.321 280.241 286.741 280.241 287.316C280.241 288.083 280.157 288.694 280.241 289.533C280.361 290.72 281.63 290.804 281.63 290.804C281.63 290.804 281.642 290.121 281.642 288.706C282.084 287.724 283.796 287.472 284.419 288.838C285.041 290.205 284.694 291.343 284.263 292.17C283.712 293.213 282.779 293.297 282.467 292.925C282.467 294.112 282.695 295.886 284.024 297.384C285.795 297.887 287.543 297.12 288.309 296.449C288.5 295.922 289.111 294.963 289.901 293.692C290.87 292.146 291.876 291.139 292.415 288.634C292.893 286.333 292.798 284.943 292.403 283.061Z" fill="#3A2C6D"/>
<path d="M289.242 298.043C289.697 299.194 288.536 300.596 285.424 301.567C282.312 302.538 282.036 301.291 282.036 301.291C282.036 301.291 277.476 303.377 275.992 304.407C274.124 305.714 273.298 309.501 273.047 315.878C272.76 323.273 272.736 334.227 272.975 336.121C272.975 336.121 276.47 339.609 280.935 339.237C285.4 338.866 292.917 334.91 294.737 331.854C294.689 325.37 293.935 324.315 294.976 320.588C297.37 312.042 298.639 308.542 297.478 302.861C296.52 298.175 295.168 297.6 293.324 297.648C291.457 297.696 289.242 298.043 289.242 298.043Z" fill="#F5FBFB"/>
<path d="M288.441 297.408C287.794 298.223 285.544 300.009 282.061 300.105C281.39 299.997 281.019 301.291 280.636 301.938C280.636 301.938 282.204 303.221 285.687 302.334C289.171 301.447 290.404 298.882 290.104 297.923C290.104 297.923 288.991 296.701 288.441 297.408Z" fill="#E4F2F2"/>
<path d="M266.021 323.188C269.684 324.111 270.545 321.798 271.024 319.881C272.185 315.242 272.82 311.047 273.681 308.422C274.699 305.318 275.776 304.827 277.284 304.215C279.056 303.508 280.576 305.006 279.99 308.95C279.295 313.624 278.374 316.908 276.626 322.445C276.171 323.884 275.142 326.461 273.622 327.695C271.73 329.229 268.882 329.157 264.572 328.091C262.729 327.635 260.718 326.532 257.247 324.914C256.313 324.483 255.583 324.183 253.799 323.356C252.004 322.517 250.149 321.127 249.203 319.761C248.257 318.394 248.138 317.759 248.329 317.447C248.568 317.052 248.999 317.148 249.49 317.711C249.993 318.286 250.723 319.317 252.124 320.156C252.124 320.156 250.962 318.958 250.34 318.179C249.718 317.399 249.227 316.549 248.952 315.913C248.616 315.122 249.299 314.044 249.825 314.607C250.352 315.17 250.591 315.746 251.537 316.884C252.399 317.915 253.237 318.502 253.237 318.502C253.237 318.502 252.279 317.208 251.669 315.985C251.07 314.751 251.07 314.127 251.094 313.708C251.118 313.288 251.705 312.797 252.255 313.588C252.746 314.295 253.069 315.398 254.218 316.596C255.056 317.471 255.762 317.963 255.786 317.723C255.81 317.483 255.284 317.004 254.984 315.997C254.697 315.026 254.996 313.912 255.547 313.792C256.098 313.672 256.002 313.708 256.445 314.655C256.888 315.602 257.582 316.309 258.109 317.687C258.575 318.91 258.779 319.401 259.617 320.288C260.538 321.247 262.537 322.302 266.021 323.188Z" fill="#FFA8A7"/>
<path d="M278.649 303.58C276.207 303.221 274.471 304.324 273.394 308.039C272.317 311.755 271.563 314.799 271.563 314.799C271.563 314.799 272.736 316.812 275.656 317.532C278.589 318.239 279.642 316.836 279.642 316.836C279.642 316.836 280.456 312.941 280.959 310.292C281.462 307.644 281.677 304.024 278.649 303.58Z" fill="#E4F2F2"/>
<path d="M132.483 400.303C132.483 400.303 132.112 400.95 130.101 400.111C128.09 399.272 127.528 398.266 127.528 398.266C127.528 398.266 128.055 394.239 129.287 395.245C130.544 396.252 132.483 400.303 132.483 400.303Z" fill="#291D51"/>
<path d="M127.444 386.196C127.48 388.306 127.528 389.924 126.726 391.062C125.924 392.201 125.852 392.968 125.852 392.968C125.852 392.968 128.234 393.304 129.443 394.946C130.652 396.588 130.592 398.23 131.705 398.505C132.831 398.781 134.71 397.487 134.71 397.487C134.71 397.487 133.525 397.439 133.058 395.94C132.591 394.442 131.394 391.254 131.358 390.415C131.31 389.576 131.358 386.328 131.358 386.328L127.444 386.196Z" fill="#FFA8A7"/>
<path d="M127.42 391.602C128.462 391.662 130.054 392.824 130.58 394.035C131.107 395.233 131.993 396.935 132.663 397.307C133.333 397.69 134.53 397.139 135.548 397.127C136.565 397.127 137.283 397.594 137.343 398.338C137.343 398.338 134.076 399.884 133.094 400.351C132.112 400.819 131.287 400.831 130.52 398.793C129.754 396.755 129.455 395.617 128.845 396.995C128.234 398.385 127.983 401.49 127.983 401.49C127.983 401.49 127.145 401.801 126.75 400.974C126.75 400.974 126.774 399.512 126.606 398.254C126.427 397.007 125.302 395.425 125.385 393.915C125.469 392.417 126.295 391.53 127.42 391.602Z" fill="#2D2979"/>
<path d="M148.296 408.465C148.296 408.465 147.913 409.136 145.842 408.261C143.771 407.387 143.185 406.356 143.185 406.356C143.185 406.356 143.723 402.185 145.004 403.24C146.285 404.282 148.296 408.465 148.296 408.465Z" fill="#291D51"/>
<path d="M143.077 393.867C143.113 396.048 143.173 397.726 142.335 398.901C141.509 400.075 141.437 400.866 141.437 400.866C141.437 400.866 143.903 401.214 145.16 402.916C146.417 404.618 146.345 406.32 147.506 406.596C148.667 406.871 150.606 405.541 150.606 405.541C150.606 405.541 149.373 405.493 148.894 403.947C148.415 402.401 147.183 399.105 147.135 398.23C147.087 397.367 146.931 393.867 146.931 393.867H143.077Z" fill="#FFA8A7"/>
<path d="M143.053 399.476C144.13 399.548 145.77 400.747 146.321 401.993C146.871 403.24 147.781 404.989 148.475 405.373C149.17 405.769 150.414 405.193 151.468 405.181C152.521 405.181 153.263 405.661 153.323 406.428C153.323 406.428 149.948 408.034 148.93 408.513C147.913 408.993 147.063 409.005 146.273 406.907C145.483 404.798 145.172 403.611 144.549 405.049C143.915 406.488 143.651 409.7 143.651 409.7C143.651 409.7 142.79 410.023 142.371 409.16C142.371 409.16 142.395 407.65 142.215 406.344C142.035 405.049 140.862 403.419 140.946 401.861C141.042 400.315 141.892 399.404 143.053 399.476Z" fill="#2D2979"/>
<path d="M126.403 299.469C124.5 300.021 123.41 302.13 121.735 306.649C120.059 311.167 118.311 317.759 118.539 319.497C119.077 323.752 121.723 327.396 126.271 330.416L128.306 326.689C128.306 326.689 123.841 323.093 123.41 318.826C123.171 316.429 126.271 308.291 126.271 308.075C126.271 307.859 126.403 299.469 126.403 299.469Z" fill="#FFA8A7"/>
<path d="M124.967 373.432C124.967 369.513 125.864 366.888 125.864 366.888C125.864 366.888 124.236 358.846 123.638 352.661C122.752 343.528 121.136 341.335 122.596 335.929C123.937 330.943 126.056 327.468 127.48 323.968L142.371 325.142C142.371 325.142 143.664 329.373 145.339 337.787C147.015 346.201 147.769 356.149 147.614 369.417C147.566 372.833 147.542 375.889 147.338 384.411C147.207 390.14 147.135 397.846 147.135 397.846C144.837 399.189 142.898 397.667 142.898 397.667C142.898 397.667 139.378 380.683 138.804 376.776C138.217 372.749 139.319 370.34 139.319 370.34C139.319 370.34 138.205 365.006 137.367 360.811C136.35 355.705 133.848 344.655 133.848 344.655C133.848 344.655 133.776 361.554 133.537 364.97C133.298 368.386 133.441 371.107 132.807 375.649C132.041 381.151 131.358 390.415 131.358 390.415C128.976 390.991 127.289 389.696 127.289 389.696C127.289 389.696 124.967 378.25 124.967 373.432Z" fill="#7FA8E6"/>
<path d="M133.86 344.655C133.86 344.655 133.788 361.554 133.549 364.97C133.525 365.402 133.489 365.773 133.465 366.133V366.157C133.465 366.217 133.453 366.276 133.453 366.336L131.718 346.572C126.918 345.194 125.397 341.97 125.397 341.97C128.617 345.218 133.86 344.655 133.86 344.655Z" fill="#597BC6"/>
<path d="M127.277 299.385C130.449 299.194 130.748 299.721 131.011 298.594C131.107 298.187 131.275 295.394 131.275 295.394C130.999 295.095 130.485 294.22 130.485 294.22C128.402 292.937 126.918 290.768 126.642 288.155C126.175 283.673 129.419 279.669 133.896 279.202C138.098 278.758 141.198 281.719 142.024 285.782C142.467 287.784 142.933 291.895 141.689 295.179C140.982 297.036 140.336 298.343 138.648 298.271C138.337 298.259 137.726 298.151 136.996 297.971C136.936 298.57 136.865 299.481 136.901 300.308C136.948 301.123 136.805 301.531 138.397 302.514C139.989 303.496 135.991 305.51 133.393 305.306C130.784 305.115 127.851 303.532 127.049 301.843C126.152 299.961 125.792 299.481 127.277 299.385Z" fill="#FFA8A7"/>
<path d="M127.049 301.843C126.152 299.961 125.793 299.481 127.289 299.386C130.461 299.194 130.76 299.721 131.023 298.595C131.119 298.187 131.287 295.394 131.287 295.394C131.011 295.095 130.497 294.22 130.497 294.22C129.36 293.513 128.402 292.542 127.72 291.367C127.827 291.259 127.911 291.188 127.911 291.188L134.686 294.687L135.943 294.412L136.949 293.273C136.949 293.273 137.104 295.239 137.415 296.126C137.715 297.012 139.761 298.031 139.785 298.043C139.474 298.199 139.103 298.271 138.672 298.259C138.361 298.247 137.751 298.139 137.02 297.959C136.961 298.559 136.889 299.469 136.925 300.296C136.972 301.111 136.829 301.519 138.421 302.502C140.013 303.485 136.015 305.498 133.417 305.294C130.784 305.103 127.851 303.533 127.049 301.843Z" fill="#F28F8F"/>
<path d="M129.599 294.495C127.564 292.626 126.918 290.78 126.642 288.155C126.176 283.673 129.419 279.669 133.896 279.202C136.793 278.902 139.163 280.209 140.635 282.39C140.635 282.39 140.336 283.001 139.869 283.445C139.869 283.445 140.24 284.488 139.582 285.219C139.115 285.746 138.971 286.501 139.079 287.196C139.199 287.963 139.283 288.91 139.199 289.749C139.079 290.936 137.978 291.463 137.978 291.463C137.978 291.463 137.822 289.665 137.367 288.682C136.925 287.7 135.213 287.448 134.59 288.814C133.968 290.181 134.219 291.247 134.866 292.374C135.452 293.393 136.386 293.465 136.937 293.285C137.068 293.74 136.913 295.275 135.153 295.778C133.381 296.281 131.742 295.814 130.832 295.346C130.281 295.083 129.599 294.495 129.599 294.495Z" fill="#543354"/>
<path d="M138.636 280.352C139.749 280.137 142.874 280.772 142.85 284.044C142.826 286.705 141.066 288.586 138.768 289.222L138.636 280.352Z" fill="#543354"/>
<path d="M130.425 299.326C129.838 300.057 129.778 300.979 132.041 301.543C134.997 302.286 136.996 301.159 136.996 301.159C136.996 301.159 140.049 302.43 142.119 303.88C147.183 307.404 148.404 313.516 143.293 315.614C142.981 317.915 142.598 323.824 142.502 325.166C138.181 328.186 129.419 327.156 127.444 323.956C127.42 322.865 127.217 321.031 127.145 320.756C125.086 313.109 123.47 311.071 124.045 305.306C124.368 302.01 124.631 300.344 126.379 299.457C127.456 299.146 129.79 299.278 130.425 299.326Z" fill="#F5FBFB"/>
<path d="M138.062 301.639C138.062 301.639 137.535 300.213 137.415 299.865C137.296 299.529 136.901 299.469 136.901 299.469C136.901 299.469 136.314 300.201 134.411 299.997C132.508 299.805 130.999 298.942 131.059 298.259L131.107 297.827C131.107 297.827 130.568 297.732 130.185 298.139C129.802 298.547 129.24 299.29 129.24 299.29C129.24 299.29 128.929 300.86 131.478 301.807C134.028 302.777 136.338 302.394 138.062 301.639Z" fill="#E4F2F2"/>
<path d="M162.121 339.058C161.08 338.902 160.242 338.386 158.77 338.278C157.465 338.195 156.627 338.087 155.478 337.679C154.341 337.272 153 335.833 150.905 332.945C148.44 329.541 146.56 324.471 146.058 322.17C144.956 317.208 144.489 310.304 144.501 307.883C144.501 304.983 143.185 303.832 141.665 303.257C139.881 302.586 138.636 303.209 138.768 307.2C138.9 311.191 139.57 318.55 141.138 323.764C141.892 326.293 143.257 330.188 146.417 334.587C148.619 337.655 149.457 338.602 152.282 341.095C153.06 341.778 153.455 342.473 154.772 343.948C156.088 345.422 157.968 346.8 159.548 347.303C161.116 347.807 161.774 347.735 162.014 347.459C162.313 347.112 162.109 346.728 161.415 346.417C160.721 346.105 159.524 345.697 158.315 344.607C158.315 344.607 159.799 345.362 160.721 345.745C161.642 346.117 162.6 346.345 163.294 346.417C164.144 346.5 164.982 345.53 164.288 345.206C163.594 344.87 162.971 344.811 161.607 344.223C160.362 343.696 159.56 343.073 159.56 343.073C159.56 343.073 161.068 343.624 162.421 343.84C163.773 344.055 164.372 343.864 164.767 343.72C165.162 343.576 165.461 342.869 164.539 342.569C163.725 342.306 162.576 342.318 161.092 341.562C160.015 341.011 159.332 340.484 159.56 340.388C159.787 340.292 160.398 340.664 161.451 340.652C162.456 340.64 163.438 340.04 163.39 339.477C163.342 338.914 163.151 339.213 162.121 339.058Z" fill="#FFA8A7"/>
</g>
<defs>
<linearGradient id="paint0_linear" x1="7.10938" y1="470.397" x2="89.4493" y2="470.397" gradientUnits="userSpaceOnUse">
<stop stop-color="#6B99D1"/>
<stop offset="0.0205" stop-color="#6E9BD3"/>
<stop offset="0.2361" stop-color="#86B0E4"/>
<stop offset="0.4632" stop-color="#97BFF0"/>
<stop offset="0.7077" stop-color="#A2C8F8"/>
<stop offset="1" stop-color="#A5CBFA"/>
</linearGradient>
<linearGradient id="paint1_linear" x1="15.0044" y1="455.788" x2="81.5436" y2="455.788" gradientUnits="userSpaceOnUse">
<stop stop-color="#A5CBFA"/>
<stop offset="0.3632" stop-color="#A8CDFA"/>
<stop offset="0.6668" stop-color="#B3D4FC"/>
<stop offset="0.9482" stop-color="#C4DFFE"/>
<stop offset="1" stop-color="#C8E2FF"/>
</linearGradient>
<linearGradient id="paint2_linear" x1="48.2719" y1="466.409" x2="48.2719" y2="275.781" gradientUnits="userSpaceOnUse">
<stop stop-color="#57F7D7" stop-opacity="0.7"/>
<stop offset="0.904" stop-color="#57F7DF" stop-opacity="0.0672"/>
<stop offset="1" stop-color="#57F7E0" stop-opacity="0"/>
</linearGradient>
<linearGradient id="paint3_linear" x1="322.142" y1="467.936" x2="412.997" y2="467.936" gradientUnits="userSpaceOnUse">
<stop stop-color="#A5CBFA"/>
<stop offset="0.3632" stop-color="#A8CDFA"/>
<stop offset="0.6668" stop-color="#B3D4FC"/>
<stop offset="0.9482" stop-color="#C4DFFE"/>
<stop offset="1" stop-color="#C8E2FF"/>
</linearGradient>
<linearGradient id="paint4_linear" x1="329.95" y1="453.988" x2="405.188" y2="453.988" gradientUnits="userSpaceOnUse">
<stop stop-color="#A5CBFA"/>
<stop offset="0.3632" stop-color="#A8CDFA"/>
<stop offset="0.6668" stop-color="#B3D4FC"/>
<stop offset="0.9482" stop-color="#C4DFFE"/>
<stop offset="1" stop-color="#C8E2FF"/>
</linearGradient>
<linearGradient id="paint5_linear" x1="345.336" y1="376.232" x2="356.638" y2="382.609" gradientUnits="userSpaceOnUse">
<stop stop-color="#91F1E6"/>
<stop offset="1" stop-color="#0662DD"/>
</linearGradient>
<linearGradient id="paint6_linear" x1="366.993" y1="347.177" x2="373.088" y2="350.616" gradientUnits="userSpaceOnUse">
<stop stop-color="#91F1E6"/>
<stop offset="1" stop-color="#0662DD"/>
</linearGradient>
<linearGradient id="paint7_linear" x1="384.474" y1="350.349" x2="390.569" y2="353.788" gradientUnits="userSpaceOnUse">
<stop stop-color="#91F1E6"/>
<stop offset="1" stop-color="#0662DD"/>
</linearGradient>
<linearGradient id="paint8_linear" x1="379.575" y1="373.441" x2="387.213" y2="377.752" gradientUnits="userSpaceOnUse">
<stop stop-color="#91F1E6"/>
<stop offset="1" stop-color="#0662DD"/>
</linearGradient>
<linearGradient id="paint9_linear" x1="367.567" y1="465.998" x2="367.567" y2="250.452" gradientUnits="userSpaceOnUse">
<stop stop-color="#57F7D7" stop-opacity="0.7"/>
<stop offset="0.904" stop-color="#57F7DF" stop-opacity="0.0672"/>
<stop offset="1" stop-color="#57F7E0" stop-opacity="0"/>
</linearGradient>
<linearGradient id="paint10_linear" x1="148.544" y1="289.601" x2="162.681" y2="289.601" gradientUnits="userSpaceOnUse">
<stop stop-color="#C8E2FF"/>
<stop offset="0.1783" stop-color="#C2DEFC"/>
<stop offset="0.4099" stop-color="#B2D1F4"/>
<stop offset="0.671" stop-color="#97BCE7"/>
<stop offset="0.9518" stop-color="#729FD5"/>
<stop offset="1" stop-color="#6B99D1"/>
</linearGradient>
<linearGradient id="paint11_linear" x1="160.389" y1="296.479" x2="174.526" y2="296.479" gradientUnits="userSpaceOnUse">
<stop stop-color="#C8E2FF"/>
<stop offset="0.1783" stop-color="#C2DEFC"/>
<stop offset="0.4099" stop-color="#B2D1F4"/>
<stop offset="0.671" stop-color="#97BCE7"/>
<stop offset="0.9518" stop-color="#729FD5"/>
<stop offset="1" stop-color="#6B99D1"/>
</linearGradient>
<linearGradient id="paint12_linear" x1="172.234" y1="303.358" x2="186.37" y2="303.358" gradientUnits="userSpaceOnUse">
<stop stop-color="#C8E2FF"/>
<stop offset="0.1783" stop-color="#C2DEFC"/>
<stop offset="0.4099" stop-color="#B2D1F4"/>
<stop offset="0.671" stop-color="#97BCE7"/>
<stop offset="0.9518" stop-color="#729FD5"/>
<stop offset="1" stop-color="#6B99D1"/>
</linearGradient>
<linearGradient id="paint13_linear" x1="184.079" y1="310.236" x2="198.215" y2="310.236" gradientUnits="userSpaceOnUse">
<stop stop-color="#C8E2FF"/>
<stop offset="0.1783" stop-color="#C2DEFC"/>
<stop offset="0.4099" stop-color="#B2D1F4"/>
<stop offset="0.671" stop-color="#97BCE7"/>
<stop offset="0.9518" stop-color="#729FD5"/>
<stop offset="1" stop-color="#6B99D1"/>
</linearGradient>
<linearGradient id="paint14_linear" x1="271.655" y1="289.601" x2="257.519" y2="289.601" gradientUnits="userSpaceOnUse">
<stop stop-color="#C8E2FF"/>
<stop offset="0.1783" stop-color="#C2DEFC"/>
<stop offset="0.4099" stop-color="#B2D1F4"/>
<stop offset="0.671" stop-color="#97BCE7"/>
<stop offset="0.9518" stop-color="#729FD5"/>
<stop offset="1" stop-color="#6B99D1"/>
</linearGradient>
<linearGradient id="paint15_linear" x1="259.81" y1="296.479" x2="245.674" y2="296.479" gradientUnits="userSpaceOnUse">
<stop stop-color="#C8E2FF"/>
<stop offset="0.1783" stop-color="#C2DEFC"/>
<stop offset="0.4099" stop-color="#B2D1F4"/>
<stop offset="0.671" stop-color="#97BCE7"/>
<stop offset="0.9518" stop-color="#729FD5"/>
<stop offset="1" stop-color="#6B99D1"/>
</linearGradient>
<linearGradient id="paint16_linear" x1="247.966" y1="303.358" x2="233.83" y2="303.358" gradientUnits="userSpaceOnUse">
<stop stop-color="#C8E2FF"/>
<stop offset="0.1783" stop-color="#C2DEFC"/>
<stop offset="0.4099" stop-color="#B2D1F4"/>
<stop offset="0.671" stop-color="#97BCE7"/>
<stop offset="0.9518" stop-color="#729FD5"/>
<stop offset="1" stop-color="#6B99D1"/>
</linearGradient>
<linearGradient id="paint17_linear" x1="236.122" y1="310.236" x2="221.985" y2="310.236" gradientUnits="userSpaceOnUse">
<stop stop-color="#C8E2FF"/>
<stop offset="0.1783" stop-color="#C2DEFC"/>
<stop offset="0.4099" stop-color="#B2D1F4"/>
<stop offset="0.671" stop-color="#97BCE7"/>
<stop offset="0.9518" stop-color="#729FD5"/>
<stop offset="1" stop-color="#6B99D1"/>
</linearGradient>
<linearGradient id="paint18_linear" x1="318.018" y1="284.533" x2="216.439" y2="105.841" gradientUnits="userSpaceOnUse">
<stop stop-color="#57F7E0"/>
<stop offset="1" stop-color="#57F7E0" stop-opacity="0"/>
</linearGradient>
<linearGradient id="paint19_linear" x1="102.343" y1="285.234" x2="183.826" y2="140.506" gradientUnits="userSpaceOnUse">
<stop stop-color="#57F7E0"/>
<stop offset="1" stop-color="#57F7E0" stop-opacity="0"/>
</linearGradient>
<clipPath id="clip0">
<rect width="413" height="502" fill="white"/>
</clipPath>
</defs>
</svg>
