<svg xmlns="http://www.w3.org/2000/svg" xmlns:xlink="http://www.w3.org/1999/xlink" width="69.997" height="69.998" viewBox="0 0 69.997 69.998"><defs><style>.a{fill:url(#a);}</style><linearGradient id="a" x1="0.5" x2="0.5" y2="1" gradientUnits="objectBoundingBox"><stop offset="0" stop-color="#00cacc"/><stop offset="1" stop-color="#00f6a0"/></linearGradient></defs><path class="a" d="M56.1,245.31a2.188,2.188,0,0,1-2.187-2.187V205.936a2.19,2.19,0,0,1,2.187-2.187h0v35.006a4.346,4.346,0,0,0,.168,1.137,4.482,4.482,0,0,0,.3.787,4.366,4.366,0,0,0,2.879,2.314c.053.013.1.037.151.048.155.031.319.033.479.048.136.011.265.039.4.039h0l13.12,0v-4.375l-9.572,0L77.9,227.968c1.542-1.31,4.4-3.22,4.421-4.469a2.153,2.153,0,0,0-.431-1.407,2.193,2.193,0,0,0-3.071-.385L60.475,235.974V201.631L85.392,220.8a2.145,2.145,0,0,0,.785.365,5.335,5.335,0,0,0,2.892-1.142l23.9-18.4v26.186h4.375V199.374a4.256,4.256,0,0,0-.168-1.137,4.289,4.289,0,0,0-1.573-2.336c-.066-.05-.12-.109-.188-.155s-.12-.061-.177-.1a4.354,4.354,0,0,0-1.387-.562c-.153-.031-.317-.033-.477-.048-.136-.011-.267-.039-.4-.039h0l-52.5.007a4.375,4.375,0,0,0-4.373,4.368h0a6.569,6.569,0,0,0-6.562,6.562v37.186a6.569,6.569,0,0,0,6.562,6.562H73.6V245.31Zm8.627-45.93,44-.007-22,16.931Zm44.552,52.267a17.565,17.565,0,1,0-3.093,3.093l9.616,9.616a2.187,2.187,0,0,0,3.093-3.093Zm-13.8,2.413A13.125,13.125,0,1,1,108.6,240.935,13.139,13.139,0,0,1,95.472,254.06ZM84.535,240.935A10.95,10.95,0,0,1,95.472,230a2.187,2.187,0,0,1,0,4.375,6.567,6.567,0,0,0-6.562,6.562,2.187,2.187,0,1,1-4.375,0Z" transform="translate(-49.536 -194.999)"/></svg>