<svg width="76" height="76" viewBox="0 0 76 76" fill="none" xmlns="http://www.w3.org/2000/svg">
<path d="M75.2412 71.4344H70.8445V39.2175L75.2412 43.6148V18.5079H50.1554L58.0445 26.3981L50.4567 33.9869L33.4374 21.3271L4.6108 41.8239V0.7771H0.214111V75.8317H75.259V71.4344H75.2412ZM31.1327 39.1821V71.4344H17.9426V48.5439L31.1327 39.1821ZM35.5294 39.3771L48.8612 49.3064V71.4344H35.5294V39.3771ZM53.2579 49.8383L66.4479 36.6466V71.4344H53.2579V49.8383ZM33.3665 26.7705L50.8645 39.7849L64.2495 26.3981L60.757 22.9052H70.8445V32.994L67.352 29.501L51.2545 45.6006L33.2778 32.2316L4.59306 52.622V47.2141L33.3665 26.7705ZM4.59306 58.0299L13.5282 51.6646V71.4167H4.59306V58.0299Z" fill="black"/>
</svg>
