<svg width="326" height="306" viewBox="0 0 326 306" fill="none" xmlns="http://www.w3.org/2000/svg">
<g clip-path="url(#clip0)">
<path d="M288.533 305.767C309.07 305.767 325.718 300.421 325.718 293.827C325.718 287.233 309.07 281.887 288.533 281.887C267.996 281.887 251.348 287.233 251.348 293.827C251.348 300.421 267.996 305.767 288.533 305.767Z" fill="#3F3D56"/>
<path d="M158.327 41.7182V199.723C158.326 201.605 157.758 203.41 156.746 204.741C155.735 206.072 154.364 206.819 152.934 206.819H104.207C103.499 206.821 102.797 206.638 102.142 206.282C101.488 205.926 100.893 205.404 100.392 204.745C99.8909 204.085 99.4936 203.302 99.2229 202.441C98.9522 201.579 98.8133 200.655 98.8142 199.723V41.7182C98.8142 40.7859 98.9537 39.8627 99.2247 39.0013C99.4957 38.1399 99.8929 37.3572 100.394 36.698C100.894 36.0387 101.489 35.5158 102.143 35.159C102.798 34.8022 103.499 34.6186 104.207 34.6187H111.5V35.8505C111.5 37.4009 111.968 38.8878 112.801 39.9841C113.633 41.0803 114.763 41.6962 115.941 41.6962H140.722C141.9 41.6962 143.029 41.0803 143.862 39.984C144.695 38.8878 145.162 37.4009 145.162 35.8505V34.6187H152.934C153.642 34.6183 154.344 34.8018 154.998 35.1585C155.652 35.5151 156.247 36.0381 156.748 36.6974C157.249 37.3567 157.646 38.1395 157.917 39.001C158.188 39.8625 158.327 40.7858 158.327 41.7182Z" fill="#00BFA6"/>
<path d="M156.193 61.0267H100.955V96.4461H156.193V61.0267Z" fill="#3F3D56"/>
<path d="M123.195 85.3471C124.641 92.384 129.594 96.7421 129.594 96.7421C129.594 96.7421 132.203 89.6912 130.757 82.6543C129.311 75.6175 124.358 71.2593 124.358 71.2593C124.358 71.2593 121.749 78.3102 123.195 85.3471Z" fill="white"/>
<path d="M125.32 83.835C129.288 88.9198 129.772 96.7365 129.772 96.7365C129.772 96.7365 123.824 96.3089 119.856 91.2241C115.888 86.1392 115.404 78.3225 115.404 78.3225C115.404 78.3225 121.352 78.7501 125.32 83.835Z" fill="#00BFA6"/>
<path d="M136.35 85.3471C134.904 92.384 129.951 96.7421 129.951 96.7421C129.951 96.7421 127.342 89.6912 128.788 82.6543C130.234 75.6175 135.187 71.2593 135.187 71.2593C135.187 71.2593 137.796 78.3102 136.35 85.3471Z" fill="white"/>
<path d="M134.225 83.835C130.257 88.9198 129.772 96.7365 129.772 96.7365C129.772 96.7365 135.721 96.3089 139.689 91.2241C143.657 86.1392 144.141 78.3225 144.141 78.3225C144.141 78.3225 138.193 78.7501 134.225 83.835Z" fill="#00BFA6"/>
<path d="M151.253 116.28H105.895V119.558H151.253V116.28Z" fill="#F0F0F0"/>
<path d="M151.253 121.562H105.895V124.839H151.253V121.562Z" fill="#F0F0F0"/>
<path d="M151.253 126.842H105.895V130.12H151.253V126.842Z" fill="#F0F0F0"/>
<path d="M151.253 132.123H105.895V135.401H151.253V132.123Z" fill="#F0F0F0"/>
<path d="M137.202 160.369L127.106 150.934L119.939 164.225L130.035 173.66L137.202 160.369Z" fill="#F0F0F0"/>
<path d="M129.944 177.087C129.379 177.087 128.826 176.866 128.356 176.453C127.887 176.04 127.52 175.452 127.304 174.765C127.088 174.077 127.031 173.321 127.142 172.592C127.252 171.862 127.524 171.192 127.924 170.666C128.323 170.14 128.832 169.781 129.386 169.636C129.941 169.491 130.515 169.566 131.037 169.85C131.559 170.135 132.006 170.617 132.32 171.236C132.633 171.854 132.801 172.581 132.801 173.325C132.8 174.323 132.499 175.279 131.963 175.984C131.428 176.689 130.701 177.086 129.944 177.087ZM129.944 170.191C129.473 170.191 129.013 170.375 128.621 170.719C128.229 171.064 127.924 171.553 127.744 172.126C127.564 172.699 127.517 173.329 127.609 173.937C127.7 174.545 127.927 175.103 128.26 175.542C128.593 175.98 129.017 176.279 129.479 176.4C129.941 176.521 130.42 176.458 130.855 176.221C131.29 175.984 131.662 175.582 131.924 175.067C132.185 174.551 132.325 173.945 132.325 173.325C132.324 172.494 132.073 171.698 131.627 171.11C131.18 170.522 130.575 170.192 129.944 170.191Z" fill="#3F3D56"/>
<path d="M60.2306 7.86614V165.871C60.2299 167.753 59.6614 169.558 58.6501 170.889C57.6389 172.22 56.2675 172.967 54.8376 172.967H6.11093C5.40258 172.969 4.70095 172.786 4.04625 172.43C3.39155 172.074 2.79665 171.552 2.29566 170.892C1.79466 170.233 1.39742 169.45 1.1267 168.589C0.85598 167.727 0.7171 166.803 0.718022 165.871V7.86614C0.717992 6.93381 0.857462 6.01059 1.12847 5.14922C1.39948 4.28785 1.79672 3.50519 2.2975 2.84593C2.79828 2.18666 3.39281 1.66372 4.04712 1.30694C4.70143 0.950173 5.40272 0.766563 6.11093 0.766602H13.4039V1.99846C13.4039 3.54885 13.8717 5.03574 14.7045 6.13203C15.5372 7.22832 16.6667 7.84421 17.8444 7.84422H42.6256C43.8033 7.84421 44.9328 7.22831 45.7655 6.13202C46.5983 5.03573 47.0661 3.54884 47.0661 1.99846V0.766602H54.8376C55.5459 0.766299 56.2473 0.949726 56.9017 1.3064C57.5561 1.66308 58.1507 2.18602 58.6515 2.84533C59.1524 3.50465 59.5496 4.28742 59.8205 5.14891C60.0915 6.0104 60.2308 6.93373 60.2306 7.86614Z" fill="#F2F2F2"/>
<path d="M54.0495 87.0426H6.42993V30.9359H54.0495V87.0426ZM6.90612 86.4157H53.5733V31.5628H6.90612V86.4157Z" fill="#3F3D56"/>
<path d="M6.82691 31.0157L6.50952 31.4831L53.6529 86.9629L53.9703 86.4955L6.82691 31.0157Z" fill="#3F3D56"/>
<path d="M53.6531 31.0162L6.50903 86.4949L6.82642 86.9623L53.9705 31.4836L53.6531 31.0162Z" fill="#3F3D56"/>
<path d="M53.8113 103.342H6.66797V103.969H53.8113V103.342Z" fill="#3F3D56"/>
<path d="M53.8113 108.984H6.66797V109.611H53.8113V108.984Z" fill="#3F3D56"/>
<path d="M53.8113 114.626H6.66797V115.253H53.8113V114.626Z" fill="#3F3D56"/>
<path d="M30.2397 120.268H6.66797V120.895H30.2397V120.268Z" fill="#3F3D56"/>
<path d="M30.2397 125.91H6.66797V126.537H30.2397V125.91Z" fill="#3F3D56"/>
<path d="M256.185 7.86614V165.871C256.184 167.753 255.616 169.558 254.604 170.889C253.593 172.22 252.222 172.967 250.792 172.967H202.065C201.357 172.969 200.655 172.786 200.001 172.43C199.346 172.074 198.751 171.552 198.25 170.892C197.749 170.233 197.352 169.45 197.081 168.589C196.81 167.727 196.671 166.803 196.672 165.871V7.86614C196.672 6.93381 196.812 6.0106 197.083 5.14922C197.354 4.28785 197.751 3.50519 198.252 2.84593C198.753 2.18667 199.347 1.66372 200.001 1.30695C200.656 0.950175 201.357 0.766564 202.065 0.766602H209.358V1.99846C209.358 3.54885 209.826 5.03574 210.659 6.13203C211.492 7.22832 212.621 7.84421 213.799 7.84422H238.58C239.758 7.84421 240.887 7.22831 241.72 6.13202C242.553 5.03573 243.02 3.54884 243.02 1.99846V0.766602H250.792C251.5 0.766298 252.202 0.949727 252.856 1.3064C253.51 1.66308 254.105 2.18602 254.606 2.84533C255.107 3.50464 255.504 4.28741 255.775 5.14891C256.046 6.0104 256.185 6.93373 256.185 7.86614Z" fill="#F2F2F2"/>
<path d="M250.242 81.7139H203.099V82.3408H250.242V81.7139Z" fill="#3F3D56"/>
<path d="M250.242 98.0132H203.099V98.64H250.242V98.0132Z" fill="#3F3D56"/>
<path d="M250.242 114.312H203.099V114.939H250.242V114.312Z" fill="#3F3D56"/>
<path d="M225.413 57.9171C229.687 57.9171 233.153 53.3552 233.153 47.7278C233.153 42.1004 229.687 37.5385 225.413 37.5385C221.138 37.5385 217.673 42.1004 217.673 47.7278C217.673 53.3552 221.138 57.9171 225.413 57.9171Z" fill="#00BFA6"/>
<path d="M241.671 78.8932H238.337V88.9234H241.671V78.8932Z" fill="#00BFA6"/>
<path d="M212.385 94.8788H209.051V104.909H212.385V94.8788Z" fill="#00BFA6"/>
<path d="M231.909 110.865H228.575V120.895H231.909V110.865Z" fill="#00BFA6"/>
<path d="M226.429 59.146C224.545 59.146 222.704 58.4107 221.138 57.033C219.571 55.6554 218.351 53.6972 217.63 51.4062C216.909 49.1153 216.72 46.5943 217.088 44.1622C217.455 41.7301 218.362 39.4961 219.694 37.7427C221.026 35.9892 222.723 34.7951 224.571 34.3113C226.418 33.8276 228.333 34.0759 230.073 35.0248C231.814 35.9738 233.301 37.5808 234.348 39.6426C235.394 41.7045 235.953 44.1285 235.953 46.6083C235.95 49.9323 234.945 53.1192 233.16 55.4696C231.375 57.8201 228.954 59.1423 226.429 59.146ZM226.429 34.6973C224.639 34.6973 222.89 35.3959 221.402 36.7047C219.914 38.0134 218.754 39.8737 218.07 42.0501C217.385 44.2265 217.206 46.6214 217.555 48.9319C217.904 51.2424 218.766 53.3647 220.031 55.0305C221.296 56.6963 222.909 57.8307 224.664 58.2903C226.419 58.7499 228.238 58.514 229.891 57.6125C231.544 56.711 232.957 55.1843 233.952 53.2256C234.946 51.2668 235.476 48.964 235.476 46.6082C235.474 43.4504 234.52 40.4229 232.823 38.1899C231.127 35.957 228.827 34.7009 226.429 34.6973V34.6973Z" fill="#3F3D56"/>
<path d="M66.6637 83.6549L66.1975 84.1616L85.303 114.623L85.7692 114.116L66.6637 83.6549Z" fill="#3F3D56"/>
<path d="M87.8594 118.074C86.2749 116.865 84.0802 115.613 82.3516 115.238L85.2312 113.883L86.7859 110.418C86.7388 112.723 87.257 115.797 87.8594 118.074Z" fill="#3F3D56"/>
<path d="M190.006 83.652L170.905 114.119L171.372 114.626L190.472 84.1588L190.006 83.652Z" fill="#3F3D56"/>
<path d="M168.812 118.074C169.414 115.797 169.933 112.723 169.886 110.417L171.441 113.883L174.32 115.237C172.591 115.613 170.397 116.864 168.812 118.074Z" fill="#3F3D56"/>
<path d="M308.032 151.149C308.032 151.149 308.032 209.255 301.079 230.348L285.056 277.709C285.056 277.709 274.777 276.913 274.173 271.341L286.266 221.99L293.521 192.937L295.335 147.567L308.032 151.149Z" fill="#2F2E41"/>
<path d="M298.056 152.741L295.335 177.018L297.149 230.348L298.056 259.799C298.056 259.799 301.684 272.933 300.475 274.127L298.056 276.515C298.056 276.515 288.382 274.923 288.08 274.127C287.777 273.331 282.033 213.235 282.033 213.235C282.033 213.235 270.243 164.68 270.847 163.884C271.452 163.088 274.173 151.149 274.173 151.149L298.056 152.741Z" fill="#2F2E41"/>
<path d="M300.172 272.535L301.381 281.688C301.381 281.688 304.707 300.394 301.381 300.394C298.056 300.394 292.01 295.22 291.707 292.036C291.405 288.852 292.312 274.525 292.312 274.525L300.172 272.535Z" fill="#2F2E41"/>
<path d="M284.754 275.719C284.754 275.719 287.173 282.086 288.684 282.882C290.196 283.678 297.079 288.885 293.033 292.252C288.986 295.618 284.754 292.434 284.754 292.434L270.847 282.484C270.847 282.484 272.661 272.535 275.382 271.739C278.103 270.943 284.754 275.719 284.754 275.719Z" fill="#2F2E41"/>
<path d="M281.731 63.1935C287.742 63.1935 292.614 56.7788 292.614 48.8659C292.614 40.9531 287.742 34.5384 281.731 34.5384C275.72 34.5384 270.847 40.9531 270.847 48.8659C270.847 56.7788 275.72 63.1935 281.731 63.1935Z" fill="#FFB8B8"/>
<path d="M290.8 50.06C290.8 50.06 292.917 68.3674 295.033 70.7553C297.149 73.1432 290.498 81.501 287.475 81.103C284.452 80.705 281.126 71.9493 281.126 71.9493C281.126 71.9493 282.033 60.4077 280.522 57.2238C279.01 54.0399 290.8 50.06 290.8 50.06Z" fill="#FFB8B8"/>
<path d="M288.382 73.5412L293.517 67.3015C295.169 70.0345 297.228 72.2934 299.568 73.9392C303.498 76.7251 292.01 105.38 292.01 105.38L273.568 75.1331C273.568 75.1331 279.434 70.0004 281.338 67.9899L288.382 73.5412Z" fill="#3F3D56"/>
<path d="M291.405 97.8184C291.405 97.8184 299.507 79.2248 298.631 73.1991C298.631 73.1991 310.451 77.1231 311.056 82.2969C311.66 87.4707 305.312 106.176 305.312 106.176C305.312 106.176 310.451 153.537 307.428 153.935C304.405 154.333 274.173 154.731 273.568 152.741C272.964 150.751 274.173 144.781 272.359 142.791C270.545 140.801 268.429 141.995 269.336 138.811C270.243 135.627 274.173 131.647 272.964 129.259C271.754 126.871 271.452 127.667 271.754 126.076C272.057 124.484 271.15 103.39 271.15 103.39C271.15 103.39 264.801 80.307 266.313 78.715C267.824 77.1231 275.753 73.1991 275.753 73.1991L291.405 97.8184Z" fill="#3F3D56"/>
<path d="M315.59 159.904C315.59 159.904 314.683 175.824 309.544 175.028C304.405 174.232 310.451 157.118 310.451 157.118L315.59 159.904Z" fill="#FFB8B8"/>
<path d="M270.545 159.506C270.545 159.506 272.359 169.058 274.475 168.262V157.118L273.568 155.128L270.545 159.506Z" fill="#FFB8B8"/>
<path d="M290.607 50.927C290.579 50.5149 290.472 50.1187 290.297 49.7749C290.12 49.5128 289.891 49.3216 289.635 49.223C288.961 48.9479 288.234 48.9979 287.585 49.3641C286.936 49.7303 286.407 50.3887 286.093 51.2214C285.814 52.0228 285.68 53.0548 285.068 53.4119C284.356 53.8268 283.566 52.9434 283.287 51.9871C283.007 51.0308 283 49.947 282.627 49.0474C282.185 47.9808 281.291 47.3521 280.388 47.1001C279.64 46.8913 278.724 46.7818 278.387 45.8783C278.278 45.533 278.231 45.1592 278.25 44.7861C278.258 43.4559 278.441 42.1374 278.791 40.8892C275.829 40.1105 273.194 43.9156 270.174 43.977C269.792 44.0062 269.409 43.9076 269.063 43.6903C268.393 43.2191 268.102 42.1746 267.9 41.2105C267.686 40.1864 267.509 39.1503 267.371 38.1021L268.338 38.6861C268.068 38.008 267.921 37.2573 267.907 36.4922C268.406 36.4237 268.91 36.4798 269.394 36.6575L269.464 34.3753C270.211 35.6227 271.701 35.1842 272.825 34.6068C274.995 33.4924 277.154 32.2863 279.431 31.6432C281.708 31.0001 284.149 30.9528 286.302 32.121C288.565 33.3488 290.31 35.7905 291.847 38.2983C292.698 39.6885 293.522 41.1494 293.982 42.8297C294.557 45.1047 294.551 47.5649 293.964 49.8346C293.468 51.8779 292.547 54.3494 291.306 55.7654C290.872 54.3191 290.813 52.4742 290.607 50.927Z" fill="#2F2E41"/>
<path d="M269.94 77.5209L266.01 78.7149C266.01 78.7149 261.475 85.0827 261.173 91.0525C260.871 97.0223 260.871 126.871 260.871 126.871L266.615 151.547C266.615 151.547 266.01 157.118 266.615 157.118C267.22 157.118 267.522 155.924 267.522 157.516C267.522 159.108 266.01 157.516 267.522 159.108L270.545 162.292L275.598 153.474C275.598 153.474 275.987 149.955 275.08 149.159C274.173 148.363 274.173 147.965 274.475 146.771C274.777 145.577 275.382 145.179 275.08 144.383C274.777 143.587 273.871 142.393 273.871 141.597C273.871 140.801 273.871 140.005 273.568 139.607C273.266 139.209 271.15 129.657 271.15 129.657L272.359 98.6143L269.94 77.5209Z" fill="#3F3D56"/>
<path d="M308.032 79.511L311.056 81.5009C311.056 81.5009 315.893 100.604 315.893 117.32C315.893 134.035 316.8 145.179 316.8 145.179C316.8 145.179 318.311 149.955 317.707 149.955C317.102 149.955 316.497 149.955 317.102 151.149C317.707 152.343 318.009 151.945 317.707 153.139C317.404 154.333 317.102 152.343 317.404 154.333C317.707 156.323 317.404 157.118 316.8 157.118C316.195 157.118 316.195 162.292 316.195 162.292L308.939 158.71C308.939 158.71 310.149 156.721 309.846 155.925C309.662 155.427 309.559 154.885 309.544 154.333C309.544 154.333 311.056 153.935 309.544 153.139C308.032 152.343 308.637 152.343 308.939 149.955C309.242 147.567 310.149 147.965 309.242 147.567C308.335 147.169 302.893 110.156 302.893 110.156L308.032 79.511Z" fill="#3F3D56"/>
<path d="M288.377 74.8632C288.878 74.8632 289.284 74.3286 289.284 73.6692C289.284 73.0098 288.878 72.4753 288.377 72.4753C287.877 72.4753 287.47 73.0098 287.47 73.6692C287.47 74.3286 287.877 74.8632 288.377 74.8632Z" fill="#2F2E41"/>
<path d="M288.377 78.8431C288.878 78.8431 289.284 78.3086 289.284 77.6492C289.284 76.9898 288.878 76.4552 288.377 76.4552C287.877 76.4552 287.47 76.9898 287.47 77.6492C287.47 78.3086 287.877 78.8431 288.377 78.8431Z" fill="#2F2E41"/>
</g>
<defs>
<clipPath id="clip0">
<rect width="325" height="305" fill="white" transform="translate(0.718018 0.766602)"/>
</clipPath>
</defs>
</svg>
