<svg xmlns="http://www.w3.org/2000/svg" xmlns:xlink="http://www.w3.org/1999/xlink" width="88.592" height="88.295" viewBox="0 0 88.592 88.295"><defs><style>.a{fill:url(#a);}.b{fill:#00fcba;}.c{fill:url(#b);}</style><linearGradient id="a" x1="0.427" y1="0.974" x2="0.6" y2="-0.004" gradientUnits="objectBoundingBox"><stop offset="0" stop-color="#00befc"/><stop offset="0.212" stop-color="#00d3e5"/><stop offset="0.51" stop-color="#00eacc"/><stop offset="0.781" stop-color="#00f9bd"/><stop offset="1" stop-color="#00feb8"/></linearGradient><linearGradient id="b" x1="0.5" y1="1.105" x2="0.5" y2="-0.206" gradientUnits="objectBoundingBox"><stop offset="0" stop-color="#00befc"/><stop offset="0.242" stop-color="#00d6e1"/><stop offset="0.516" stop-color="#00ecca"/><stop offset="0.774" stop-color="#00f9bc"/><stop offset="1" stop-color="#00feb8"/></linearGradient></defs><g transform="translate(-546.516 -344.563)"><g transform="translate(586.214 344.563)"><path class="a" d="M860.169-250.744l-.064.15-25.221,59.505H820.438l26.986-63.5.064-.139.6-1.337.685-1.541.653-1.477,1.723.771-.652,1.477,1.766.781-.61,1.37-.075.182h-.011l-.578,1.316,1.477.653-.652,1.476,1.53.685.663-1.477,1.476.653.61-1.37,1.423.642-.663,1.466,1.68.749.664-1.466.535.235Z" transform="translate(-820.438 279.384)"/><path class="b" d="M863.1-264.56l1.535.683-.657,1.476,1.476.657-.687,1.544-1.476-.657-.657,1.476-1.535-.683.657-1.476-1.476-.657.687-1.545,1.477.657Z" transform="translate(-829.711 280.659)"/><path class="b" d="M867.281-255.507l-.685,1.541-1.476-.653-.664,1.477-1.434-.642-.1-.043.01-.021.642-1.455-1.4-.621-.075-.032.011-.032.674-1.52,1.476.664.417-.931.246-.546,1.22.546.311.139-.653,1.477Z" transform="translate(-830.135 279.207)"/><path class="b" d="M874.229-255.381l-.685,1.541-1.477-.653-.652,1.477-1.541-.685.663-1.477-1.477-.653.685-1.552,1.477.663.46-1.027.2-.449,1.006.449.525.236-.653,1.477Z" transform="translate(-831.755 279.178)"/><path class="b" d="M872.329-264.56l1.535.683-.657,1.476,1.476.657-.688,1.544-1.476-.657-.656,1.476-1.535-.683.657-1.476-1.476-.657.687-1.545,1.476.657Z" transform="translate(-831.859 280.659)"/><path class="b" d="M872.016-270.157l1.158.516-.5,1.114,1.114.5-.519,1.166-1.115-.5-.5,1.114-1.158-.516.5-1.114-1.115-.5.52-1.166,1.114.5Z" transform="translate(-831.947 281.962)"/><path class="b" d="M872.369-278.15l1.159.516-.5,1.114,1.113.5-.519,1.166-1.114-.5-.5,1.114-1.159-.516.5-1.114-1.114-.5.519-1.166,1.114.5Z" transform="translate(-832.029 283.822)"/><path class="b" d="M865.741-270.921l1.158.516-.5,1.114,1.114.5L867-267.63l-1.114-.5-.5,1.114-1.158-.516.5-1.114-1.114-.5.519-1.166,1.114.5Z" transform="translate(-830.487 282.14)"/><path class="b" d="M878.132-280.292l.714.318-.306.686.686.306-.319.718-.686-.306-.306.686-.713-.318.305-.686-.686-.306.319-.718.686.305Z" transform="translate(-833.561 284.321)"/><path class="b" d="M882.916-280.947l.488.217-.209.469.469.209-.218.491-.47-.209-.209.469-.488-.217.209-.469-.469-.209.219-.491.469.209Z" transform="translate(-834.77 284.473)"/><path class="b" d="M880.627-285.543l.387.172-.166.372.372.165-.174.389-.372-.165-.166.372-.387-.172.165-.372-.371-.166.173-.389.372.165Z" transform="translate(-834.281 285.543)"/><path class="b" d="M878.052-272.458l1.008.449L878.609-271l.969.432-.471,1.059-.969-.432-.451,1.012-1.008-.449.45-1.012-.969-.431.471-1.059.969.432Z" transform="translate(-833.408 282.498)"/><path class="b" d="M882.084-276.21l.793.354-.355.8.764.34-.371.834-.764-.34-.354.8-.795-.353.355-.8-.763-.34.372-.834.764.34Z" transform="translate(-834.439 283.371)"/></g><path class="c" d="M801.492-218.292l-.686,1.683-7.487,18.369-14.31-34.813H768.7l19.851,48.022h9.5l12.566-30.458.462-1.12.695-1.683Z" transform="translate(-222.181 617.889)"/></g></svg>