<svg xmlns="http://www.w3.org/2000/svg" width="72.954" height="71.796" viewBox="0 0 72.954 71.796">
  <g id="Logo" transform="translate(-0.164 -0.098)">
    <path id="Trazado_11" data-name="Trazado 11" d="M49.23,66.244c.569,2.471-.29,4.049-2.634,4.892a10.924,10.924,0,0,1-1.8.46,41.258,41.258,0,0,1-6.732.293c-3.757.039-7.5-.183-11.248-.376q-4.289-.221-8.572-.46a6.435,6.435,0,0,1-2.467-.5,2.714,2.714,0,0,1-1.589-2.885,2.426,2.426,0,0,1,.084-.376c.089-.341-.034-.491-.376-.5a12.368,12.368,0,0,1-3.889-.753,5.932,5.932,0,0,1-2.342-1.422,3.012,3.012,0,0,1-.753-3.262c.41-1.129.892-2.228,1.338-3.345a1.235,1.235,0,0,0,.167-.585,7.606,7.606,0,0,1-2.509-.335,7.587,7.587,0,0,1-5.6-5.9,8.262,8.262,0,0,1,.167-3.722c.92-3.689,2.153-7.3,3.178-10.956a.706.706,0,0,0-.125-.753C-.454,31.006.547,24.932,5.909,21.711a22.993,22.993,0,0,1,11.039-3.429,14.058,14.058,0,0,1,7.025,1.464c.153.077.326.267.5,0,1.173-1.778,2.679-3.329,3.805-5.143a38.574,38.574,0,0,1,2.425-3.6,62.9,62.9,0,0,1,5.478-5.812c1.058-1.038,2.091-2.086,3.053-3.22A4.119,4.119,0,0,1,43.125.385a1.318,1.318,0,0,0,.544-.042c2.064-.665,3.687.076,5.143,1.505A19.26,19.26,0,0,1,51.2,4.818c2.618,3.855,5.11,7.817,7.4,11.876a7.579,7.579,0,0,1,.878,2.3,2.622,2.622,0,0,1-1.589,3.094c-.538.229-1.078.373-1.714.585a10.028,10.028,0,0,1,2.467,1.38,4.489,4.489,0,0,1,1,1,.648.648,0,0,0,.836.293,10.085,10.085,0,0,1,5.1-.167c3.1.733,5.318,2.443,6.147,5.645a5.351,5.351,0,0,1,.084,1.882.906.906,0,0,0,.167.585,6.409,6.409,0,0,1-.042,7.359c-.279.42-.483.871-.753,1.3a4.816,4.816,0,0,0-.5,2.007,6.554,6.554,0,0,1-5.6,5.771,6.759,6.759,0,0,1-4.474-.92.868.868,0,0,0-.92-.042,6.855,6.855,0,0,1-2.133.669c-.239.036-.31.137-.335.376a2.566,2.566,0,0,0,.335,1.8,2.4,2.4,0,0,1,.084,2.174,30.07,30.07,0,0,0-1.38,5.771,10.654,10.654,0,0,0-.167,2.007c.094,2.126-1.12,3.3-2.927,4.056A9.509,9.509,0,0,1,49.23,66.244ZM22.677,68.962H21.59v.084H39.821v-.084h-.753c1.129-.068,2.261-.128,3.387-.209a21.181,21.181,0,0,0,3.722-.5c.305-.077.741-.1.753-.5.01-.37-.408-.46-.711-.585a18.59,18.59,0,0,0-6.565-1.129,61.43,61.43,0,0,0-8.321.376c-2.007.2-4.028.439-6.021.753q-2.913.457-5.812.962c-.874.151-1.724.365-2.593.544,1.739.159,3.459.2,5.185.209A1.127,1.127,0,0,1,22.677,68.962ZM56.589,41.908A9.284,9.284,0,0,1,56.84,40.7c1.489-4.152,4.048-7.22,8.488-8.4.6-.161.693-.442.335-.962A2.849,2.849,0,0,0,63.322,30.2a7.056,7.056,0,0,0-4.976,1.714,18.373,18.373,0,0,0-4.182,4.976.777.777,0,0,1-.753.418,13.19,13.19,0,0,1-3.053-.585c-1.312-.3-2.6-.767-4.014-.962a2.454,2.454,0,0,1,.293-.209,29.378,29.378,0,0,0,3.889-2.718,36.015,36.015,0,0,0,3.094-2.551c.434-.438.653-1.069,1.129-1.464.346-.287.279-.471-.042-.711a3.855,3.855,0,0,0-2.3-.753c-1.99-.036-3.989-.067-5.98-.084a6.6,6.6,0,0,1-2.007-.293,1.129,1.129,0,0,0-1.464.836A1.729,1.729,0,0,0,44.3,29.865a17.16,17.16,0,0,0,2.634.335c1,.067,2.031.162,3.178.251-.444.268-.761.439-1.087.627-2.158,1.251-4.33,2.5-6.481,3.763a4.762,4.762,0,0,0-2.091,2.174c-.447,1.01-.167,1.477.92,1.464a29.652,29.652,0,0,1,5.6.585,15.488,15.488,0,0,0,5.143.335,1.811,1.811,0,0,1,.836-.084,5.528,5.528,0,0,0-.46,2.342,1.7,1.7,0,0,0,1.3,1.631c.383.116.8.183,1.171.335a2.42,2.42,0,0,0,2.174-.084,15.7,15.7,0,0,0,3.638-2.676c.128-.125.225-.325.46-.335a6.417,6.417,0,0,1-.125,1.338,1.29,1.29,0,0,0,.836,1.547,6.707,6.707,0,0,1,.711.418c1.215.657,2.027.254,2.133-1.129a7.8,7.8,0,0,1,.836-3.094c.389-.741.8-1.472,1.254-2.174a1.1,1.1,0,0,0,.042-1.254,1.809,1.809,0,0,0-2.718-.794,4.584,4.584,0,0,0-1.589,1.589,8.668,8.668,0,0,1-3.094,3.053C58.539,40.58,57.6,41.249,56.589,41.908Zm-45.16-1.087c.075-.263.114-.406.167-.585.553-1.853,1.141-3.711,1.547-5.6a3.984,3.984,0,0,0-.335-3.178,1.226,1.226,0,0,0-2.174-.167,5.972,5.972,0,0,0-1.3,2.551c-.429,1.707-.849,3.41-1.338,5.1C7.056,42.2,6,45.46,5.2,48.766A2.216,2.216,0,0,0,7.08,51.735a1.512,1.512,0,0,0,1.965-1.171,2.557,2.557,0,0,0,.084-.5,28.271,28.271,0,0,1,1.213-5.729A2.212,2.212,0,0,1,11.6,42.912a28.779,28.779,0,0,0,9.032-7.025,16.148,16.148,0,0,0,3.22-4.725,4.958,4.958,0,0,0-1.631-5.98,8.254,8.254,0,0,0-5.98-1.631A18.122,18.122,0,0,0,9.254,25.6a7.042,7.042,0,0,0-2.467,1.714A3.519,3.519,0,0,0,7.122,32c.3.33.593.262.878-.042a2.1,2.1,0,0,0,.335-.418,6.075,6.075,0,0,1,2.551-2.509,21.467,21.467,0,0,1,5.645-2.007,9.232,9.232,0,0,1,4.223-.084,1.6,1.6,0,0,1,1.338,2.049,5.663,5.663,0,0,1-.46,1.505A21.2,21.2,0,0,1,17.241,36.3,30.036,30.036,0,0,1,11.429,40.821Zm14.97-17.6a4.227,4.227,0,0,0,.251,1.631.993.993,0,0,0,1.505.585,1.9,1.9,0,0,0,.46-.335.765.765,0,0,1,.669-.251,1.612,1.612,0,0,0,.962-.209,2.947,2.947,0,0,1,1.84-.293,6.853,6.853,0,0,0,2.007-.042,7.689,7.689,0,0,0,3.512-1,3.523,3.523,0,0,1,2.425-.669c.414.045.838.1,1.254.125a14.1,14.1,0,0,0,3.471-.669,10.137,10.137,0,0,1,3.345-.209,8.486,8.486,0,0,0,3.638-.042,1.051,1.051,0,0,1,.794.042,2.074,2.074,0,0,0,1.129.209,2.468,2.468,0,0,0,2.216-2.927,5.73,5.73,0,0,1-.084-.836,1.609,1.609,0,0,0-.711-1.422,1.572,1.572,0,0,1-.669-1.464,1.215,1.215,0,0,0-.376-.962,10.643,10.643,0,0,0-1.171-1.087,1.7,1.7,0,0,1-.711-.962,2.08,2.08,0,0,0-.962-1.3,1.553,1.553,0,0,1-.711-.92,8.365,8.365,0,0,0-1.84-3.429,1.364,1.364,0,0,0-.878-.585.548.548,0,0,1-.46-.46,3.666,3.666,0,0,0-1.254-1.882,2.488,2.488,0,0,0-4.223.878.461.461,0,0,1-.251.251c-.3.141-.424.434-.585.711a2.126,2.126,0,0,1-1.422,1.129,1.918,1.918,0,0,0-1.338,1.087,1.528,1.528,0,0,1-.5.669,5.874,5.874,0,0,0-1.3,1.254,6.069,6.069,0,0,1-2.091,1.924,5.265,5.265,0,0,0-2.927,3.262A6.118,6.118,0,0,1,29.2,18.031,6.981,6.981,0,0,0,26.4,23.217ZM18.7,53.073a1.375,1.375,0,0,1,.209-.711c.662-1.442,1.38-2.868,2.133-4.265a.837.837,0,0,0-.376-1.338,3.1,3.1,0,0,0-1.338-.418,1.387,1.387,0,0,0-1.464.794c-.938,1.871-1.805,3.786-2.676,5.687-.278.605-.447,1.33-1.338,1.3-.031,0-.052.027-.084.042a.574.574,0,0,0-.376.46.453.453,0,0,0,.376.46c.363.111.3.3.167.585-.354.777-.677,1.552-1,2.342-.509,1.223-1.017,2.448-1.505,3.68-.159.4-.254.84.251,1.087a4.4,4.4,0,0,0,2.383.5c.865-.087,1.187-.509,1.087-1.38a2.892,2.892,0,0,1,.251-1.422c.643-1.639,1.335-3.244,2.049-4.851a.722.722,0,0,1,.627-.5,13.574,13.574,0,0,0,5.352-2.007A8.244,8.244,0,0,0,27.193,48.6a3.455,3.455,0,0,0-1.673-4.223,5.767,5.767,0,0,0-2.133-.669,16.087,16.087,0,0,0-8.112,1.213,9.622,9.622,0,0,0-2.969,1.8c-.5.476-.462.781.084,1.171,1.438,1.028,2.1.947,3.345-.293a8.431,8.431,0,0,1,6.356-2.76,1.868,1.868,0,0,1,1.84,1.38,2.759,2.759,0,0,1,.042,1.547C23.256,50.531,21.176,51.97,18.7,53.073ZM37.94,33.127c-.1.237-.317.293-.46.376-2.425,1.414-4.858,2.8-7.276,4.223a4.56,4.56,0,0,0-1.924,2.091c-.438,1-.122,1.477.962,1.464a23.937,23.937,0,0,1,4.182.293,35.167,35.167,0,0,0,4.976.711A6.909,6.909,0,0,0,42.623,41.2a.645.645,0,0,0,.335-.753c-.093-.29-.371-.3-.627-.335a2.355,2.355,0,0,0-.376,0,10.051,10.051,0,0,1-2.8-.376c-1.428-.387-2.852-.807-4.307-1.087-.161-.031-.417.088-.46-.125s.249-.246.376-.335c2.843-1.975,5.807-3.78,7.945-6.607.2-.258.194-.432-.042-.627a3.469,3.469,0,0,0-1.84-.753c-1.3-.167-2.623-.08-3.931-.125a18.3,18.3,0,0,1-4.767-.335,1.091,1.091,0,0,0-1.3,1,1.729,1.729,0,0,0,1.422,1.924c.273.055.559.089.836.125C34.682,32.99,36.291,33.019,37.94,33.127Zm9.2,28.811c-.01.495.187.724.585.753a10.268,10.268,0,0,0,1.924-.042c.447-.051.742-.259.753-.753a29.8,29.8,0,0,1,1.714-9.032c.158-.462.065-.723-.376-.878a5.691,5.691,0,0,0-1.589-.335c-.738-.037-1.012.165-1.254.878a44.643,44.643,0,0,1-2.76,6.9,6.857,6.857,0,0,1-1.464,2.049c-.46.4-.822.293-1-.293a3.211,3.211,0,0,1-.125-1.213,16.429,16.429,0,0,1,1.589-5.227,1.644,1.644,0,0,1,.627-.794.958.958,0,0,0,.042-1.756,4.369,4.369,0,0,0-1.84-.627,1.05,1.05,0,0,0-1.171.627c-.411.75-.794,1.512-1.129,2.3a12.222,12.222,0,0,0-1.3,5.311,3,3,0,0,0,2.425,2.969A5.039,5.039,0,0,0,47.139,61.938ZM29.828,51.316a7.261,7.261,0,0,0-5.143,1.84,8.892,8.892,0,0,0-2.634,6.9,2.626,2.626,0,0,0,1,1.924c1.765,1.532,5.3,1.137,7.109-1.045.26-.314.138-.615-.209-.794a5.179,5.179,0,0,0-1.924-.5.879.879,0,0,0-1,.585,3.3,3.3,0,0,1-.627,1.129c-.347.366-.516.379-.669-.084a5.127,5.127,0,0,1,0-2.885c.037-.15.14-.2.293-.125a4.123,4.123,0,0,0,2.049.209,5.091,5.091,0,0,0,4.683-3.805A2.516,2.516,0,0,0,30.748,51.4,6.664,6.664,0,0,0,29.828,51.316Zm10.7,2.718c.448-.074.964.045,1.171-.46a1.921,1.921,0,0,0-.251-1.882c-.337-.481-.923-.378-1.422-.251a6.013,6.013,0,0,0-1.673.836c-.113.072-.2.237-.376.042a3.1,3.1,0,0,0-1.8-.753c-.972-.209-1.255-.072-1.589.878-.63,1.792-1.237,3.593-1.84,5.394-.437,1.305-.858,2.612-1.254,3.931-.215.714-.069.953.669,1.129a6.034,6.034,0,0,0,1.673.209c.736-.035.981-.253,1.129-.962.237-1.145.549-2.266.878-3.387a9.624,9.624,0,0,1,2.425-4.265c.475-.463.932-.859,1.673-.544A2.069,2.069,0,0,0,40.532,54.034ZM21.506,41.114a1.825,1.825,0,0,0,1.087,1.464c.935.565,1.257.546,1.882-.335a32.432,32.432,0,0,0,3.763-7.819,2.293,2.293,0,0,0-1.756-3.011.569.569,0,0,0-.753.335c-1.438,2.828-2.9,5.655-4.056,8.614A1.739,1.739,0,0,0,21.506,41.114Zm25.758,9.952c.38-.042.751-.064,1.129-.125a10.756,10.756,0,0,0,2.76-.711c.567-.256.6-.653.084-1a2.17,2.17,0,0,0-1.84-.335c-1.2.335-2.273,1.059-3.554,1.171a.3.3,0,0,0-.251.293c-.022.189.112.256.251.335A2.978,2.978,0,0,0,47.265,51.066Z" transform="translate(0 0)" fill="#fff"/>
    <path id="Trazado_12" data-name="Trazado 12" d="M975.05,656.524c1.008-.659,1.949-1.328,2.927-1.882a8.674,8.674,0,0,0,3.094-3.052A4.566,4.566,0,0,1,982.661,650a1.809,1.809,0,0,1,2.718.795,1.1,1.1,0,0,1-.042,1.254c-.452.7-.865,1.434-1.254,2.174a7.8,7.8,0,0,0-.836,3.094c-.106,1.383-.918,1.786-2.133,1.129a6.864,6.864,0,0,0-.711-.418,1.294,1.294,0,0,1-.836-1.547,6.365,6.365,0,0,0,.125-1.338c-.235.009-.332.209-.46.334a15.7,15.7,0,0,1-3.638,2.676,2.42,2.42,0,0,1-2.174.084c-.368-.152-.746-.219-1.129-.334a1.743,1.743,0,0,1-1.338-1.631,5.529,5.529,0,0,1,.46-2.342,1.827,1.827,0,0,0-.836.084,15.479,15.479,0,0,1-5.143-.335,29.73,29.73,0,0,0-5.6-.585c-1.087.016-1.365-.452-.92-1.464A4.762,4.762,0,0,1,961,649.457c2.152-1.261,4.324-2.512,6.481-3.763.324-.188.642-.359,1.087-.627-1.147-.089-2.172-.184-3.178-.251a17.171,17.171,0,0,1-2.634-.334,1.73,1.73,0,0,1-1.338-2.049,1.127,1.127,0,0,1,1.464-.836,6.568,6.568,0,0,0,2.007.293c1.991.019,3.989.049,5.98.084a3.855,3.855,0,0,1,2.3.753c.321.24.388.424.042.711-.476.4-.694,1.027-1.129,1.464a36.305,36.305,0,0,1-3.094,2.551,29.359,29.359,0,0,1-3.889,2.718,2.5,2.5,0,0,0-.293.209c1.417.195,2.7.658,4.014.962a13.251,13.251,0,0,0,3.053.627.807.807,0,0,0,.753-.46,18.391,18.391,0,0,1,4.182-4.976,7.062,7.062,0,0,1,4.976-1.714,2.847,2.847,0,0,1,2.342,1.129c.358.518.269.8-.334.962-4.44,1.185-7,4.253-8.489,8.4A9.094,9.094,0,0,0,975.05,656.524Z" transform="translate(-918.461 -614.616)" fill="#f22738"/>
    <path id="Trazado_13" data-name="Trazado 13" d="M124.426,577.644a30.074,30.074,0,0,0,5.812-4.516,21.227,21.227,0,0,0,4.391-5.812,5.661,5.661,0,0,0,.46-1.505,1.607,1.607,0,0,0-1.338-2.049,9.254,9.254,0,0,0-4.223.084,21.467,21.467,0,0,0-5.645,2.007,6.065,6.065,0,0,0-2.551,2.509,2.1,2.1,0,0,1-.335.418c-.285.3-.575.372-.878.042a3.519,3.519,0,0,1-.335-4.683,7.042,7.042,0,0,1,2.467-1.714,18.121,18.121,0,0,1,6.983-2.049A8.358,8.358,0,0,1,135.256,562a4.943,4.943,0,0,1,1.589,5.98,16.15,16.15,0,0,1-3.22,4.725,28.784,28.784,0,0,1-9.032,7.025,2.215,2.215,0,0,0-1.254,1.422,28.186,28.186,0,0,0-1.213,5.729,2.557,2.557,0,0,1-.084.5,1.511,1.511,0,0,1-1.965,1.171,2.216,2.216,0,0,1-1.882-2.969c.8-3.3,1.857-6.563,2.8-9.827.489-1.692.909-3.395,1.338-5.1a5.972,5.972,0,0,1,1.3-2.551,1.226,1.226,0,0,1,2.174.167,3.984,3.984,0,0,1,.335,3.178c-.406,1.893-.994,3.75-1.547,5.6C124.538,577.238,124.5,577.381,124.426,577.644Z" transform="translate(-112.997 -536.823)" fill="#f22738"/>
    <path id="Trazado_14" data-name="Trazado 14" d="M627.485,90.395a6.987,6.987,0,0,1,2.8-5.185A6.109,6.109,0,0,0,632.5,82.2a5.263,5.263,0,0,1,2.927-3.262,6.08,6.08,0,0,0,2.091-1.924,5.876,5.876,0,0,1,1.3-1.254,1.522,1.522,0,0,0,.5-.669A1.918,1.918,0,0,1,640.657,74a2.126,2.126,0,0,0,1.422-1.129c.162-.277.281-.571.585-.711a.461.461,0,0,0,.251-.251,2.488,2.488,0,0,1,4.223-.878,3.666,3.666,0,0,1,1.254,1.882.551.551,0,0,0,.46.46,1.364,1.364,0,0,1,.878.585,8.365,8.365,0,0,1,1.84,3.429,1.553,1.553,0,0,0,.711.92,2.08,2.08,0,0,1,.962,1.3,1.7,1.7,0,0,0,.711.962,10.648,10.648,0,0,1,1.171,1.087,1.215,1.215,0,0,1,.376.962,1.572,1.572,0,0,0,.669,1.464,1.608,1.608,0,0,1,.711,1.422,5.732,5.732,0,0,0,.084.836,2.468,2.468,0,0,1-2.216,2.927,2.089,2.089,0,0,1-1.129-.209,1.045,1.045,0,0,0-.794-.042,8.486,8.486,0,0,1-3.638.042,10.25,10.25,0,0,0-3.345.209,14.076,14.076,0,0,1-3.471.669c-.418-.03-.84-.081-1.255-.125a3.531,3.531,0,0,0-2.425.669,7.689,7.689,0,0,1-3.513,1,6.853,6.853,0,0,1-2.007.042,2.947,2.947,0,0,0-1.84.293,1.612,1.612,0,0,1-.962.209.765.765,0,0,0-.669.251,1.9,1.9,0,0,1-.46.335.99.99,0,0,1-1.505-.585A4.245,4.245,0,0,1,627.485,90.395Zm24.169-2.718a3.455,3.455,0,0,0-.376-1.338,7.881,7.881,0,0,1-.878-2.383,2.634,2.634,0,0,0-1.3-2.133,3.571,3.571,0,0,1-1.631-2.425,2.048,2.048,0,0,0-.92-1.38A3.894,3.894,0,0,1,645.3,76.6c-.581-1.052-1.391-1.952-1.965-3.011-.114-.209-.217-.257-.376-.042-.237.321-.562.586-.794.92a1.094,1.094,0,0,1-.878.5,1.062,1.062,0,0,0-.962.544,3.332,3.332,0,0,1-1.3,1.38,2.814,2.814,0,0,0-.753.795,6.327,6.327,0,0,1-2.634,2.383,3.907,3.907,0,0,0-2.049,2.342,7.222,7.222,0,0,1-2.383,3.471,5.084,5.084,0,0,0-1.547,1.422,11.255,11.255,0,0,0-1,2.216,2.745,2.745,0,0,0,.042,1.714c.067.194.225.395.418.167a7.282,7.282,0,0,1,1.84-1.254,4.015,4.015,0,0,1,2.133-.669c.523-.016,1.062.134,1.589.084a10.237,10.237,0,0,0,3.554-1.254,4.982,4.982,0,0,1,3.638-.418,2.088,2.088,0,0,0,.962,0c.322-.066.636-.119.962-.167a16.964,16.964,0,0,0,3.136-.418,4.231,4.231,0,0,1,2.676,0A12.521,12.521,0,0,0,651.654,87.677Z" transform="translate(-601.086 -67.178)" fill="#f22738"/>
    <path id="Trazado_15" data-name="Trazado 15" d="M273.929,1050.033c2.472-1.1,4.549-2.538,5.269-5.31a2.759,2.759,0,0,0-.042-1.547,1.87,1.87,0,0,0-1.84-1.38,8.422,8.422,0,0,0-6.356,2.76c-1.244,1.24-1.908,1.322-3.345.292-.544-.39-.587-.695-.084-1.171a9.621,9.621,0,0,1,2.969-1.8,16.09,16.09,0,0,1,8.112-1.213,5.77,5.77,0,0,1,2.133.669,3.4,3.4,0,0,1,1.673,4.182,8.33,8.33,0,0,1-3.763,4.558,13.562,13.562,0,0,1-5.352,2.008.72.72,0,0,0-.627.5c-.714,1.609-1.406,3.212-2.049,4.85a2.919,2.919,0,0,0-.251,1.422c.1.871-.222,1.293-1.087,1.38a4.4,4.4,0,0,1-2.383-.5c-.505-.248-.41-.686-.251-1.087.488-1.231,1-2.456,1.505-3.68.328-.788.651-1.563,1-2.342.13-.284.2-.475-.167-.585a.453.453,0,0,1-.376-.46.574.574,0,0,1,.376-.46c.031-.015.053-.043.084-.042.891.033,1.06-.691,1.338-1.3.871-1.9,1.738-3.816,2.676-5.687a1.387,1.387,0,0,1,1.464-.794,3.1,3.1,0,0,1,1.338.418.836.836,0,0,1,.376,1.338c-.753,1.4-1.47,2.823-2.133,4.265A1.353,1.353,0,0,0,273.929,1050.033Z" transform="translate(-255.224 -996.96)" fill="#f22738"/>
    <path id="Trazado_16" data-name="Trazado 16" d="M677.859,711.526c-1.649-.108-3.258-.138-4.851-.335-.277-.034-.563-.071-.836-.125a1.731,1.731,0,0,1-1.422-1.923,1.091,1.091,0,0,1,1.3-1,18.3,18.3,0,0,0,4.767.334c1.308.045,2.626-.04,3.931.125a3.47,3.47,0,0,1,1.84.753c.237.2.237.369.042.627-2.137,2.827-5.1,4.632-7.945,6.607-.125.089-.417.134-.376.335s.3.093.46.125c1.455.281,2.879.7,4.307,1.087a10.046,10.046,0,0,0,2.8.376,2.548,2.548,0,0,1,.376,0c.256.036.534.045.627.335a.645.645,0,0,1-.335.753,6.915,6.915,0,0,1-4.223,1.087,35.467,35.467,0,0,1-4.976-.711,23.947,23.947,0,0,0-4.181-.293c-1.083.014-1.4-.467-.962-1.464a4.548,4.548,0,0,1,1.924-2.091c2.418-1.426,4.851-2.81,7.276-4.223C677.541,711.818,677.758,711.763,677.859,711.526Z" transform="translate(-639.919 -678.399)" fill="#f22738"/>
    <path id="Trazado_17" data-name="Trazado 17" d="M968.2,1241.028a5.04,5.04,0,0,1-4.349.836,3,3,0,0,1-2.425-2.969,12.221,12.221,0,0,1,1.3-5.311c.334-.786.718-1.547,1.129-2.3a1.05,1.05,0,0,1,1.171-.627,4.374,4.374,0,0,1,1.84.627.958.958,0,0,1-.042,1.756,1.641,1.641,0,0,0-.627.794,16.439,16.439,0,0,0-1.589,5.227,3.208,3.208,0,0,0,.125,1.213c.181.585.543.688,1,.293a6.9,6.9,0,0,0,1.464-2.049,44.645,44.645,0,0,0,2.76-6.9c.243-.711.517-.915,1.254-.878a5.691,5.691,0,0,1,1.589.334c.441.155.534.416.376.878a29.8,29.8,0,0,0-1.714,9.032c-.01.494-.305.7-.753.753a10.254,10.254,0,0,1-1.924.042C968.382,1241.753,968.186,1241.522,968.2,1241.028Z" transform="translate(-921.057 -1179.09)" fill="#f22738"/>
    <path id="Trazado_18" data-name="Trazado 18" d="M531.331,1224.989a6.478,6.478,0,0,1,.92.083,2.516,2.516,0,0,1,2.007,3.262,5.093,5.093,0,0,1-4.683,3.805,4.152,4.152,0,0,1-2.049-.209c-.153-.071-.256-.025-.293.125a5.126,5.126,0,0,0,0,2.885c.153.463.321.45.669.084a3.284,3.284,0,0,0,.627-1.129.88.88,0,0,1,1-.585,5.187,5.187,0,0,1,1.923.5c.347.179.469.48.209.795-1.8,2.182-5.344,2.577-7.109,1.045a2.627,2.627,0,0,1-1-1.923,8.889,8.889,0,0,1,2.634-6.9A7.26,7.26,0,0,1,531.331,1224.989Zm-.167,1.923c.032-.64-.11-.731-.544-.585a2.331,2.331,0,0,0-.92.627,9.078,9.078,0,0,0-1.924,3.3c-.058.152-.211.362-.084.5a.557.557,0,0,0,.585.084,1.2,1.2,0,0,0,.335-.125A6.431,6.431,0,0,0,531.164,1226.912Z" transform="translate(-501.504 -1173.672)" fill="#f22738"/>
    <path id="Trazado_19" data-name="Trazado 19" d="M406.336,1579.352a1.138,1.138,0,0,0-.585-.084c-1.726-.007-3.446-.05-5.185-.209.869-.178,1.719-.39,2.593-.544q2.9-.5,5.812-.962c1.993-.314,4.013-.549,6.021-.753a61.456,61.456,0,0,1,8.321-.376,18.594,18.594,0,0,1,6.565,1.129c.3.125.721.216.711.585-.012.4-.447.424-.753.5a21.162,21.162,0,0,1-3.722.5c-1.127.079-2.26.141-3.387.209-1.272,0-2.575,0-3.847,0C414.7,1579.35,410.52,1579.357,406.336,1579.352Z" transform="translate(-383.659 -1510.389)" fill="#f22738"/>
    <path id="Trazado_20" data-name="Trazado 20" d="M756.525,1228.164a2.158,2.158,0,0,1-.585-.084c-.743-.316-1.2.08-1.673.544a9.623,9.623,0,0,0-2.425,4.265c-.329,1.121-.641,2.242-.878,3.387-.146.708-.393.929-1.129.962a6.038,6.038,0,0,1-1.672-.209c-.738-.176-.884-.415-.669-1.129.4-1.319.817-2.623,1.254-3.931.6-1.8,1.21-3.6,1.84-5.394.334-.95.617-1.086,1.589-.878a3.113,3.113,0,0,1,1.8.753c.179.195.263.03.376-.042a6,6,0,0,1,1.673-.836c.5-.125,1.085-.23,1.422.251a1.921,1.921,0,0,1,.251,1.882C757.486,1228.208,756.973,1228.09,756.525,1228.164Z" transform="translate(-715.992 -1174.129)" fill="#f22738"/>
    <path id="Trazado_21" data-name="Trazado 21" d="M510.528,757.863a1.758,1.758,0,0,1,.167-.753c1.161-2.959,2.619-5.786,4.056-8.614a.57.57,0,0,1,.753-.334,2.293,2.293,0,0,1,1.756,3.011,32.484,32.484,0,0,1-3.763,7.82c-.625.878-.947.9-1.882.334A1.828,1.828,0,0,1,510.528,757.863Z" transform="translate(-489.022 -716.749)" fill="#f22738"/>
    <path id="Trazado_22" data-name="Trazado 22" d="M1088.185,1167.372a2.972,2.972,0,0,1-1.422-.376c-.139-.079-.273-.146-.251-.335a.3.3,0,0,1,.251-.292c1.281-.114,2.351-.838,3.554-1.171a2.172,2.172,0,0,1,1.84.335c.513.351.483.747-.084,1a10.763,10.763,0,0,1-2.76.711C1088.936,1167.308,1088.565,1167.328,1088.185,1167.372Z" transform="translate(-1040.92 -1116.306)" fill="#f22738"/>
    <path id="Trazado_23" data-name="Trazado 23" d="M514.611,1646.971c4.182,0,8.4,0,12.586,0,1.272,0,2.534,0,3.805,0h.753v.084h-18.19v-.084Z" transform="translate(-491.934 -1578.008)" fill="#bf5012"/>
    <path id="Trazado_24" data-name="Trazado 24" d="M675.872,160.9a12.6,12.6,0,0,1-2.049-.376,4.23,4.23,0,0,0-2.676,0,16.9,16.9,0,0,1-3.136.418c-.326.048-.639.1-.962.167a2.153,2.153,0,0,1-.962,0,4.981,4.981,0,0,0-3.638.418,10.263,10.263,0,0,1-3.554,1.254c-.527.051-1.066-.1-1.589-.084a4.015,4.015,0,0,0-2.133.669,7.256,7.256,0,0,0-1.84,1.254c-.193.227-.351.027-.418-.167a2.746,2.746,0,0,1-.042-1.714,11.171,11.171,0,0,1,1-2.216,5.139,5.139,0,0,1,1.547-1.422,7.208,7.208,0,0,0,2.383-3.471,3.9,3.9,0,0,1,2.049-2.342,6.328,6.328,0,0,0,2.634-2.383,2.814,2.814,0,0,1,.753-.794,3.32,3.32,0,0,0,1.3-1.38,1.063,1.063,0,0,1,.962-.544,1.094,1.094,0,0,0,.878-.5c.232-.335.557-.6.795-.92.159-.215.262-.169.376.042.575,1.059,1.384,1.959,1.965,3.011a3.876,3.876,0,0,0,1.255,1.422,2.048,2.048,0,0,1,.92,1.38,3.569,3.569,0,0,0,1.631,2.425,2.64,2.64,0,0,1,1.3,2.133,7.9,7.9,0,0,0,.878,2.383A3.47,3.47,0,0,1,675.872,160.9Zm-11.332-.878a6.2,6.2,0,0,0,3.178-.627c1.365-.848,1.4-2.3,0-3.011a4.523,4.523,0,0,0-4.558.209,2.2,2.2,0,0,0-1,1.464,1.406,1.406,0,0,0,1.045,1.8A3.981,3.981,0,0,0,664.54,160.023Zm1.965-10.914c-.07,0-.14,0-.209,0a2.621,2.621,0,0,0-2.593,1.8.868.868,0,0,0,.585,1.129,4.144,4.144,0,0,0,3.931-.836.955.955,0,0,0-.125-1.631A2.828,2.828,0,0,0,666.505,149.109Zm2.593,5.98a1.774,1.774,0,0,0,1.38-.878c.285-.368-.093-.628-.251-.795-.627-.666-1.241-1.407-2.3-1.38a2.588,2.588,0,0,0-1.045.376c-.606.285-.667.5-.125.92a2.292,2.292,0,0,1,.209.167c.191.187.13.263-.125.335a4.447,4.447,0,0,1-.962.084.426.426,0,0,0-.418.293.436.436,0,0,0,.167.418c.931.951,1.061,1.014,1.882.125.035-.039.086-.05.125-.084.254-.209.458-.272.669.042A1.021,1.021,0,0,0,669.1,155.089ZM656.553,160.4a.9.9,0,0,0-.46-.962c-.51-.216-.937.1-1.3.46a2.191,2.191,0,0,0-.585,1.8c.047.8.627,1.177,1.338.794A2.1,2.1,0,0,0,656.553,160.4Zm1.464-3.094c0,.206-.006.384.167.46s.271-.04.376-.167a1.974,1.974,0,0,0,.376-.711c.077-.257.219-.321.334-.084.169.346.336.242.5.042a6.291,6.291,0,0,0,.544-.711c.418-.692.349-.88-.376-1.254-.092-.048-.2-.075-.293-.125-.293-.162-.5-.063-.711.167-.243.261-.547.557-.335.878s.069.5-.125.669A1.206,1.206,0,0,0,658.017,157.3Zm2.927,3.68c-.052-.027-.069-.042-.084-.042a2.67,2.67,0,0,1-2.843-1.422c-.032-.068-.045-.132-.125-.125-.334.028-.718.708-.544,1a2.879,2.879,0,0,0,1.84,1.38C660.145,162.017,660.408,161.892,660.944,160.985Zm8.739-3.805c.313.152.583.284.878.418a3.412,3.412,0,0,1,1.464,1.171.612.612,0,0,0,1,.042c.287-.263-.037-.448-.167-.627a2.562,2.562,0,0,0-.544-.5,7.472,7.472,0,0,0-1.589-.753A.831.831,0,0,0,669.683,157.179Zm-7.527-1.924c.551.064.94-.036,1.129-.627a2.042,2.042,0,0,0,0-1.714c-.259-.467-.623-.165-.92-.084-.338.093-.053.317,0,.46a1.406,1.406,0,0,1,.084,1C662.341,154.6,662.261,154.924,662.156,155.256Z" transform="translate(-625.304 -140.402)" fill="#fff"/>
    <path id="Trazado_25" data-name="Trazado 25" d="M624.9,1256.166a6.434,6.434,0,0,1-2.551,3.805,1.2,1.2,0,0,1-.334.125.558.558,0,0,1-.585-.083c-.128-.14.026-.35.084-.5a9.094,9.094,0,0,1,1.923-3.3,2.352,2.352,0,0,1,.92-.627C624.79,1255.432,624.932,1255.526,624.9,1256.166Z" transform="translate(-595.24 -1202.926)" fill="#fff"/>
    <path id="Trazado_26" data-name="Trazado 26" d="M878.782,371.749a3.977,3.977,0,0,1-1.338-.167,1.407,1.407,0,0,1-1.045-1.8,2.2,2.2,0,0,1,1-1.464,4.522,4.522,0,0,1,4.558-.209c1.4.707,1.365,2.163,0,3.011A6.2,6.2,0,0,1,878.782,371.749Z" transform="translate(-839.546 -352.128)" fill="#f22738"/>
    <path id="Trazado_27" data-name="Trazado 27" d="M916.394,205.955a2.83,2.83,0,0,1,1.589.46.955.955,0,0,1,.125,1.631,4.148,4.148,0,0,1-3.931.836.867.867,0,0,1-.585-1.129,2.623,2.623,0,0,1,2.593-1.8C916.255,205.951,916.324,205.955,916.394,205.955Z" transform="translate(-875.193 -197.248)" fill="#f22738"/>
    <path id="Trazado_28" data-name="Trazado 28" d="M959.948,279.025a1.017,1.017,0,0,1-.795-.376c-.209-.314-.415-.25-.669-.042-.04.034-.091.045-.125.084-.82.889-.95.825-1.882-.125a.433.433,0,0,1-.167-.418.425.425,0,0,1,.418-.293,4.348,4.348,0,0,0,.962-.084c.255-.071.316-.148.125-.335a1.8,1.8,0,0,0-.167-.167c-.544-.418-.522-.634.083-.92a2.588,2.588,0,0,1,1.045-.376c1.059-.027,1.671.714,2.3,1.38.158.167.536.426.251.794A1.775,1.775,0,0,1,959.948,279.025Z" transform="translate(-916.154 -264.338)" fill="#f22738"/>
    <path id="Trazado_29" data-name="Trazado 29" d="M689.736,452.319a2.1,2.1,0,0,1-1,2.091c-.711.382-1.291.008-1.338-.794a2.192,2.192,0,0,1,.585-1.8c.359-.365.786-.676,1.3-.46A.9.9,0,0,1,689.736,452.319Z" transform="translate(-658.487 -432.322)" fill="#f22738"/>
    <path id="Trazado_30" data-name="Trazado 30" d="M778.54,341.707a1.207,1.207,0,0,1,.46-.836c.2-.172.348-.334.125-.669s.092-.617.335-.878c.214-.23.417-.33.711-.167.091.05.2.078.293.125.725.376.8.562.376,1.254a6.1,6.1,0,0,1-.544.711c-.167.2-.332.3-.5-.042-.116-.238-.255-.174-.334.084a1.974,1.974,0,0,1-.376.711c-.106.125-.194.247-.376.167S778.536,341.912,778.54,341.707Z" transform="translate(-745.828 -324.805)" fill="#f22738"/>
    <path id="Trazado_31" data-name="Trazado 31" d="M765.076,453.567c-.536.908-.8,1.031-1.756.794a2.881,2.881,0,0,1-1.84-1.38.836.836,0,0,1,.5-1,.18.18,0,0,1,.167.125,2.67,2.67,0,0,0,2.843,1.422C765.007,453.524,765.025,453.54,765.076,453.567Z" transform="translate(-729.436 -432.985)" fill="#f22738"/>
    <path id="Trazado_32" data-name="Trazado 32" d="M1057.565,391.178a.829.829,0,0,1,1.046-.251,7.474,7.474,0,0,1,1.589.753,2.535,2.535,0,0,1,.544.5c.13.179.455.364.167.627a.613.613,0,0,1-1-.042,3.318,3.318,0,0,0-1.464-1.129C1058.147,391.5,1057.878,391.33,1057.565,391.178Z" transform="translate(-1013.186 -374.401)" fill="#f22738"/>
    <path id="Trazado_33" data-name="Trazado 33" d="M877.566,293.493c.1-.332.186-.654.293-.962a1.405,1.405,0,0,0-.084-1c-.053-.143-.338-.367,0-.46.3-.082.659-.383.92.084a2.041,2.041,0,0,1,0,1.714C878.5,293.457,878.116,293.557,877.566,293.493Z" transform="translate(-840.713 -278.64)" fill="#f22738"/>
  </g>
</svg>
