<svg width="21" height="21" viewBox="0 0 21 21" fill="none" xmlns="http://www.w3.org/2000/svg">
<circle cx="10.5" cy="10.5" r="10.5" fill="#00A662"/>
<circle cx="10.5" cy="10.4999" r="8.32759" fill="white"/>
<path d="M11.4389 5.81261L7.96552 11.0691H9.9931L9.49397 14.4291C9.49302 14.4357 9.49326 14.4425 9.49468 14.449C9.4961 14.4554 9.49865 14.4614 9.50217 14.4666C9.50569 14.4717 9.51009 14.4758 9.51505 14.4786C9.52 14.4814 9.52541 14.4829 9.53088 14.4829C9.53669 14.4829 9.54243 14.4812 9.54762 14.478C9.55282 14.4748 9.55734 14.4702 9.56081 14.4644L13.0345 9.20701H11.0069L11.5084 5.84655C11.5091 5.83986 11.5086 5.83306 11.5069 5.82662C11.5053 5.82018 11.5026 5.81424 11.4989 5.80919C11.4953 5.80415 11.4908 5.80011 11.4857 5.79736C11.4807 5.7946 11.4753 5.79319 11.4698 5.79321C11.4637 5.79324 11.4578 5.79501 11.4524 5.79838C11.447 5.80176 11.4424 5.80663 11.4389 5.81261Z" fill="#89898C"/>
</svg>
