<svg width="21" height="19" viewBox="0 0 21 19" fill="none" xmlns="http://www.w3.org/2000/svg">
<g clip-path="url(#clip0_36_570)">
<path d="M21 8.73645C21 14.4009 16.3017 19 10.5 19C4.69831 19 0 14.4009 0 8.73645C0 5.91308 1.17458 3.35607 3.06102 1.50935C4.03983 0.53271 5.37458 0 6.76271 0H14.2373C15.6254 0 16.9424 0.53271 17.939 1.50935C19.8254 3.35607 21 5.91308 21 8.73645Z" fill="#929599"/>
<path d="M9.46863 4.14482C9.7216 3.07588 9.05819 2.00472 7.98687 1.75231C6.91554 1.4999 5.84199 2.16184 5.58902 3.23077C5.33605 4.29971 5.99946 5.37088 7.07078 5.62328C8.14211 5.87569 9.21566 5.21376 9.46863 4.14482Z" fill="#1A1D26"/>
<path d="M6.51046 8.58896C6.82216 7.27187 5.99699 5.95022 4.66741 5.63696C3.33782 5.32371 2.00729 6.13747 1.6956 7.45456C1.3839 8.77165 2.20907 10.0933 3.53866 10.4066C4.86825 10.7198 6.19877 9.90604 6.51046 8.58896Z" fill="#1A1D26"/>
<path d="M9.56561 14.1248C9.87956 12.7982 9.06398 11.4706 7.74396 11.1596C6.42394 10.8486 5.09934 11.6719 4.78538 12.9986C4.47143 14.3252 5.28701 15.6528 6.60703 15.9638C7.92706 16.2748 9.25165 15.4514 9.56561 14.1248Z" fill="#1A1D26"/>
<path d="M15.5975 15.3078C16.5635 14.3439 16.5635 12.7811 15.5975 11.8172C14.6315 10.8533 13.0652 10.8533 12.0991 11.8172C11.1331 12.7811 11.1331 14.3439 12.0991 15.3078C13.0652 16.2717 14.6315 16.2717 15.5975 15.3078Z" fill="#1A1D26"/>
<path d="M11.4436 10.2896C12.6968 9.77171 13.2918 8.33823 12.7728 7.08786C12.2537 5.8375 10.817 5.24374 9.56384 5.76167C8.31068 6.2796 7.7156 7.71308 8.23469 8.96345C8.75377 10.2138 10.1905 10.8076 11.4436 10.2896Z" fill="#1A1D26"/>
<path d="M18.6861 9.75885C19.6452 8.80189 19.6452 7.25036 18.6861 6.2934C17.727 5.33644 16.172 5.33644 15.2129 6.2934C14.2538 7.25036 14.2538 8.80189 15.2129 9.75885C16.172 10.7158 17.727 10.7158 18.6861 9.75885Z" fill="#1A1D26"/>
<path d="M15.7867 4.14531C16.0397 3.07637 15.3763 2.00521 14.305 1.7528C13.2337 1.50039 12.1601 2.16232 11.9071 3.23126C11.6542 4.3002 12.3176 5.37136 13.3889 5.62377C14.4602 5.87618 15.5338 5.21425 15.7867 4.14531Z" fill="#1A1D26"/>
</g>
<defs>
<clipPath id="clip0_36_570">
<rect width="21" height="19" fill="white"/>
</clipPath>
</defs>
</svg>
