<svg width="21" height="28" viewBox="0 0 21 28" fill="none" xmlns="http://www.w3.org/2000/svg">
<path d="M19.3099 16.634C17.3658 20.315 14.9546 23.7317 12.1355 26.8001L11.4403 27.581C11.3237 27.7127 11.1803 27.8182 11.0196 27.8904C10.8589 27.9626 10.6847 28 10.5084 28C10.3321 28 10.1578 27.9626 9.99713 27.8904C9.83645 27.8182 9.69305 27.7127 9.57644 27.581C6.00407 23.5219 2.66097 19.3965 0.70097 14.3209C0.131839 12.8406 -0.0953242 11.2518 0.036337 9.67214C0.167998 8.09252 0.655104 6.56271 1.46151 5.19623C2.26791 3.82975 3.37291 2.66167 4.69451 1.77868C6.01611 0.895697 7.52038 0.320466 9.09569 0.0956759C10.4878 -0.0934249 11.9039 -0.00159633 13.2597 0.365694C14.6154 0.732985 15.8831 1.36823 16.9873 2.2336C18.0914 3.09898 19.0095 4.17679 19.6868 5.40288C20.3641 6.62896 20.7868 7.97825 20.9296 9.3704C21.2477 12.0151 20.4489 14.3577 19.3099 16.634Z" fill="#FFC421"/>
<circle cx="10.5" cy="11.5" r="8.5" fill="#EAAC21"/>
<circle cx="10.5" cy="11.5" r="6.5" fill="white"/>
<path d="M11.4261 7.01786L8 11.8571H10L9.50766 14.9505C9.50672 14.9566 9.50696 14.9628 9.50836 14.9688C9.50976 14.9747 9.51228 14.9803 9.51575 14.985C9.51922 14.9897 9.52356 14.9935 9.52845 14.9961C9.53334 14.9987 9.53867 15 9.54406 15C9.5498 15 9.55546 14.9985 9.56058 14.9955C9.56571 14.9926 9.57017 14.9883 9.57359 14.983L13 10.1429H11L11.4947 7.04911C11.4954 7.04294 11.4949 7.03669 11.4932 7.03076C11.4916 7.02483 11.4889 7.01936 11.4853 7.01471C11.4817 7.01007 11.4773 7.00635 11.4723 7.00382C11.4674 7.00128 11.462 6.99998 11.4566 7C11.4506 7.00003 11.4448 7.00166 11.4395 7.00476C11.4342 7.00786 11.4296 7.01235 11.4261 7.01786Z" fill="#89898C"/>
</svg>
