<svg width="21" height="28" viewBox="0 0 21 28" fill="none" xmlns="http://www.w3.org/2000/svg">
<path d="M19.3099 16.634C17.3658 20.315 14.9546 23.7317 12.1355 26.8001L11.4403 27.581C11.3237 27.7127 11.1803 27.8182 11.0196 27.8904C10.8589 27.9626 10.6847 28 10.5084 28C10.3321 28 10.1578 27.9626 9.99713 27.8904C9.83645 27.8182 9.69305 27.7127 9.57644 27.581C6.00406 23.5219 2.66097 19.3965 0.70097 14.3209C0.131839 12.8406 -0.0953242 11.2518 0.036337 9.67214C0.167998 8.09252 0.655104 6.56271 1.46151 5.19623C2.26791 3.82975 3.37291 2.66167 4.69451 1.77868C6.01611 0.895697 7.52038 0.320466 9.09569 0.0956759C10.4878 -0.0934249 11.9039 -0.00159633 13.2597 0.365694C14.6154 0.732985 15.8831 1.36823 16.9873 2.2336C18.0914 3.09898 19.0095 4.17679 19.6868 5.40288C20.3641 6.62896 20.7868 7.97825 20.9296 9.3704C21.2477 12.0151 20.4489 14.3577 19.3099 16.634Z" fill="#89898C"/>
<circle cx="10.5" cy="11.5" r="8.5" fill="#7E7E7F"/>
<circle cx="10.5" cy="11.5" r="6.5" fill="white"/>
<path d="M7.43517 8.00039L7 8.43556L7.95737 9.7763C7.99767 9.83276 8.05089 9.87877 8.11258 9.91049C8.17428 9.94221 8.24266 9.95872 8.31203 9.95864H8.34249C8.39971 9.95859 8.45637 9.96983 8.50924 9.99171C8.5621 10.0136 8.61014 10.0457 8.65059 10.0861L9.81466 11.2502L8.67583 12.4051C8.48104 12.3478 8.27558 12.3366 8.07573 12.3726C7.87588 12.4085 7.68715 12.4904 7.52451 12.612C7.36186 12.7335 7.22978 12.8913 7.13873 13.0728C7.04769 13.2543 7.00019 13.4545 7 13.6576C7.00026 13.8447 7.04073 14.0295 7.11867 14.1996C7.19662 14.3697 7.31021 14.521 7.45175 14.6434C7.59329 14.7657 7.75948 14.8562 7.93905 14.9088C8.11863 14.9613 8.30739 14.9746 8.49256 14.9478C8.67772 14.921 8.85496 14.8547 9.01227 14.7534C9.16957 14.6521 9.30327 14.5182 9.4043 14.3607C9.50533 14.2032 9.57133 14.0259 9.59783 13.8407C9.62434 13.6555 9.61072 13.4667 9.55791 13.2872L10.7128 12.1484L11.1341 12.5696L11.0014 12.9674C10.9759 13.044 10.9722 13.1263 10.9908 13.2049C11.0094 13.2835 11.0495 13.3554 11.1067 13.4126L12.5671 14.873C12.6487 14.9546 12.7594 15.0004 12.8748 15.0004C12.9901 15.0004 13.1008 14.9546 13.1824 14.873L13.8726 14.1828C13.9542 14.1012 14 13.9905 14 13.8751C14 13.7597 13.9542 13.6491 13.8726 13.5675L12.4122 12.1071C12.3551 12.0499 12.2832 12.0098 12.2045 11.9912C12.1259 11.9726 12.0437 11.9762 11.967 12.0017L11.5693 12.1345L11.1515 11.7167L12.3177 10.5666C12.5112 10.6182 12.714 10.6247 12.9103 10.5856C13.1067 10.5465 13.2915 10.4629 13.4505 10.341C13.6094 10.2192 13.7382 10.0626 13.827 9.88308C13.9158 9.7036 13.9622 9.50613 13.9627 9.30589C13.9627 9.18883 13.9474 9.07525 13.9183 8.96776L12.987 9.89946L12.222 9.74106L12.0636 8.97647L12.9953 8.04478C12.7737 7.98518 12.5402 7.98507 12.3185 8.04445C12.0969 8.10383 11.8947 8.22061 11.7326 8.383C11.5704 8.54539 11.4539 8.74767 11.3948 8.96944C11.3357 9.19121 11.3362 9.42464 11.3961 9.64619L10.2472 10.8116L9.08575 9.65098C9.00414 9.56939 8.95828 9.45872 8.95825 9.34331V9.31242C8.95826 9.24312 8.94172 9.17482 8.91 9.11321C8.87829 9.0516 8.83232 8.99845 8.77592 8.95819L7.43517 8.00039ZM11.6328 12.6332C11.653 12.6129 11.677 12.5968 11.7034 12.5859C11.7299 12.5749 11.7582 12.5693 11.7868 12.5693C11.8155 12.5693 11.8438 12.5749 11.8702 12.5859C11.8967 12.5968 11.9207 12.6129 11.9409 12.6332L13.2464 13.9387C13.2666 13.9589 13.2827 13.9829 13.2936 14.0094C13.3046 14.0358 13.3102 14.0641 13.3102 14.0927C13.3102 14.1213 13.3046 14.1497 13.2936 14.1761C13.2827 14.2025 13.2666 14.2265 13.2464 14.2468C13.2262 14.267 13.2021 14.283 13.1757 14.294C13.1493 14.3049 13.1209 14.3106 13.0923 14.3106C13.0637 14.3106 13.0354 14.3049 13.009 14.294C12.9825 14.283 12.9585 14.267 12.9383 14.2468L11.6328 12.9413C11.6125 12.9211 11.5964 12.897 11.5855 12.8706C11.5745 12.8442 11.5689 12.8158 11.5689 12.7872C11.5689 12.7586 11.5745 12.7303 11.5855 12.7038C11.5964 12.6774 11.6125 12.6534 11.6328 12.6332ZM8.3055 12.7872L8.51046 12.8925L8.74067 12.9038L8.86556 13.0975L9.05921 13.2224L9.07052 13.4526L9.17583 13.6576L9.07052 13.8625L9.05921 14.0927L8.86556 14.2176L8.74067 14.4113L8.51046 14.4226L8.3055 14.5279L8.10054 14.4226L7.87033 14.4113L7.74544 14.2176L7.55179 14.0927L7.54048 13.8625L7.43517 13.6576L7.54048 13.4526L7.55179 13.2224L7.74544 13.0975L7.87033 12.9038L8.10054 12.8925L8.3055 12.7872Z" fill="#89898C"/>
</svg>
