<svg width="16" height="16" viewBox="0 0 16 16" fill="none" xmlns="http://www.w3.org/2000/svg">
<path d="M13.2764 11.0317C12.9272 11.033 12.582 11.1019 12.2613 11.2342C11.9406 11.3665 11.6511 11.5596 11.4102 11.8018L5.09099 8.77116C5.24644 8.31942 5.24644 7.83178 5.09099 7.38004L11.4206 4.29475C11.8739 4.75264 12.4887 5.03261 13.1455 5.08026C13.8023 5.1279 14.454 4.93981 14.9742 4.55255C15.4943 4.16528 15.8456 3.6065 15.9598 2.98482C16.074 2.36314 15.9429 1.72298 15.5921 1.18875C15.2412 0.654519 14.6957 0.264395 14.0614 0.0942029C13.4272 -0.0759891 12.7496 -0.0140904 12.1603 0.267868C11.571 0.549827 11.1122 1.0317 10.8729 1.61983C10.6337 2.20796 10.6312 2.86033 10.8659 3.45014L4.59852 6.50563C4.26004 6.10889 3.80181 5.82219 3.28664 5.68483C2.77147 5.54748 2.22459 5.56619 1.72095 5.73841C1.21732 5.91063 0.781583 6.22792 0.473484 6.64679C0.165385 7.06566 0 7.5656 0 8.07809C0 8.59057 0.165385 9.09052 0.473484 9.50939C0.781583 9.92826 1.21732 10.2455 1.72095 10.4178C2.22459 10.59 2.77147 10.6087 3.28664 10.4713C3.80181 10.334 4.26004 10.0473 4.59852 9.65055L10.8503 12.6663C10.7447 12.9381 10.6903 13.2258 10.6896 13.5159C10.6896 14.0072 10.8416 14.4875 11.1264 14.896C11.4113 15.3045 11.8161 15.6229 12.2897 15.8109C12.7633 15.9989 13.2845 16.0481 13.7872 15.9523C14.29 15.8564 14.7519 15.6198 15.1144 15.2724C15.4769 14.925 15.7237 14.4824 15.8237 14.0005C15.9237 13.5186 15.8724 13.0191 15.6762 12.5652C15.4801 12.1113 15.1478 11.7233 14.7216 11.4504C14.2953 11.1774 13.7942 11.0317 13.2816 11.0317H13.2764ZM13.2764 1.09518C13.584 1.09518 13.8847 1.18259 14.1404 1.34637C14.3961 1.51015 14.5955 1.74293 14.7132 2.01528C14.8309 2.28763 14.8617 2.58731 14.8017 2.87644C14.7417 3.16556 14.5936 3.43114 14.3761 3.63959C14.1586 3.84804 13.8815 3.98999 13.5798 4.0475C13.2781 4.10501 12.9654 4.0755 12.6813 3.96269C12.3971 3.84988 12.1542 3.65884 11.9833 3.41373C11.8124 3.16862 11.7212 2.88045 11.7212 2.58566C11.7212 2.19036 11.8851 1.81125 12.1767 1.53173C12.4684 1.25221 12.8639 1.09518 13.2764 1.09518ZM2.63382 9.54124C2.32624 9.54124 2.02556 9.45383 1.76981 9.29005C1.51407 9.12628 1.31474 8.89349 1.19703 8.62114C1.07932 8.34879 1.04852 8.04911 1.10853 7.75998C1.16854 7.47086 1.31665 7.20528 1.53415 6.99683C1.75164 6.78838 2.02875 6.64643 2.33042 6.58892C2.6321 6.53141 2.94479 6.56092 3.22896 6.67374C3.51313 6.78655 3.75602 6.97759 3.9269 7.22269C4.09778 7.4678 4.18899 7.75597 4.18899 8.05076C4.18899 8.44606 4.02515 8.82517 3.73349 9.10469C3.44184 9.38421 3.04628 9.54124 2.63382 9.54124ZM13.2764 15.0063C12.9688 15.0063 12.6681 14.9189 12.4124 14.7552C12.1566 14.5914 11.9573 14.3586 11.8396 14.0862C11.7219 13.8139 11.6911 13.5142 11.7511 13.2251C11.8111 12.936 11.9592 12.6704 12.1767 12.4619C12.3942 12.2535 12.6713 12.1115 12.973 12.054C13.2747 11.9965 13.5874 12.026 13.8715 12.1388C14.1557 12.2516 14.3986 12.4427 14.5695 12.6878C14.7404 12.9329 14.8316 13.2211 14.8316 13.5159C14.8316 13.9112 14.6677 14.2903 14.3761 14.5698C14.0844 14.8493 13.6889 15.0063 13.2764 15.0063Z" fill="#949494"/>
</svg>
